<?xml version="1.0" encoding="utf-8"?>
<!-- Generator: Adobe Illustrator 16.0.0, SVG Export Plug-In . SVG Version: 6.00 Build 0)  -->
<!DOCTYPE svg PUBLIC "-//W3C//DTD SVG 1.1//EN" "http://www.w3.org/Graphics/SVG/1.1/DTD/svg11.dtd">
<svg version="1.1" id="Layer_1" xmlns="http://www.w3.org/2000/svg" xmlns:xlink="http://www.w3.org/1999/xlink" x="0px" y="0px"
	 width="30px" height="30px" viewBox="0 0 30 30" enable-background="new 0 0 30 30" xml:space="preserve">
<g>
	<path fill-rule="evenodd" clip-rule="evenodd" d="M10.186,1c0.222,0.103,0.462,0.175,0.659,0.312
		c0.429,0.3,0.644,0.733,0.653,1.259c0.005,0.209,0.001,0.418,0.001,0.666c0.175,0,0.335,0,0.497,0c0.473,0,0.946-0.001,1.422,0.002
		c0.305,0.004,0.451,0.145,0.47,0.448c0.006,0.063,0.002,0.125,0.002,0.191c0,2.477,0,4.957,0,7.437
		c0,0.963-0.482,1.442-1.443,1.442c-1.733,0-3.464,0.001-5.195,0c-0.855-0.001-1.364-0.5-1.364-1.36c-0.002-2.313,0-4.628,0-6.944
		c0-0.117,0-0.234,0-0.384c-0.431,0-0.849-0.029-1.258,0.018c-0.13,0.015-0.253,0.225-0.342,0.366
		C4.24,4.526,4.272,4.649,4.272,4.75c0,6.871,0,13.741,0,20.616c0,0.584,0.111,0.696,0.703,0.696c5.332,0,10.667,0,15.999,0
		c0.577,0,0.697-0.116,0.697-0.706c0-6.87,0-13.741,0-20.615c0-0.561-0.123-0.685-0.694-0.685c-1.796,0-3.587,0-5.388,0
		c-0.082,0-0.164,0.011-0.246-0.006c-0.219-0.045-0.354-0.175-0.353-0.415c0.007-0.236,0.142-0.366,0.376-0.395
		c0.068-0.008,0.141-0.005,0.219-0.005c1.82,0,3.642-0.001,5.469,0c0.928,0.001,1.436,0.511,1.438,1.434c0,0.218,0,0.434,0,0.681
		c0.126,0,0.225,0,0.319,0c0.794,0,1.586-0.005,2.379,0.001c0.827,0.004,1.358,0.527,1.358,1.349c0.002,6.98,0,13.963,0.002,20.944
		c0,0.727-0.395,1.143-1.051,1.354c-6.327,0-12.652,0-18.977,0c-1.086-0.316-1.109-1.188-1.034-2.116
		c-0.242,0-0.439,0.002-0.639-0.002c-0.893-0.005-1.397-0.516-1.397-1.415c-0.001-6.938-0.001-13.877,0-20.818
		c0-0.894,0.511-1.408,1.402-1.411c1.029-0.002,2.059-0.001,3.087-0.001c0.096,0,0.193,0,0.318,0c0-0.252-0.006-0.469,0.001-0.685
		c0.024-0.681,0.376-1.14,0.977-1.428C9.333,1.078,9.431,1.041,9.53,1C9.749,1,9.967,1,10.186,1z M24.516,28.179
		c0.133,0,0.315,0,0.496,0c0.604,0,0.717-0.115,0.717-0.719c0-6.863,0-13.725,0-20.588c0-0.099,0.029-0.219-0.018-0.295
		c-0.078-0.141-0.186-0.343-0.306-0.363c-0.304-0.053-0.627-0.018-0.928-0.018c0.017,0.222,0.034,0.42,0.036,0.62
		c0.006,0.619,0.002,1.239,0.002,1.859c0,0.454,0.008,0.911-0.006,1.367c-0.007,0.234-0.182,0.4-0.396,0.404
		c-0.212,0.004-0.391-0.163-0.414-0.394c-0.01-0.073-0.004-0.146-0.004-0.219c0-1.039,0.002-2.078-0.002-3.117
		c0-0.37-0.162-0.534-0.53-0.543c-0.216-0.007-0.433-0.001-0.673-0.001c0,0.148,0,0.263,0,0.381c0,6.262,0,12.522,0,18.784
		c0,0.109,0.008,0.219-0.004,0.328c-0.034,0.457-0.229,0.842-0.648,1.037c-0.261,0.121-0.576,0.176-0.865,0.176
		c-4.768,0.008-9.535,0.005-14.303,0.005c-0.115,0-0.232,0-0.373,0c0,0.222,0,0.412,0,0.602c0,0.572,0.123,0.694,0.684,0.694
		c5.341,0,10.686,0,16.021,0c0.568,0,0.693-0.123,0.693-0.689c0-5.094,0-10.186,0-15.284c0-0.445,0.124-0.645,0.404-0.647
		c0.285-0.006,0.416,0.196,0.416,0.636c0,4.896,0,9.792,0,14.686C24.516,27.304,24.516,27.729,24.516,28.179z M9.086,4.068
		c0,1.19-0.013,2.355,0.005,3.519C9.098,7.966,9.5,8.272,9.893,8.26c0.434-0.014,0.755-0.306,0.78-0.722
		c0.015-0.237-0.001-0.475,0.012-0.71c0.013-0.235,0.189-0.411,0.4-0.401c0.23,0.01,0.394,0.133,0.406,0.364
		c0.015,0.328,0.029,0.662-0.025,0.982c-0.137,0.819-0.874,1.368-1.696,1.303C8.912,9.012,8.271,8.357,8.261,7.503
		C8.249,6.457,8.256,5.409,8.256,4.36c0-0.096,0-0.191,0-0.291c-0.535,0-1.025,0-1.548,0c0,0.099,0,0.188,0,0.275
		c0,2.334-0.001,4.665,0,6.998c0,0.471,0.125,0.594,0.603,0.594c1.713,0,3.427,0,5.139,0c0.495,0,0.62-0.121,0.62-0.608
		c0.001-2.324,0-4.646,0-6.97c0-0.096,0-0.19,0-0.278c-0.551,0-1.055,0-1.57,0c0,0.221,0.005,0.422-0.001,0.621
		c-0.014,0.562-0.406,1.008-0.959,1.094c-0.28,0.045-0.497-0.083-0.55-0.32c-0.054-0.24,0.099-0.405,0.387-0.496
		c0.117-0.036,0.264-0.159,0.286-0.265c0.047-0.205,0.013-0.427,0.013-0.647C10.135,4.068,9.626,4.068,9.086,4.068z M10.674,3.222
		c0-0.257,0.015-0.485-0.001-0.711c-0.03-0.39-0.345-0.67-0.751-0.689C9.532,1.803,9.146,2.068,9.1,2.429
		c-0.035,0.257-0.008,0.52-0.008,0.793C9.622,3.222,10.137,3.222,10.674,3.222z"/>
	<path fill-rule="evenodd" clip-rule="evenodd" d="M15.366,19.755c1.152,0,2.313-0.002,3.471,0c0.717,0,1.08,0.363,1.082,1.07
		c0,0.531,0.002,1.055,0,1.586c-0.006,0.619-0.389,1.01-1.002,1.012c-1.496,0.002-2.99,0-4.483,0c-0.337,0-0.532-0.16-0.522-0.422
		c0.007-0.249,0.196-0.396,0.52-0.396c1.449-0.002,2.898-0.008,4.346,0.004c0.246,0.004,0.341-0.059,0.33-0.322
		c-0.018-0.48-0.017-0.961-0.002-1.448c0.004-0.2-0.069-0.269-0.27-0.267c-2.322,0.006-4.648,0.006-6.972,0
		c-0.184,0-0.261,0.055-0.258,0.25c0.011,0.518,0.009,1.037,0.002,1.557c-0.002,0.166,0.062,0.236,0.227,0.227
		c0.18-0.01,0.364-0.01,0.547,0.002c0.25,0.011,0.425,0.191,0.422,0.414c-0.003,0.224-0.176,0.39-0.432,0.4
		c-0.226,0.01-0.455,0.01-0.683-0.002c-0.477-0.016-0.878-0.392-0.893-0.865c-0.019-0.639-0.018-1.278,0-1.912
		c0.014-0.514,0.43-0.883,0.96-0.885C12.958,19.751,14.16,19.755,15.366,19.755z"/>
	<path fill-rule="evenodd" clip-rule="evenodd" d="M12.758,17.582c-2.077,0-4.153,0.002-6.23,0c-0.101,0-0.228,0.03-0.296-0.021
		c-0.128-0.086-0.273-0.205-0.321-0.346c-0.064-0.178,0.047-0.342,0.231-0.408c0.107-0.042,0.231-0.043,0.348-0.043
		c4.182-0.002,8.362-0.002,12.546,0c0.108,0,0.219,0,0.323,0.028c0.196,0.058,0.299,0.216,0.278,0.415
		c-0.021,0.203-0.137,0.338-0.349,0.365c-0.096,0.012-0.198,0.01-0.301,0.01C16.911,17.583,14.834,17.582,12.758,17.582z"/>
	<path fill-rule="evenodd" clip-rule="evenodd" d="M12.752,14.772c2.104,0,4.208,0,6.311,0.001c0.109,0,0.254-0.023,0.322,0.035
		c0.111,0.1,0.242,0.253,0.238,0.381c-0.008,0.126-0.151,0.272-0.268,0.359c-0.084,0.06-0.23,0.04-0.349,0.04
		c-4.158,0.001-8.323,0-12.488,0c-0.044,0-0.089,0.002-0.136,0c-0.311-0.009-0.498-0.174-0.49-0.429
		c0.008-0.247,0.184-0.386,0.493-0.387C8.509,14.771,10.631,14.772,12.752,14.772z"/>
	<path fill-rule="evenodd" clip-rule="evenodd" d="M5.887,21.589c0-0.284-0.007-0.563,0-0.848c0.018-0.613,0.396-0.98,1.002-0.986
		c0.511-0.004,1.021-0.004,1.529,0c0.586,0.008,0.979,0.387,0.988,0.974c0.01,0.573,0.01,1.148,0,1.722
		c-0.01,0.586-0.404,0.967-0.99,0.973c-0.519,0.004-1.038,0.006-1.557-0.002c-0.56-0.006-0.942-0.369-0.97-0.932
		C5.876,22.191,5.887,21.888,5.887,21.589L5.887,21.589z M8.589,21.604c0-0.273-0.002-0.547,0.001-0.82
		c0.001-0.142-0.059-0.212-0.213-0.21c-0.491,0.006-0.981-0.007-1.471,0.014c-0.068,0.002-0.187,0.114-0.189,0.184
		c-0.016,0.545-0.016,1.09,0,1.635c0.002,0.07,0.12,0.185,0.187,0.186c0.49,0.021,0.98,0.008,1.471,0.014
		c0.153,0.002,0.216-0.066,0.215-0.209C8.587,22.13,8.589,21.869,8.589,21.604z"/>
	<path fill-rule="evenodd" clip-rule="evenodd" d="M17.713,7.337c-0.475,0-0.949,0.001-1.418,0
		c-0.318-0.003-0.508-0.164-0.506-0.416c0.002-0.254,0.184-0.404,0.51-0.404c0.945,0,1.889-0.001,2.84,0
		c0.314,0,0.504,0.16,0.5,0.41c-0.002,0.248-0.193,0.407-0.506,0.41C18.659,7.338,18.187,7.337,17.713,7.337z"/>
</g>
</svg>
