<?xml version="1.0" encoding="utf-8"?>
<!-- Generator: Adobe Illustrator 16.0.0, SVG Export Plug-In . SVG Version: 6.00 Build 0)  -->
<!DOCTYPE svg PUBLIC "-//W3C//DTD SVG 1.1//EN" "http://www.w3.org/Graphics/SVG/1.1/DTD/svg11.dtd">
<svg version="1.1" id="Layer_1" xmlns="http://www.w3.org/2000/svg" xmlns:xlink="http://www.w3.org/1999/xlink" x="0px" y="0px"
	 width="30px" height="30px" viewBox="0 0 30 30" enable-background="new 0 0 30 30" xml:space="preserve">
<g>
	<path fill-rule="evenodd" clip-rule="evenodd" d="M1,28.016C1,20.069,1,12.12,1,4.172c0.258-0.736,0.78-1.049,1.553-0.993
		c0.351,0.025,0.704,0.004,1.1,0.004C3.591,2.254,3.548,1.343,4.664,1c0.347,0,0.693,0,1.039,0c0.819,0.338,1.029,0.656,1.03,1.558
		c0,0.204,0,0.408,0,0.612c0.627,0,1.207,0,1.803,0c0.005-0.092,0.012-0.171,0.012-0.25C8.55,2.701,8.544,2.482,8.55,2.264
		C8.566,1.602,8.957,1.229,9.531,1c0.365,0,0.729,0,1.094,0c0.758,0.253,1.068,0.791,1.011,1.571
		c-0.015,0.196-0.002,0.395-0.002,0.595c0.626,0,1.213,0,1.828,0c0-0.279-0.029-0.545,0.008-0.802
		c0.041-0.28,0.076-0.602,0.236-0.814c0.178-0.237,0.492-0.372,0.748-0.55c0.363,0,0.728,0,1.093,0
		c0.751,0.264,1.062,0.801,0.995,1.582c-0.018,0.194-0.003,0.392-0.003,0.591c0.627,0,1.209,0,1.831,0
		C18.334,2.277,18.254,1.348,19.375,1c0.364,0,0.729,0,1.094,0c1.076,0.372,1.024,1.273,0.972,2.167c0.627,0,1.213,0,1.833,0
		C23.232,2.257,23.168,1.336,24.296,1c0.346,0,0.693,0,1.039,0c1.123,0.34,1.059,1.26,1.021,2.183c0.487,0,0.938,0.001,1.393,0
		c0.323-0.001,0.624,0.092,0.836,0.333C28.753,3.708,28.864,3.952,29,4.172c0,7.948,0,15.897,0,23.844
		c-0.169,0.488-0.497,0.815-0.984,0.984c-8.678,0-17.355,0-26.032,0C1.497,28.832,1.167,28.504,1,28.016z M1.82,8.612
		c0,0.123,0,0.205,0,0.287c0,6.233,0,12.467,0,18.701c0,0.445,0.138,0.58,0.593,0.58c8.384,0.001,16.77,0.001,25.153,0
		c0.485,0,0.612-0.128,0.612-0.615c0.001-6.216,0-12.432,0-18.647c0-0.096,0-0.191,0-0.305c-0.157,0-0.275,0-0.394,0
		c-6.862,0-13.724,0-20.587,0c-0.109,0-0.22,0.005-0.328-0.007C6.665,8.58,6.539,8.458,6.518,8.251
		c-0.023-0.22,0.078-0.376,0.291-0.433C6.92,7.789,7.042,7.792,7.16,7.792c6.881,0,13.761,0,20.643,0c0.115,0,0.231,0,0.372,0
		c0-1.154,0.005-2.282-0.006-3.409c-0.002-0.2-0.143-0.358-0.344-0.366c-0.479-0.02-0.96-0.006-1.465-0.006
		c0,0.361,0.006,0.697-0.001,1.032c-0.018,0.776-0.543,1.296-1.315,1.313c-0.091,0.002-0.183,0.001-0.273,0.001
		c-1.022,0-1.503-0.483-1.503-1.507c0-0.278,0-0.556,0-0.821c-0.634,0-1.222,0-1.817,0c0,0.369,0.007,0.715-0.002,1.061
		c-0.015,0.697-0.523,1.222-1.219,1.264c-0.137,0.008-0.273,0.004-0.41,0.004c-0.955-0.001-1.451-0.493-1.454-1.444
		c-0.001-0.297,0-0.594,0-0.888c-0.63,0-1.219,0-1.829,0c0,0.381,0.008,0.745-0.002,1.107c-0.016,0.586-0.409,1.068-0.986,1.181
		c-0.238,0.045-0.489,0.042-0.733,0.042c-0.829-0.004-1.348-0.525-1.353-1.348c-0.002-0.325,0-0.65,0-1.001c-0.532,0-1.031,0-1.53,0
		c-0.089,0-0.178,0-0.299,0c0,0.361,0.006,0.697-0.001,1.032c-0.017,0.798-0.533,1.307-1.33,1.319c-0.119,0.002-0.237,0.001-0.355,0
		c-0.879-0.005-1.396-0.52-1.398-1.393c-0.001-0.315,0-0.63,0-0.938c-0.626,0-1.214,0-1.816,0c0,0.348,0.004,0.675-0.001,1.002
		C6.719,5.816,6.193,6.341,5.404,6.355c-0.118,0.002-0.236,0.001-0.355,0C4.157,6.351,3.642,5.836,3.638,4.945
		c-0.001-0.306,0-0.612,0-0.941c-0.443,0-0.852-0.001-1.26,0C1.96,4.006,1.821,4.144,1.821,4.562c-0.001,0.993,0,1.987,0,2.98
		c0,0.078,0.01,0.157,0.016,0.25c0.122,0,0.222,0,0.321,0c0.902,0,1.805-0.001,2.707,0c0.343,0,0.539,0.148,0.546,0.403
		C5.417,8.461,5.223,8.61,4.857,8.611c-0.355,0.001-0.711,0-1.066,0C3.146,8.612,2.5,8.612,1.82,8.612z M4.458,3.652
		c0,0.347,0,0.692,0,1.038c0,0.786,0.068,0.852,0.861,0.845c0.439-0.004,0.592-0.154,0.593-0.594
		c0.002-0.747,0.001-1.494,0.001-2.24c0-0.842-0.051-0.892-0.902-0.881C4.621,1.826,4.464,1.978,4.459,2.368
		C4.455,2.796,4.458,3.224,4.458,3.652z M24.088,3.678c0,0.337,0,0.674,0,1.011c0,0.788,0.065,0.854,0.857,0.847
		c0.44-0.004,0.593-0.153,0.595-0.592c0.001-0.747,0-1.494,0-2.241c0-0.848-0.046-0.892-0.9-0.882
		c-0.39,0.005-0.548,0.157-0.552,0.546C24.084,2.804,24.088,3.241,24.088,3.678z M14.282,3.652c0,0.337,0.013,0.675-0.002,1.011
		c-0.041,0.881,0.172,0.89,0.908,0.872c0.372-0.009,0.528-0.166,0.529-0.539c0.003-0.756,0.001-1.511,0.001-2.267
		c0-0.883-0.045-0.927-0.921-0.908c-0.357,0.008-0.512,0.16-0.515,0.521C14.279,2.778,14.283,3.215,14.282,3.652z M9.369,3.657
		c0,0.346,0,0.692,0,1.038c0,0.785,0.065,0.848,0.862,0.84c0.429-0.004,0.58-0.148,0.582-0.572c0.004-0.746,0.001-1.493,0.001-2.24
		c0-0.874-0.051-0.924-0.929-0.903C9.533,1.829,9.374,1.988,9.37,2.346C9.366,2.783,9.369,3.22,9.369,3.657z M20.63,3.706
		c0-0.346,0-0.692,0-1.038c0-0.797-0.053-0.85-0.85-0.848c-0.458,0.002-0.594,0.138-0.595,0.609
		c-0.002,0.737-0.001,1.475-0.001,2.212c0,0.849,0.09,0.933,0.943,0.893c0.332-0.016,0.497-0.18,0.501-0.517
		C20.634,4.581,20.63,4.143,20.63,3.706z"/>
</g>
<path fill="#FF0000" d="M22.33,24.725l-6.585-6.402l6.172-6.349c0.266-0.272,0.259-0.709-0.013-0.975
	c-0.272-0.266-0.71-0.259-0.976,0.014l-6.173,6.346l-6.584-6.404c-0.272-0.266-0.709-0.26-0.975,0.014s-0.26,0.71,0.014,0.976
	l6.584,6.404l-6.172,6.347c-0.266,0.273-0.259,0.71,0.013,0.977c0.274,0.265,0.71,0.258,0.975-0.015l6.173-6.347l6.585,6.404
	c0.273,0.265,0.71,0.258,0.977-0.013C22.609,25.427,22.602,24.991,22.33,24.725z"/>
</svg>
