<?xml version="1.0" encoding="utf-8"?>
<!-- Generator: Adobe Illustrator 26.0.1, SVG Export Plug-In . SVG Version: 6.00 Build 0)  -->
<svg version="1.1" id="Layer_1" xmlns="http://www.w3.org/2000/svg" xmlns:xlink="http://www.w3.org/1999/xlink" x="0px" y="0px"
	 viewBox="0 0 64 64" style="enable-background:new 0 0 64 64;" xml:space="preserve">
<g>
	<path d="M5.71,14.69c0.03-0.03,0.09-0.05,0.1-0.09c0.68-1.61,1.49-2.15,3.22-2.15c4.45,0,8.9,0,13.35,0.01
		c0.38,0,0.53-0.06,0.51-0.49c-0.04-0.78-0.02-1.56-0.01-2.33c0.02-1.66,1.17-2.88,2.82-3.01c0.17-0.01,0.34-0.01,0.51-0.01
		c7.07,0,14.15,0,21.22-0.01c0.53,0,0.92,0.16,1.29,0.54c2.82,2.85,5.66,5.68,8.51,8.51c0.34,0.34,0.48,0.69,0.48,1.16
		C57.7,27.36,57.7,37.9,57.7,48.44c0,2.02-1.2,3.23-3.21,3.23c-2.47,0-4.94,0-7.41,0c-0.66,0-1.04-0.44-0.86-0.98
		c0.14-0.42,0.47-0.54,0.87-0.54c1.39,0,2.78,0,4.16,0c1.13,0,2.27,0.01,3.4,0c0.94-0.01,1.52-0.58,1.52-1.52
		c0-10.34,0-20.68,0.01-31.02c0-0.31-0.07-0.4-0.39-0.39c-1.83,0.02-3.66,0.01-5.48,0.01c-1.97,0-3.19-1.22-3.19-3.19
		c0-1.81-0.01-3.62,0.01-5.43c0-0.35-0.09-0.46-0.45-0.46c-6.87,0.01-13.74,0.01-20.61,0.01c-1.1,0-1.65,0.56-1.66,1.66
		c0,0.74,0.02,1.49-0.01,2.23c-0.01,0.33,0.08,0.43,0.42,0.42c1.84-0.02,3.69,0.01,5.53-0.02c0.48-0.01,0.82,0.15,1.16,0.49
		c2.57,2.59,5.17,5.17,7.74,7.76c0.25,0.25,0.49,0.35,0.84,0.35c3.74-0.01,7.48-0.01,11.22-0.01c0.2,0,0.41,0,0.6,0.05
		c0.35,0.1,0.52,0.36,0.52,0.72c0,0.37-0.19,0.62-0.54,0.7c-0.21,0.05-0.44,0.05-0.66,0.05c-3.4,0-6.8,0.01-10.2-0.01
		c-0.44,0-0.53,0.12-0.51,0.53c0.03,1.08,0.03,2.17,0,3.25c-0.01,0.42,0.07,0.56,0.54,0.56c3.42-0.02,6.84-0.01,10.25-0.01
		c0.15,0,0.31-0.01,0.46,0.01c0.4,0.06,0.64,0.3,0.66,0.71c0.02,0.44-0.22,0.69-0.63,0.79c-0.14,0.03-0.3,0.01-0.46,0.01
		c-3.45,0-6.9,0.01-10.36-0.01c-0.38,0-0.48,0.09-0.47,0.47c0.03,1.13,0.03,2.27,0,3.4c-0.01,0.41,0.13,0.46,0.48,0.46
		c3.42-0.01,6.84-0.01,10.25-0.01c0.2,0,0.41,0,0.61,0.04c0.38,0.08,0.57,0.34,0.57,0.73c0,0.39-0.2,0.64-0.58,0.72
		c-0.2,0.04-0.4,0.03-0.61,0.03c-3.4,0-6.8,0.01-10.2-0.01c-0.43,0-0.53,0.11-0.52,0.53c0.03,1.13,0.03,2.27,0,3.4
		c-0.01,0.34,0.1,0.41,0.42,0.41c3.45-0.01,6.9-0.01,10.36-0.01c0.15,0,0.31-0.02,0.46,0.01c0.4,0.06,0.65,0.29,0.67,0.7
		c0.03,0.44-0.21,0.7-0.62,0.8c-0.16,0.04-0.34,0.02-0.51,0.02c-3.44,0-6.87,0.01-10.31-0.01c-0.36,0-0.48,0.06-0.48,0.46
		c0.02,3.06,0.02,6.13,0,9.19c0,0.37,0.1,0.45,0.45,0.44c0.74-0.03,1.49-0.01,2.23-0.01c0.59,0.01,0.93,0.3,0.93,0.77
		c0,0.48-0.33,0.75-0.94,0.75c-0.76,0-1.52,0.02-2.28-0.01c-0.33-0.01-0.4,0.1-0.39,0.4c0.02,0.79,0.01,1.59,0.01,2.39
		c-0.02,1.72-1.18,2.94-2.89,3.05c-0.19,0.01-0.37,0.01-0.56,0.01c-9.12,0-18.24-0.03-27.36,0.02c-1.87,0.01-3.32-0.42-4.01-2.32
		c0-10.36,0-20.72,0-31.08c0.27-0.31,0.56-0.6,1.03-0.41c0.47,0.18,0.5,0.57,0.5,1c0,9.81,0,19.63,0,29.44c0,1.31,0.5,1.81,1.8,1.81
		c9.39,0,18.78,0,28.17,0c1.27,0,1.79-0.52,1.79-1.78c0-10.22,0-20.44,0.01-30.66c0-0.42-0.09-0.53-0.52-0.53
		c-1.81,0.03-3.62,0.01-5.43,0.01c-1.88,0-3.11-1.21-3.13-3.1c-0.01-1.83-0.01-3.66,0.01-5.48c0-0.37-0.07-0.48-0.46-0.48
		c-6.87,0.01-13.74,0.01-20.61,0.01c-1.1,0-1.63,0.55-1.63,1.66c0,1.62-0.01,3.25,0,4.87c0,0.44,0,0.87-0.49,1.07
		C6.3,21.76,6,21.48,5.71,21.19C5.71,19.02,5.71,16.86,5.71,14.69z M31.45,15.12c0.03,1.8-0.07,3.54,0.06,5.26
		c0.05,0.65,0.67,1.1,1.37,1.12c0.93,0.01,1.86,0,2.79,0c0.72,0,1.43,0,2.17,0C35.7,19.37,33.62,17.29,31.45,15.12z M48.64,9.35
		c0,1.62-0.01,3.22,0,4.83c0.01,0.91,0.57,1.48,1.49,1.5c0.86,0.02,1.73,0,2.59,0c0.75,0,1.5,0,2.25,0
		C52.85,13.57,50.76,11.47,48.64,9.35z"/>
	<path d="M23.11,45.92c-3.65,0-7.3,0-10.96,0c-0.2,0-0.41,0.01-0.61-0.03c-0.36-0.07-0.55-0.31-0.57-0.68
		c-0.02-0.38,0.15-0.66,0.53-0.76c0.19-0.05,0.4-0.05,0.6-0.05c7.34,0,14.68,0,22.01,0c0.18,0,0.37,0,0.55,0.04
		c0.38,0.08,0.58,0.34,0.58,0.73c0,0.41-0.22,0.67-0.63,0.74c-0.18,0.03-0.37,0.02-0.56,0.02C30.42,45.92,26.76,45.92,23.11,45.92z"
		/>
	<path d="M23.13,34.24c-3.65,0-7.3,0-10.96,0c-0.2,0-0.41,0.01-0.61-0.03c-0.38-0.08-0.58-0.33-0.59-0.72
		c-0.01-0.39,0.19-0.65,0.56-0.74c0.18-0.04,0.37-0.04,0.55-0.04c7.36,0,14.71,0,22.07,0c0.18,0,0.38,0,0.55,0.05
		c0.37,0.1,0.56,0.37,0.54,0.75c-0.02,0.36-0.21,0.61-0.57,0.68c-0.2,0.04-0.4,0.04-0.6,0.04C30.43,34.24,26.78,34.24,23.13,34.24z"
		/>
	<path d="M23.12,28.4c-3.67,0-7.34,0-11.02,0c-0.17,0-0.34,0.02-0.51-0.02c-0.41-0.1-0.65-0.36-0.62-0.8
		c0.03-0.41,0.28-0.64,0.68-0.7c0.13-0.02,0.27-0.01,0.41-0.01c7.36,0,14.72,0,22.09,0c0.15,0,0.31-0.02,0.46,0.01
		c0.4,0.07,0.64,0.32,0.65,0.73c0.01,0.41-0.22,0.67-0.61,0.76c-0.16,0.04-0.34,0.02-0.51,0.02C30.47,28.4,26.8,28.4,23.12,28.4z"/>
	<path d="M23.09,40.08c-3.67,0-7.34,0-11.02,0c-0.17,0-0.35,0.02-0.5-0.02c-0.38-0.1-0.61-0.35-0.59-0.77
		c0.02-0.41,0.26-0.65,0.66-0.72c0.13-0.02,0.27-0.01,0.41-0.01c7.38,0,14.76,0,22.14,0c0.14,0,0.27-0.01,0.41,0.01
		c0.4,0.06,0.65,0.3,0.67,0.71c0.02,0.44-0.22,0.7-0.63,0.79c-0.16,0.04-0.34,0.02-0.51,0.02C30.44,40.08,26.77,40.08,23.09,40.08z"
		/>
</g>
</svg>
