<?xml version="1.0" encoding="utf-8"?>
<!-- Generator: Adobe Illustrator 16.0.0, SVG Export Plug-In . SVG Version: 6.00 Build 0)  -->
<!DOCTYPE svg PUBLIC "-//W3C//DTD SVG 1.1//EN" "http://www.w3.org/Graphics/SVG/1.1/DTD/svg11.dtd">
<svg version="1.1" id="Layer_1" xmlns="http://www.w3.org/2000/svg" xmlns:xlink="http://www.w3.org/1999/xlink" x="0px" y="0px"
	 width="30px" height="30px" viewBox="0 0 30 30" enable-background="new 0 0 30 30" xml:space="preserve">
<path fill-rule="evenodd" clip-rule="evenodd" d="M14.878,30c-1.58-0.664-3.16-1.331-4.741-1.993
	c-2.257-0.944-4.516-1.885-6.773-2.828c-0.483-0.202-0.61-0.392-0.61-0.913c0-4.619,0-9.237,0-13.856
	c0-0.783,0.467-1.09,1.197-0.786c3.616,1.509,7.232,3.019,10.846,4.533c0.187,0.079,0.339,0.076,0.525-0.002
	c3.604-1.512,7.211-3.019,10.819-4.521c0.176-0.073,0.376-0.136,0.561-0.126c0.402,0.02,0.65,0.354,0.651,0.826
	c0.002,1.669,0.001,3.339,0.001,5.009c0,1.406,0,2.813-0.001,4.219c-0.001,0.105-0.001,0.218-0.032,0.317
	c-0.067,0.211-0.228,0.314-0.448,0.296c-0.223-0.019-0.355-0.151-0.391-0.37c-0.015-0.096-0.007-0.195-0.007-0.293
	c0-2.89,0-5.78,0-8.671c0-0.113,0-0.227,0-0.386c-0.219,0.087-0.398,0.155-0.574,0.229c-3.409,1.423-6.82,2.842-10.225,4.278
	c-0.427,0.18-0.792,0.191-1.226,0.007c-3.502-1.48-7.012-2.939-10.521-4.404c-0.086-0.036-0.177-0.063-0.298-0.105
	c0,0.138,0,0.233,0,0.329c0,4.414,0.002,8.828-0.005,13.241c0,0.229,0.059,0.338,0.279,0.429c3.646,1.513,7.288,3.037,10.935,4.55
	c0.124,0.052,0.308,0.052,0.432,0.001c3.664-1.521,7.324-3.052,10.987-4.574c0.177-0.073,0.222-0.171,0.22-0.351
	c-0.01-0.722-0.005-1.444-0.004-2.167c0.001-0.357,0.147-0.544,0.424-0.552c0.285-0.007,0.453,0.193,0.454,0.556
	c0.002,0.781-0.011,1.563,0.005,2.343c0.01,0.464-0.188,0.745-0.611,0.921c-3.097,1.285-6.19,2.58-9.284,3.872
	c-0.745,0.312-1.489,0.628-2.233,0.942C15.113,30,14.996,30,14.878,30z"/>
<path fill-rule="evenodd" clip-rule="evenodd" d="M3.688,0C4.79,0.467,5.891,0.936,6.994,1.4C7.892,1.779,8.795,2.146,9.69,2.531
	C9.823,2.589,9.984,2.7,10.025,2.822c0.043,0.129,0.001,0.33-0.078,0.45C9.826,3.457,9.614,3.446,9.418,3.365
	C8.761,3.091,8.105,2.816,7.449,2.542C6.271,2.049,5.093,1.557,3.914,1.066c-0.078-0.033-0.16-0.055-0.264-0.09
	C3.643,1.079,3.634,1.153,3.634,1.227C3.633,2.379,3.639,3.531,3.628,4.683c-0.002,0.2,0.065,0.286,0.246,0.361
	C7.518,6.56,11.16,8.082,14.798,9.609C15,9.694,15.163,9.672,15.351,9.593c3.622-1.518,7.245-3.034,10.871-4.542
	c0.192-0.08,0.261-0.173,0.259-0.383c-0.011-1.132-0.005-2.265-0.005-3.397c0-0.086,0-0.173,0-0.304
	c-0.129,0.048-0.226,0.082-0.32,0.121c-3.544,1.478-7.089,2.954-10.63,4.439c-0.331,0.139-0.625,0.138-0.954-0.004
	c-1.028-0.444-2.065-0.871-3.101-1.298c-0.239-0.099-0.412-0.237-0.374-0.519c0.042-0.312,0.338-0.446,0.678-0.305
	c1.018,0.42,2.031,0.853,3.051,1.265c0.128,0.052,0.312,0.061,0.436,0.009c3.69-1.532,7.377-3.074,11.063-4.615
	C26.36,0.045,26.39,0.02,26.421,0c0.137,0,0.273,0,0.41,0c0.4,0.206,0.537,0.532,0.53,0.979c-0.02,1.298-0.015,2.597-0.003,3.896
	c0.004,0.448-0.178,0.73-0.592,0.902c-3.771,1.568-7.538,3.143-11.305,4.72c-0.28,0.118-0.535,0.115-0.815-0.002
	C10.872,8.912,7.096,7.333,3.316,5.761C2.92,5.596,2.75,5.325,2.751,4.903c0.007-1.308,0.015-2.617-0.004-3.925
	C2.74,0.531,2.876,0.206,3.277,0C3.414,0,3.55,0,3.688,0z"/>
</svg>
