<?xml version="1.0" encoding="utf-8"?>
<!-- Generator: Adobe Illustrator 16.0.0, SVG Export Plug-In . SVG Version: 6.00 Build 0)  -->
<!DOCTYPE svg PUBLIC "-//W3C//DTD SVG 1.1//EN" "http://www.w3.org/Graphics/SVG/1.1/DTD/svg11.dtd">
<svg version="1.1" id="Layer_1" xmlns="http://www.w3.org/2000/svg" xmlns:xlink="http://www.w3.org/1999/xlink" x="0px" y="0px"
	 width="30px" height="30px" viewBox="0 0 30 30" enable-background="new 0 0 30 30" xml:space="preserve">
<path fill-rule="evenodd" clip-rule="evenodd" d="M15.232,0c1.58,0.665,3.16,1.331,4.741,1.993c2.257,0.944,4.516,1.885,6.773,2.828
	c0.482,0.202,0.609,0.391,0.609,0.913c0,4.619,0,9.238,0,13.857c0,0.783-0.468,1.09-1.197,0.785
	c-3.616-1.51-7.232-3.018-10.846-4.533c-0.187-0.078-0.339-0.076-0.525,0.002c-3.604,1.512-7.211,3.02-10.819,4.521
	c-0.175,0.072-0.375,0.135-0.56,0.127c-0.403-0.021-0.651-0.355-0.652-0.826c-0.002-1.67-0.001-3.34-0.001-5.01
	c0-1.406,0-2.812,0.001-4.218c0-0.106,0-0.218,0.032-0.317C2.855,9.91,3.016,9.807,3.237,9.825c0.222,0.019,0.355,0.151,0.39,0.37
	c0.015,0.096,0.007,0.195,0.007,0.292c0,2.891,0,5.781,0,8.672c0,0.113,0,0.227,0,0.385c0.219-0.086,0.398-0.154,0.575-0.229
	c3.409-1.424,6.82-2.842,10.224-4.278c0.427-0.181,0.792-0.191,1.226-0.008c3.502,1.481,7.013,2.94,10.521,4.405
	c0.086,0.035,0.177,0.063,0.298,0.104c0-0.137,0-0.232,0-0.328c0-4.414-0.002-8.827,0.006-13.241c0-0.228-0.06-0.337-0.279-0.428
	c-3.646-1.512-7.288-3.037-10.935-4.55c-0.124-0.051-0.308-0.052-0.432,0C11.173,2.511,7.513,4.042,3.85,5.564
	c-0.177,0.073-0.222,0.171-0.22,0.35C3.64,6.637,3.636,7.36,3.634,8.083C3.633,8.439,3.487,8.626,3.211,8.633
	C2.925,8.641,2.757,8.44,2.756,8.079C2.754,7.297,2.767,6.516,2.751,5.735c-0.009-0.463,0.188-0.744,0.612-0.92
	c3.097-1.286,6.19-2.58,9.284-3.873C13.393,0.631,14.136,0.314,14.88,0C14.998,0,15.115,0,15.232,0z"/>
<path fill-rule="evenodd" clip-rule="evenodd" d="M26.423,30c-1.103-0.467-2.204-0.936-3.307-1.4
	c-0.898-0.377-1.801-0.744-2.696-1.131c-0.133-0.057-0.294-0.168-0.335-0.289c-0.044-0.131-0.002-0.33,0.077-0.451
	c0.122-0.184,0.334-0.174,0.53-0.092c0.656,0.271,1.313,0.547,1.969,0.822c1.178,0.492,2.356,0.984,3.534,1.477
	c0.078,0.031,0.161,0.055,0.265,0.088c0.007-0.102,0.016-0.176,0.017-0.25c0.001-1.152-0.005-2.305,0.006-3.455
	c0.001-0.201-0.065-0.287-0.246-0.361c-3.645-1.516-7.286-3.037-10.925-4.566c-0.202-0.084-0.364-0.063-0.553,0.018
	c-3.622,1.518-7.246,3.033-10.872,4.541c-0.192,0.08-0.261,0.174-0.258,0.383c0.011,1.133,0.005,2.266,0.005,3.396
	c0,0.088,0,0.174,0,0.305c0.128-0.047,0.226-0.08,0.321-0.121c3.544-1.477,7.088-2.953,10.629-4.439
	c0.331-0.139,0.625-0.137,0.953,0.004c1.029,0.445,2.065,0.871,3.102,1.299c0.238,0.1,0.412,0.238,0.374,0.52
	c-0.042,0.311-0.338,0.445-0.678,0.305c-1.019-0.42-2.031-0.852-3.052-1.266c-0.128-0.051-0.312-0.061-0.436-0.008
	c-3.69,1.531-7.377,3.072-11.063,4.615C3.75,29.955,3.721,29.98,3.688,30c-0.137,0-0.273,0-0.41,0
	c-0.4-0.205-0.537-0.531-0.53-0.979c0.02-1.299,0.014-2.598,0.003-3.895c-0.004-0.449,0.178-0.73,0.592-0.904
	c3.77-1.568,7.538-3.141,11.304-4.719c0.28-0.117,0.535-0.115,0.815,0.002c3.775,1.582,7.552,3.162,11.33,4.734
	c0.396,0.164,0.567,0.436,0.565,0.857c-0.007,1.309-0.016,2.615,0.004,3.924c0.007,0.447-0.129,0.773-0.529,0.979
	C26.697,30,26.56,30,26.423,30z"/>
</svg>
