<?xml version="1.0" encoding="utf-8"?>
<!-- Generator: Adobe Illustrator 16.0.0, SVG Export Plug-In . SVG Version: 6.00 Build 0)  -->
<!DOCTYPE svg PUBLIC "-//W3C//DTD SVG 1.1//EN" "http://www.w3.org/Graphics/SVG/1.1/DTD/svg11.dtd">
<svg version="1.1" id="Layer_1" xmlns="http://www.w3.org/2000/svg" xmlns:xlink="http://www.w3.org/1999/xlink" x="0px" y="0px"
	 width="30px" height="30px" viewBox="0 0 30 30" enable-background="new 0 0 30 30" xml:space="preserve">
<g>
	<path fill-rule="evenodd" clip-rule="evenodd" d="M29,3.844c-0.184,0.411-0.303,0.867-0.561,1.224c-0.641,0.891-2,1.334-3.32,0.568
		c-0.348,0.353-0.7,0.717-1.059,1.075c-0.17,0.169-0.398,0.249-0.598,0.122c-0.149-0.096-0.298-0.285-0.327-0.452
		c-0.024-0.145,0.084-0.352,0.195-0.475c0.323-0.356,0.679-0.684,1.03-1.031c-0.364-0.619-0.5-1.268-0.319-1.951
		c0.264-0.992,0.913-1.609,1.906-1.866C26.018,1.041,26.087,1.02,26.156,1c0.219,0,0.437,0,0.656,0
		c0.041,0.015,0.082,0.037,0.125,0.045c0.87,0.174,1.487,0.67,1.85,1.476C28.881,2.733,28.93,2.965,29,3.188
		C29,3.406,29,3.625,29,3.844z M27.904,3.522c0.003-0.785-0.638-1.428-1.421-1.428c-0.774,0-1.412,0.631-1.421,1.401
		c-0.009,0.786,0.626,1.436,1.408,1.441C27.256,4.943,27.901,4.305,27.904,3.522z"/>
	<path fill-rule="evenodd" clip-rule="evenodd" d="M26.156,29c-0.46-0.117-0.903-0.268-1.276-0.58
		c-0.839-0.699-1.269-2.004-0.52-3.295c-0.341-0.338-0.688-0.682-1.036-1.025c-0.186-0.182-0.265-0.393-0.167-0.643
		c0.139-0.365,0.599-0.459,0.901-0.166c0.36,0.346,0.703,0.711,1.061,1.074c0.625-0.369,1.273-0.502,1.956-0.322
		c0.981,0.26,1.598,0.9,1.86,1.879C28.957,26,28.979,26.078,29,26.156c0,0.219,0,0.438,0,0.656
		c-0.118,0.467-0.273,0.912-0.592,1.289c-0.422,0.502-0.975,0.76-1.596,0.898C26.593,29,26.375,29,26.156,29z M26.479,25.063
		c-0.783,0.002-1.421,0.646-1.417,1.432c0.005,0.771,0.639,1.406,1.41,1.412c0.785,0.004,1.431-0.637,1.432-1.418
		C27.906,25.703,27.264,25.061,26.479,25.063z"/>
	<path fill-rule="evenodd" clip-rule="evenodd" d="M1,26.156C1.043,26,1.08,25.842,1.131,25.688c0.475-1.42,2.179-2.238,3.753-1.322
		c0.261-0.27,0.531-0.549,0.802-0.826c0.083-0.084,0.164-0.172,0.252-0.25c0.254-0.227,0.568-0.232,0.785-0.016
		s0.22,0.539-0.012,0.785c-0.262,0.277-0.537,0.545-0.809,0.813c-0.083,0.084-0.174,0.158-0.27,0.244
		c0.363,0.619,0.505,1.26,0.33,1.934c-0.266,1.025-0.926,1.664-1.965,1.902C3.945,28.961,3.895,28.982,3.843,29
		c-0.219,0-0.438,0-0.656,0c-0.475-0.121-0.93-0.279-1.311-0.611C1.39,27.969,1.135,27.426,1,26.813C1,26.594,1,26.375,1,26.156z
		 M3.527,25.063c-0.785-0.004-1.43,0.633-1.433,1.416c-0.002,0.773,0.625,1.414,1.396,1.426c0.785,0.012,1.438-0.619,1.446-1.402
		C4.944,25.717,4.309,25.068,3.527,25.063z"/>
	<path fill-rule="evenodd" clip-rule="evenodd" d="M3.843,1c0.404,0.176,0.851,0.292,1.203,0.541
		c0.897,0.637,1.364,1.997,0.593,3.336c0.333,0.329,0.688,0.655,1.009,1.01c0.118,0.129,0.233,0.339,0.212,0.495
		C6.839,6.547,6.685,6.735,6.535,6.833C6.348,6.957,6.125,6.886,5.96,6.729C5.71,6.49,5.466,6.244,5.224,5.997
		C5.11,5.88,5.008,5.751,4.897,5.625C4.254,6.001,3.605,6.138,2.922,5.957c-0.979-0.262-1.596-0.9-1.86-1.88
		C1.042,3.999,1.021,3.921,1,3.844c0-0.219,0-0.438,0-0.656c0.115-0.466,0.27-0.913,0.589-1.289C2.013,1.401,2.563,1.137,3.187,1
		C3.406,1,3.625,1,3.843,1z M4.936,3.508C4.933,2.725,4.285,2.087,3.5,2.094C2.729,2.101,2.097,2.737,2.094,3.509
		C2.092,4.294,2.732,4.937,3.516,4.937C4.299,4.936,4.939,4.292,4.936,3.508z"/>
	<path fill-rule="evenodd" clip-rule="evenodd" d="M23.518,8.98c-0.055,0.154-0.086,0.268-0.137,0.373
		c-0.202,0.438-0.42,0.869-0.609,1.311c-0.047,0.106-0.039,0.263,0.004,0.375c0.162,0.434,0.34,0.862,0.53,1.285
		c0.046,0.101,0.146,0.208,0.245,0.248c0.458,0.18,0.924,0.333,1.386,0.501c0.345,0.125,0.452,0.275,0.453,0.627
		c0.002,0.866,0.002,1.731,0,2.598c-0.001,0.355-0.107,0.504-0.45,0.631c-0.452,0.164-0.911,0.313-1.358,0.492
		c-0.115,0.047-0.229,0.164-0.282,0.279c-0.19,0.412-0.364,0.834-0.522,1.258c-0.044,0.119-0.046,0.287,0.003,0.4
		c0.19,0.443,0.41,0.873,0.614,1.311c0.151,0.324,0.12,0.506-0.134,0.764c-0.61,0.613-1.222,1.227-1.837,1.836
		c-0.251,0.248-0.436,0.275-0.765,0.121c-0.445-0.207-0.886-0.428-1.335-0.623c-0.099-0.043-0.245-0.037-0.349,0.004
		c-0.435,0.164-0.863,0.342-1.284,0.533c-0.107,0.049-0.223,0.156-0.267,0.264c-0.177,0.445-0.327,0.906-0.491,1.359
		c-0.129,0.357-0.278,0.463-0.646,0.465c-0.857,0.002-1.713,0.002-2.57,0c-0.372-0.002-0.519-0.105-0.649-0.463
		c-0.161-0.445-0.326-0.889-0.472-1.338c-0.058-0.178-0.16-0.258-0.329-0.318c-0.401-0.146-0.797-0.311-1.184-0.49
		c-0.164-0.074-0.293-0.088-0.458-0.006c-0.429,0.219-0.867,0.422-1.304,0.627c-0.308,0.143-0.498,0.109-0.741-0.133
		c-0.614-0.611-1.227-1.225-1.837-1.836c-0.262-0.266-0.289-0.439-0.125-0.787c0.205-0.438,0.423-0.869,0.612-1.313
		c0.045-0.105,0.038-0.262-0.004-0.373c-0.16-0.424-0.333-0.846-0.524-1.258c-0.053-0.115-0.166-0.236-0.279-0.283
		c-0.438-0.176-0.89-0.32-1.335-0.48c-0.37-0.133-0.476-0.281-0.476-0.668c-0.001-0.848-0.001-1.695,0-2.542
		c0-0.389,0.104-0.535,0.475-0.668c0.445-0.16,0.896-0.306,1.334-0.482c0.115-0.046,0.228-0.167,0.28-0.28
		c0.191-0.413,0.367-0.833,0.524-1.259c0.043-0.119,0.045-0.285-0.004-0.399c-0.19-0.444-0.41-0.873-0.614-1.31
		C6.453,9.008,6.485,8.826,6.74,8.569c0.604-0.607,1.21-1.213,1.817-1.817c0.27-0.269,0.445-0.3,0.784-0.141
		c0.437,0.204,0.867,0.423,1.311,0.611c0.114,0.048,0.28,0.041,0.399-0.003c0.417-0.154,0.821-0.346,1.238-0.499
		c0.164-0.061,0.25-0.145,0.304-0.308c0.148-0.449,0.311-0.893,0.473-1.338c0.13-0.359,0.276-0.464,0.646-0.465
		c0.857-0.002,1.713-0.001,2.57,0c0.372,0.001,0.52,0.105,0.648,0.462c0.16,0.436,0.323,0.871,0.466,1.312
		c0.059,0.181,0.15,0.278,0.336,0.343c0.411,0.146,0.806,0.339,1.214,0.49c0.118,0.043,0.285,0.056,0.398,0.008
		c0.443-0.188,0.873-0.407,1.311-0.612c0.34-0.16,0.517-0.13,0.784,0.136c0.607,0.604,1.217,1.207,1.814,1.82
		C23.368,8.686,23.435,8.848,23.518,8.98z M9.128,7.719C8.683,8.165,8.242,8.6,7.815,9.048C7.771,9.095,7.774,9.23,7.806,9.303
		c0.186,0.416,0.379,0.827,0.583,1.234c0.123,0.243,0.096,0.454-0.016,0.699c-0.259,0.57-0.501,1.148-0.719,1.735
		c-0.097,0.263-0.238,0.434-0.505,0.52c-0.415,0.136-0.822,0.295-1.236,0.433c-0.148,0.049-0.22,0.111-0.216,0.285
		c0.013,0.529,0.013,1.056,0,1.585c-0.004,0.174,0.068,0.234,0.216,0.285c0.422,0.139,0.838,0.301,1.261,0.441
		c0.258,0.086,0.386,0.26,0.479,0.512c0.22,0.584,0.46,1.164,0.719,1.732c0.111,0.244,0.137,0.459,0.015,0.701
		c-0.205,0.406-0.398,0.818-0.584,1.234c-0.031,0.07-0.035,0.205,0.01,0.252c0.427,0.449,0.868,0.885,1.311,1.33
		c0.481-0.229,0.953-0.443,1.416-0.676c0.234-0.115,0.438-0.094,0.674,0.012c0.588,0.262,1.183,0.51,1.785,0.74
		c0.232,0.088,0.39,0.211,0.47,0.447c0.15,0.439,0.315,0.873,0.463,1.313c0.045,0.135,0.106,0.186,0.251,0.184
		c0.547-0.01,1.094,0.004,1.641-0.012c0.077-0.002,0.193-0.088,0.223-0.164c0.168-0.43,0.324-0.867,0.473-1.307
		c0.083-0.246,0.245-0.375,0.487-0.467c0.595-0.225,1.182-0.467,1.761-0.729c0.245-0.111,0.456-0.133,0.699-0.012
		c0.406,0.207,0.818,0.4,1.232,0.586c0.072,0.031,0.207,0.029,0.254-0.02c0.447-0.426,0.881-0.867,1.322-1.309
		c-0.229-0.482-0.443-0.955-0.675-1.418c-0.116-0.234-0.09-0.439,0.016-0.674c0.26-0.58,0.504-1.166,0.729-1.762
		c0.096-0.252,0.232-0.414,0.489-0.498c0.424-0.137,0.841-0.301,1.261-0.443c0.135-0.047,0.208-0.104,0.204-0.268
		c-0.014-0.539-0.014-1.076,0-1.613c0.004-0.164-0.068-0.221-0.204-0.267c-0.413-0.141-0.819-0.303-1.236-0.433
		c-0.293-0.091-0.431-0.282-0.53-0.563c-0.201-0.554-0.418-1.105-0.675-1.635c-0.141-0.292-0.168-0.534-0.02-0.822
		c0.228-0.441,0.429-0.896,0.646-1.352c-0.447-0.442-0.87-0.869-1.307-1.282c-0.056-0.052-0.197-0.067-0.272-0.035
		c-0.433,0.19-0.857,0.397-1.284,0.604c-0.215,0.104-0.407,0.077-0.624-0.021c-0.587-0.262-1.183-0.511-1.785-0.74
		c-0.241-0.092-0.404-0.22-0.487-0.466c-0.148-0.439-0.305-0.877-0.473-1.308c-0.029-0.075-0.146-0.162-0.223-0.164
		C15.28,5.697,14.733,5.708,14.187,5.7c-0.145-0.002-0.206,0.048-0.252,0.182c-0.145,0.431-0.311,0.855-0.454,1.287
		c-0.085,0.259-0.253,0.39-0.505,0.484c-0.585,0.22-1.166,0.459-1.734,0.719c-0.255,0.116-0.473,0.138-0.725,0.01
		C10.063,8.153,9.6,7.943,9.128,7.719z"/>
	<path fill-rule="evenodd" clip-rule="evenodd" d="M11.264,17.848c0.394-0.824,1.006-1.35,1.842-1.605
		c-0.729-1.375-0.259-2.757,0.526-3.336c0.828-0.609,1.928-0.608,2.747-0.003c0.791,0.585,1.248,1.966,0.529,3.34
		c0.837,0.258,1.447,0.781,1.835,1.596c0.488-0.637,0.796-1.326,0.901-2.096c0.287-2.076-0.601-3.856-2.414-4.887
		c-0.358-0.204-0.474-0.488-0.318-0.784c0.161-0.304,0.479-0.367,0.849-0.168c2.178,1.17,3.386,3.628,2.967,6.04
		c-0.433,2.49-2.409,4.441-4.86,4.791c-3.618,0.518-6.821-2.342-6.645-5.98c0.103-2.133,1.126-3.745,2.976-4.821
		c0.39-0.228,0.708-0.175,0.88,0.126c0.175,0.305,0.056,0.599-0.337,0.822c-1.298,0.737-2.098,1.839-2.362,3.306
		C10.14,15.51,10.455,16.713,11.264,17.848z M15.031,17.244c-0.41,0-0.82-0.01-1.229,0.002c-0.765,0.016-1.417,0.549-1.61,1.285
		c-0.04,0.146-0.008,0.225,0.114,0.314c1.539,1.133,3.861,1.133,5.405,0c0.126-0.092,0.147-0.18,0.111-0.32
		c-0.188-0.723-0.84-1.258-1.588-1.279C15.834,17.234,15.432,17.244,15.031,17.244z M16.166,14.858
		c-0.004-0.109-0.004-0.22-0.016-0.327c-0.073-0.636-0.715-1.101-1.344-0.977c-0.524,0.103-0.908,0.514-0.953,1.023
		c-0.069,0.759,0.171,1.251,0.71,1.482C15.299,16.375,16.235,15.822,16.166,14.858z"/>
	<path fill-rule="evenodd" clip-rule="evenodd" d="M15.014,9.205c0.303,0.004,0.546,0.258,0.534,0.565
		c-0.011,0.293-0.255,0.528-0.548,0.524c-0.298-0.003-0.553-0.269-0.54-0.564C14.471,9.443,14.725,9.202,15.014,9.205z"/>
</g>
</svg>
