<?xml version="1.0" encoding="utf-8"?>
<!-- Generator: Adobe Illustrator 16.0.0, SVG Export Plug-In . SVG Version: 6.00 Build 0)  -->
<!DOCTYPE svg PUBLIC "-//W3C//DTD SVG 1.1//EN" "http://www.w3.org/Graphics/SVG/1.1/DTD/svg11.dtd">
<svg version="1.1" id="Layer_1" xmlns="http://www.w3.org/2000/svg" xmlns:xlink="http://www.w3.org/1999/xlink" x="0px" y="0px"
	 width="30px" height="30px" viewBox="0 0 30 30" enable-background="new 0 0 30 30" xml:space="preserve">
<g>
	<path fill-rule="evenodd" clip-rule="evenodd" d="M29,27.976c-0.02,0.043-0.041,0.083-0.056,0.128
		c-0.206,0.579-0.618,0.884-1.221,0.885c-2.105,0.003-4.21,0.002-6.314,0.001c-0.348-0.001-0.526-0.149-0.521-0.424
		c0.004-0.267,0.192-0.413,0.539-0.414c2.051-0.001,4.101,0,6.151-0.001c0.485,0,0.6-0.114,0.6-0.601
		c0.001-4.231,0.001-8.464,0-12.695c0-0.09-0.008-0.181-0.013-0.284c-8.779,0-17.542,0-26.325,0c0,1.06,0,2.117,0,3.222
		c0.094,0,0.198,0,0.303,0c1.813,0,3.626,0,5.44,0c0.808,0,1.178,0.383,1.178,1.219c0,0.324,0,0.65,0,1.016c0.436,0,0.861,0,1.286,0
		c0.818,0,1.182,0.373,1.183,1.211c0,0.326,0,0.65,0,1.021c0.103,0,0.198,0,0.293,0c0.666,0,1.331-0.002,1.996,0.002
		c0.658,0.006,1.052,0.404,1.069,1.078c0.007,0.279,0.005,0.558,0,0.837c-0.011,0.724-0.401,1.12-1.108,1.12
		c-3.763,0.001-7.527,0.001-11.291,0.001c-0.108,0-0.217,0-0.369,0c0,0.15,0,0.285,0,0.421c0,0.605,0,1.211,0,1.817
		c0,0.507,0.108,0.614,0.614,0.615c5.649,0,11.3,0,16.95,0c0.109,0,0.222-0.01,0.327,0.014c0.224,0.048,0.355,0.195,0.339,0.435
		c-0.015,0.237-0.152,0.372-0.388,0.387c-0.09,0.007-0.183,0.003-0.273,0.003c-5.623,0-11.245-0.007-16.867,0.01
		C1.756,29.001,1.239,28.733,1,27.976c0-8.649,0-17.301,0-25.952c0.239-0.758,0.755-1.053,1.521-1.021
		c0.819,0.034,1.64,0.007,2.46,0.008c0.237,0,0.474-0.006,0.71,0.004c0.225,0.01,0.355,0.156,0.376,0.372
		c0.022,0.22-0.092,0.378-0.304,0.437C5.671,1.848,5.567,1.847,5.468,1.847c-1.048,0.002-2.096,0-3.144,0.002
		C1.965,1.85,1.821,1.993,1.821,2.353c-0.002,1.379-0.001,2.759,0,4.139c0,0.054,0.008,0.107,0.013,0.169c4.045,0,8.076,0,12.111,0
		c0-1.609,0-3.198,0-4.812c-0.123,0-0.23,0-0.337,0c-2.06,0-4.12,0-6.179-0.001c-0.347,0-0.528-0.153-0.525-0.428
		c0.002-0.266,0.176-0.41,0.507-0.41c6.772-0.001,13.543-0.001,20.314,0c0.603,0,1.016,0.306,1.222,0.886
		C28.959,1.94,28.98,1.981,29,2.023C29,10.674,29,19.326,29,27.976z M28.169,7.542c-8.794,0-17.564,0-26.33,0
		c0,2.068,0,4.115,0,6.154c0.761,0,1.502,0,2.261,0c0-0.197,0-0.373,0-0.549c0.001-0.55-0.004-1.1,0.005-1.65
		c0.005-0.259,0.157-0.411,0.384-0.419c0.228-0.009,0.391,0.134,0.423,0.384c0.014,0.11,0.008,0.223,0.009,0.334
		c0,0.631,0,1.262,0,1.908c0.734,0,1.441,0,2.171,0c0-0.112,0-0.212,0-0.313c0-1.081-0.001-2.163,0.001-3.244
		c0-0.111-0.022-0.254,0.035-0.326c0.099-0.124,0.24-0.258,0.384-0.286c0.194-0.038,0.341,0.107,0.383,0.316
		c0.019,0.099,0.016,0.204,0.017,0.306c0.001,1.082,0,2.163,0,3.244c0,0.1,0,0.199,0,0.298c0.743,0,1.449,0,2.175,0
		c0-0.119,0-0.22,0-0.321c0-1.109-0.001-2.219,0.001-3.328c0-0.331,0.151-0.522,0.402-0.53c0.259-0.008,0.416,0.19,0.417,0.536
		c0.002,0.979,0,1.957,0,2.936c0,0.231,0,0.462,0,0.706c0.738,0,1.451,0,2.181,0c0-0.073,0-0.127,0-0.182
		c0-0.868-0.001-1.735,0.001-2.601c0-0.33,0.151-0.518,0.405-0.521c0.258-0.004,0.411,0.182,0.414,0.508
		c0.002,0.298,0,0.596,0,0.895c0,0.631,0,1.263,0,1.901c0.74,0,1.454,0,2.182,0c0-0.717-0.002-1.415,0-2.113
		c0.002-0.331,0.153-0.512,0.412-0.509c0.26,0.003,0.405,0.185,0.407,0.518c0.003,0.615,0.001,1.23,0.001,1.846
		c0,0.089,0,0.177,0,0.257c0.749,0,1.454,0,2.179,0c0-0.26,0-0.501,0-0.742c0.001-0.988-0.002-1.977,0.002-2.965
		c0.002-0.287,0.16-0.466,0.397-0.47c0.236-0.004,0.401,0.172,0.42,0.455c0.005,0.065,0.001,0.13,0.001,0.195
		c0,0.952,0,1.902,0,2.853c0,0.221,0,0.443,0,0.679c0.733,0,1.439,0,2.177,0c0-0.109,0-0.21,0-0.31c0-0.839-0.004-1.679,0.003-2.517
		c0.003-0.363,0.252-0.567,0.545-0.458c0.226,0.084,0.272,0.279,0.272,0.498c-0.001,0.82,0,1.641,0,2.461c0,0.108,0,0.216,0,0.323
		c0.741,0,1.446,0,2.17,0c0-0.577-0.001-1.134,0.001-1.692c0.001-0.103-0.001-0.207,0.021-0.306c0.05-0.221,0.2-0.339,0.415-0.325
		c0.213,0.014,0.362,0.144,0.375,0.373c0.015,0.278,0.007,0.559,0.008,0.838c0.001,0.37,0,0.74,0,1.112c0.778,0,1.521,0,2.271,0
		C28.169,11.643,28.169,9.603,28.169,7.542z M14.79,6.657c4.475,0,8.924,0,13.389,0c0-0.105,0-0.188,0-0.271
		c0-1.314,0.001-2.628,0-3.942c0-0.476-0.116-0.596-0.577-0.596c-4.173,0-8.348,0-12.521,0c-0.095,0-0.191,0-0.291,0
		C14.79,3.473,14.79,5.056,14.79,6.657z M1.833,24.459c0.109,0,0.207,0,0.305,0c3.736,0,7.472,0,11.209,0
		c0.036,0,0.073-0.004,0.109,0.001c0.246,0.029,0.324-0.1,0.314-0.331c-0.008-0.195-0.001-0.392-0.002-0.586
		c-0.001-0.436-0.006-0.441-0.422-0.441c-3.736,0-7.473,0-11.208,0c-0.098,0-0.195,0-0.305,0
		C1.833,23.564,1.833,23.996,1.833,24.459z M1.83,22.227c0.131,0,0.238,0,0.345,0c1.722,0,3.443,0,5.164,0
		c0.911,0,1.821-0.008,2.732,0.004c0.266,0.002,0.362-0.094,0.342-0.359c-0.016-0.205-0.003-0.41-0.004-0.615
		c-0.001-0.383-0.008-0.391-0.386-0.391c-2.641,0-5.282,0-7.923,0c-0.088,0-0.175,0.01-0.271,0.016
		C1.83,21.33,1.83,21.756,1.83,22.227z M1.838,18.643c0,0.465,0,0.898,0,1.348c1.966,0,3.915,0,5.862,0
		c0.175,0,0.243-0.094,0.241-0.264c-0.002-0.26-0.007-0.521,0.002-0.781c0.008-0.225-0.076-0.318-0.303-0.318
		c-1.885,0.006-3.771,0.004-5.657,0.004C1.94,18.631,1.896,18.639,1.838,18.643z"/>
	<path fill-rule="evenodd" clip-rule="evenodd" d="M26.776,21.119c0.007,3.098-2.458,5.623-5.487,5.623
		c-3.018,0-5.472-2.505-5.482-5.598c-0.013-3.1,2.444-5.631,5.471-5.637C24.308,15.502,26.771,18.016,26.776,21.119z M16.643,21.553
		c0.1,1,0.447,1.861,1.063,2.621c0.261-0.188,0.457-0.602,0.853-0.266c0.207,0.179,0.153,0.36-0.239,0.894
		c0.742,0.615,1.575,0.987,2.551,1.065c0.033-0.347-0.067-0.771,0.398-0.791c0.527-0.021,0.397,0.462,0.459,0.794
		c0.973-0.089,1.804-0.456,2.54-1.073c-0.395-0.509-0.454-0.691-0.258-0.874c0.396-0.364,0.604,0.059,0.871,0.251
		c0.609-0.77,0.97-1.629,1.053-2.621c-0.334-0.027-0.75,0.08-0.776-0.391c-0.03-0.559,0.449-0.428,0.783-0.471
		c-0.103-0.994-0.448-1.857-1.063-2.615c-0.263,0.191-0.483,0.625-0.848,0.26c-0.36-0.361,0.035-0.604,0.246-0.879
		c-0.758-0.621-1.586-1-2.557-1.072c-0.04,0.334,0.063,0.748-0.378,0.787c-0.552,0.047-0.422-0.453-0.482-0.793
		c-0.977,0.096-1.809,0.455-2.544,1.074c0.395,0.5,0.456,0.689,0.256,0.873c-0.394,0.365-0.603-0.061-0.87-0.25
		c-0.609,0.766-0.962,1.627-1.056,2.613c0.331,0.043,0.798-0.08,0.783,0.453C17.416,21.631,16.983,21.527,16.643,21.553z"/>
	<path fill-rule="evenodd" clip-rule="evenodd" d="M10.76,5.445c-0.668-0.007-1.214-0.566-1.217-1.248
		c-0.002-0.687,0.564-1.266,1.235-1.265c0.678,0.001,1.225,0.569,1.222,1.27C11.998,4.904,11.452,5.451,10.76,5.445z M10.785,3.774
		c-0.221-0.006-0.421,0.196-0.418,0.423c0.002,0.221,0.181,0.403,0.4,0.408c0.224,0.005,0.4-0.162,0.412-0.388
		C11.189,3.978,11.014,3.781,10.785,3.774z"/>
	<path fill-rule="evenodd" clip-rule="evenodd" d="M7.418,5.445c-0.69,0.003-1.231-0.549-1.23-1.253
		c0.001-0.697,0.557-1.266,1.232-1.259C8.082,2.938,8.635,3.5,8.645,4.179C8.654,4.868,8.098,5.442,7.418,5.445z M7.822,4.182
		C7.815,3.956,7.606,3.76,7.387,3.775C7.169,3.79,7.005,3.977,7.009,4.204c0.005,0.239,0.191,0.413,0.427,0.4
		C7.654,4.591,7.829,4.4,7.822,4.182z"/>
	<path fill-rule="evenodd" clip-rule="evenodd" d="M4.034,5.445C3.355,5.439,2.8,4.862,2.814,4.173
		c0.014-0.68,0.568-1.239,1.23-1.241C4.72,2.931,5.272,3.5,5.271,4.198C5.27,4.9,4.725,5.45,4.034,5.445z M4.059,4.604
		C4.281,4.598,4.45,4.422,4.45,4.193c0-0.236-0.19-0.428-0.417-0.42C3.822,3.782,3.637,3.976,3.636,4.191
		C3.635,4.422,3.828,4.61,4.059,4.604z"/>
	<path fill-rule="evenodd" clip-rule="evenodd" d="M21.202,4.606c-1.092,0-2.184,0-3.276,0c-0.082,0-0.164,0.004-0.245-0.005
		c-0.209-0.025-0.331-0.156-0.353-0.363c-0.022-0.208,0.067-0.369,0.268-0.431c0.11-0.034,0.233-0.038,0.35-0.038
		c2.166-0.002,4.333-0.001,6.498-0.001c0.055,0,0.109-0.002,0.164,0c0.3,0.017,0.469,0.176,0.464,0.434
		c-0.005,0.262-0.168,0.403-0.483,0.403C23.459,4.607,22.331,4.606,21.202,4.606z"/>
	<path fill-rule="evenodd" clip-rule="evenodd" d="M21.703,20.705c0.457,0,0.884-0.002,1.31,0c0.341,0.002,0.527,0.158,0.521,0.43
		c-0.007,0.262-0.187,0.408-0.512,0.41c-0.547,0-1.093,0.002-1.64,0c-0.353-0.004-0.495-0.146-0.497-0.512
		c-0.005-0.791-0.004-1.584-0.001-2.375c0.002-0.332,0.151-0.52,0.401-0.523c0.261-0.004,0.414,0.189,0.416,0.541
		C21.705,19.336,21.703,19.998,21.703,20.705z"/>
</g>
</svg>
