<?xml version="1.0" encoding="utf-8"?>
<!-- Generator: Adobe Illustrator 16.0.0, SVG Export Plug-In . SVG Version: 6.00 Build 0)  -->
<!DOCTYPE svg PUBLIC "-//W3C//DTD SVG 1.1//EN" "http://www.w3.org/Graphics/SVG/1.1/DTD/svg11.dtd">
<svg version="1.1" id="Layer_1" xmlns="http://www.w3.org/2000/svg" xmlns:xlink="http://www.w3.org/1999/xlink" x="0px" y="0px"
	 width="30px" height="30px" viewBox="0 0 30 30" enable-background="new 0 0 30 30" xml:space="preserve">
<g>
	<path fill-rule="evenodd" clip-rule="evenodd" d="M29,25.555c0,0.127,0,0.257,0,0.383c-0.2,0.561-0.599,0.751-1.183,0.733
		c-1.053-0.03-2.108-0.009-3.162-0.009c-0.097,0-0.193,0-0.29,0c-0.025,0.151-0.04,0.269-0.061,0.383
		c-0.158,0.865-0.65,1.461-1.461,1.794c-0.167,0.067-0.343,0.108-0.516,0.161c-0.219,0-0.438,0-0.656,0
		c-0.229-0.082-0.456-0.167-0.687-0.245c-0.046-0.016-0.106-0.021-0.153-0.007c-0.269,0.08-0.535,0.167-0.801,0.252
		c-5.523,0-11.047,0-16.57,0c-0.051-0.016-0.101-0.039-0.152-0.049c-1.091-0.229-1.808-0.876-2.172-1.922
		c-0.056-0.16-0.093-0.326-0.137-0.49c0-7.693,0-15.384,0-23.078c0.016-0.04,0.042-0.077,0.05-0.12
		C1.162,2.67,1.485,2.119,1.995,1.67C2.416,1.3,2.927,1.123,3.461,1c4.211,0,8.422,0,12.633,0c0.102,0.09,0.21,0.173,0.308,0.268
		c1.934,1.933,3.864,3.868,5.803,5.796c0.195,0.195,0.281,0.404,0.279,0.679c-0.008,1.121-0.006,2.242,0.003,3.363
		c0.001,0.093,0.069,0.238,0.143,0.269c0.854,0.349,1.261,0.982,1.238,1.893c-0.006,0.193,0.063,0.285,0.231,0.372
		c1.144,0.58,1.912,1.484,2.336,2.693c0.261,0.75,0.238,1.524,0.242,2.298c0.011,2.258,0.648,4.322,1.897,6.202
		C28.729,25.065,28.857,25.314,29,25.555z M15.479,1.951c-0.07-0.009-0.097-0.017-0.124-0.017C11.49,1.934,7.627,1.93,3.763,1.942
		C3.508,1.943,3.233,2.018,3.004,2.13C2.242,2.499,1.936,3.146,1.936,3.976c0.004,7.336,0.003,14.673,0.003,22.008
		c0,0.074-0.001,0.146,0.001,0.219c0.031,1.064,0.828,1.863,1.891,1.864c5.27,0.005,10.536,0.003,15.804,0
		c0.146,0,0.293-0.033,0.393-0.044c-0.116-0.383-0.253-0.731-0.318-1.091c-0.041-0.225-0.113-0.275-0.325-0.273
		c-1.12,0.009-2.241,0-3.362,0.006c-0.388,0.003-0.706-0.112-0.894-0.465c-0.198-0.373-0.146-0.737,0.096-1.078
		c0.066-0.093,0.124-0.188,0.214-0.324c-0.155,0-0.255,0-0.352,0c-1.559,0-3.116-0.003-4.675,0.002
		c-0.362,0.001-0.684-0.094-0.962-0.324c-0.452-0.377-0.618-0.981-0.423-1.531c0.201-0.573,0.712-0.939,1.339-0.941
		c2.03-0.004,4.063-0.001,6.097-0.002c0.108,0,0.217,0,0.336,0c0.312-1.071,0.505-2.145,0.503-3.271c-0.139,0-0.237,0-0.337,0
		c-1.566,0-3.135,0.001-4.703,0c-0.665,0-1.33,0.012-1.995-0.008c-0.841-0.024-1.454-0.817-1.294-1.643
		c0.137-0.698,0.7-1.146,1.455-1.146c2.334-0.003,4.667-0.004,6.999,0.004c0.207,0,0.319-0.049,0.416-0.246
		c0.44-0.895,1.113-1.572,2.002-2.022c0.225-0.114,0.31-0.233,0.307-0.488c-0.013-0.824,0.438-1.481,1.2-1.779
		c0.155-0.062,0.201-0.136,0.199-0.297c-0.006-0.956-0.002-1.913-0.003-2.87c0-0.07-0.012-0.14-0.021-0.234
		c-0.111,0-0.209,0.001-0.307,0c-1.004,0-2.006,0.014-3.008-0.005c-1.487-0.027-2.688-1.213-2.723-2.699
		c-0.023-1.011-0.008-2.022-0.008-3.034C15.479,2.162,15.479,2.064,15.479,1.951z M28.044,25.728
		c-0.073-0.118-0.119-0.193-0.168-0.267c-1.059-1.54-1.759-3.229-1.991-5.087c-0.115-0.918-0.105-1.853-0.154-2.779
		c-0.084-1.597-1.175-2.953-2.723-3.391c-1.539-0.435-3.212,0.181-4.108,1.506c-0.499,0.74-0.654,1.561-0.645,2.44
		c0.029,2.715-0.645,5.224-2.231,7.457c-0.023,0.033-0.032,0.075-0.051,0.12C19.995,25.728,23.997,25.728,28.044,25.728z
		 M16.414,2.684c0,0.839-0.008,1.684,0.002,2.527c0.014,1.048,0.814,1.843,1.864,1.855c0.655,0.01,1.313,0.002,1.969,0.002
		c0.187,0,0.373,0,0.55,0C19.336,5.606,17.884,4.153,16.414,2.684z M17.396,16.879c-0.078-0.006-0.148-0.014-0.221-0.014
		c-2.239-0.001-4.479-0.001-6.718,0.001c-0.09,0-0.184,0.007-0.267,0.034c-0.214,0.076-0.322,0.242-0.312,0.464
		c0.013,0.209,0.134,0.356,0.34,0.413c0.093,0.025,0.199,0.019,0.298,0.019c2.168,0.001,4.334,0.001,6.5,0
		c0.097,0,0.191-0.009,0.293-0.014C17.34,17.469,17.367,17.18,17.396,16.879z M16.462,22.934c-2.082,0-4.097-0.003-6.109,0.002
		c-0.274,0.001-0.478,0.215-0.479,0.464c-0.001,0.262,0.206,0.462,0.504,0.463c1.822,0.003,3.646,0.003,5.467-0.002
		c0.07,0,0.176-0.033,0.203-0.083C16.189,23.518,16.311,23.244,16.462,22.934z M20.642,26.678c-0.047,0.754,0.613,1.402,1.39,1.39
		c0.76-0.011,1.409-0.674,1.347-1.39C22.473,26.678,21.565,26.678,20.642,26.678z M22.926,13.17c0.011-0.578-0.4-0.986-0.969-0.963
		c-0.519,0.021-0.91,0.468-0.856,0.963C21.703,13.17,22.305,13.17,22.926,13.17z"/>
	<path fill-rule="evenodd" clip-rule="evenodd" d="M14.549,12.662c-1.4,0-2.803,0.009-4.206-0.003
		c-0.944-0.01-1.585-0.855-1.353-1.756c0.161-0.626,0.722-1.037,1.432-1.038c2.541-0.002,5.082-0.001,7.623-0.001
		c0.235,0,0.472-0.006,0.71,0.002c0.782,0.024,1.384,0.635,1.385,1.399c0.001,0.77-0.59,1.385-1.382,1.393
		C17.354,12.67,15.952,12.662,14.549,12.662z M14.534,11.729c1.377,0,2.752,0.002,4.129-0.001c0.333-0.001,0.534-0.174,0.544-0.448
		c0.01-0.279-0.208-0.474-0.543-0.483c-0.045-0.001-0.092,0-0.137,0c-2.661,0-5.321,0-7.983,0.001c-0.1,0-0.204-0.004-0.299,0.019
		C9.928,10.89,9.781,11.229,9.941,11.5c0.118,0.198,0.307,0.232,0.52,0.231C11.818,11.728,13.177,11.729,14.534,11.729z"/>
	<path fill-rule="evenodd" clip-rule="evenodd" d="M5.675,25.729c-1.289-0.001-2.326-1.035-2.328-2.322
		c-0.002-1.301,1.043-2.342,2.343-2.337c1.285,0.006,2.318,1.049,2.314,2.339C8.001,24.696,6.965,25.729,5.675,25.729z
		 M7.072,23.408c0.004-0.778-0.623-1.409-1.401-1.407c-0.766,0.002-1.389,0.624-1.393,1.389c-0.003,0.773,0.606,1.396,1.374,1.405
		C6.439,24.803,7.068,24.19,7.072,23.408z"/>
	<path fill-rule="evenodd" clip-rule="evenodd" d="M5.674,19.662c-1.29-0.002-2.326-1.038-2.327-2.324
		c-0.001-1.299,1.047-2.344,2.344-2.337c1.284,0.008,2.317,1.052,2.313,2.341C8,18.632,6.964,19.662,5.674,19.662z M5.673,18.729
		c0.773,0.001,1.392-0.609,1.399-1.379c0.007-0.779-0.618-1.415-1.395-1.417c-0.764-0.001-1.394,0.621-1.399,1.384
		C4.272,18.104,4.891,18.728,5.673,18.729z"/>
	<path fill-rule="evenodd" clip-rule="evenodd" d="M5.672,13.594c-1.289-0.002-2.324-1.037-2.325-2.325
		C3.346,9.974,4.399,8.924,5.691,8.934c1.283,0.009,2.316,1.055,2.313,2.343C8,12.565,6.962,13.597,5.672,13.594z M5.68,12.662
		c0.783-0.002,1.399-0.628,1.393-1.414c-0.007-0.762-0.64-1.386-1.401-1.383c-0.763,0.003-1.389,0.629-1.393,1.392
		C4.275,12.041,4.896,12.662,5.68,12.662z"/>
	<path fill-rule="evenodd" clip-rule="evenodd" d="M4.277,4.271c0,0.457,0.002,0.872-0.001,1.29
		c-0.002,0.356-0.192,0.58-0.478,0.572C3.52,6.127,3.348,5.913,3.346,5.565C3.344,5.002,3.343,4.437,3.347,3.873
		C3.35,3.504,3.51,3.343,3.883,3.339c0.572-0.003,1.146-0.002,1.719,0c0.334,0.003,0.53,0.174,0.537,0.451
		C6.146,4.073,5.936,4.267,5.596,4.27C5.17,4.275,4.742,4.271,4.277,4.271z"/>
	<path fill-rule="evenodd" clip-rule="evenodd" d="M19.213,17.682c0.035-1.423,1.271-2.652,2.695-2.678
		c0.337-0.007,0.562,0.174,0.567,0.454c0.005,0.268-0.197,0.455-0.521,0.476c-1.024,0.067-1.746,0.788-1.812,1.804
		c-0.021,0.339-0.219,0.549-0.495,0.529C19.367,18.246,19.204,18.025,19.213,17.682z"/>
</g>
</svg>
