<?xml version="1.0" encoding="utf-8"?>
<!-- Generator: Adobe Illustrator 16.0.0, SVG Export Plug-In . SVG Version: 6.00 Build 0)  -->
<!DOCTYPE svg PUBLIC "-//W3C//DTD SVG 1.1//EN" "http://www.w3.org/Graphics/SVG/1.1/DTD/svg11.dtd">
<svg version="1.1" id="Layer_1" xmlns="http://www.w3.org/2000/svg" xmlns:xlink="http://www.w3.org/1999/xlink" x="0px" y="0px"
	 width="30px" height="30px" viewBox="0 0 30 30" enable-background="new 0 0 30 30" xml:space="preserve">
<g>
	<path fill-rule="evenodd" clip-rule="evenodd" d="M29,15.714c-0.096,0.563-0.158,1.132-0.287,1.691
		c-0.957,4.267-4.692,7.585-9.028,8.049c-1.784,0.191-3.506-0.028-5.17-0.703c-0.14-0.056-0.301-0.076-0.451-0.076
		c-2.26-0.006-4.521-0.004-6.78-0.006c-0.108,0-0.222,0-0.325-0.03c-0.199-0.059-0.293-0.206-0.276-0.414
		c0.017-0.21,0.138-0.331,0.343-0.363c0.097-0.018,0.2-0.011,0.3-0.011c1.685-0.001,3.372,0,5.058,0c0.096,0,0.194,0,0.362,0
		c-0.322-0.244-0.604-0.438-0.863-0.656c-2.816-2.365-4.136-5.383-3.889-9.062c0.112-1.683,0.649-3.239,1.534-4.673
		c0.04-0.063,0.075-0.127,0.123-0.182c0.15-0.176,0.335-0.225,0.533-0.102c0.201,0.124,0.24,0.315,0.152,0.527
		c-0.037,0.09-0.1,0.171-0.152,0.257c-3.581,5.828-0.02,13.557,6.736,14.621c5.184,0.813,10.001-2.525,11.072-7.676
		c1.056-5.084-2.264-10.257-7.348-11.351c-3.575-0.768-6.662,0.209-9.238,2.803c-0.051,0.051-0.101,0.106-0.157,0.154
		c-0.178,0.148-0.367,0.152-0.545,0.005c-0.169-0.141-0.195-0.386-0.035-0.562c0.265-0.288,0.539-0.571,0.834-0.827
		c0.375-0.325,0.774-0.623,1.215-0.974c-0.146,0-0.241,0-0.335,0c-1.687,0-3.374,0-5.059,0c-0.101,0-0.202,0.008-0.3-0.008
		C6.819,6.111,6.698,5.988,6.681,5.78C6.665,5.572,6.76,5.423,6.959,5.364c0.104-0.03,0.217-0.03,0.325-0.03
		c2.259-0.002,4.52,0.001,6.779-0.004c0.167,0,0.348-0.035,0.502-0.095c6.171-2.446,12.998,1.296,14.249,7.818
		c0.08,0.41,0.123,0.826,0.186,1.239C29,14.768,29,15.238,29,15.714z"/>
	<path fill-rule="evenodd" clip-rule="evenodd" d="M1,13.417c0.144-0.204,0.341-0.266,0.587-0.264
		c1.273,0.009,2.548,0.003,3.823,0.006c0.108,0,0.222,0.003,0.321,0.037c0.2,0.064,0.283,0.222,0.26,0.427
		c-0.021,0.195-0.137,0.312-0.332,0.346c-0.061,0.01-0.125,0.009-0.19,0.009c-1.311,0-2.621-0.005-3.931,0.005
		c-0.245,0-0.423-0.074-0.538-0.292C1,13.6,1,13.507,1,13.417z"/>
	<path fill-rule="evenodd" clip-rule="evenodd" d="M1,16.315c0.109-0.206,0.273-0.29,0.51-0.29c1.329,0.005,2.659,0,3.986,0.001
		c0.368,0.001,0.57,0.219,0.485,0.519c-0.076,0.258-0.281,0.302-0.516,0.302c-1.021-0.001-2.039-0.001-3.058-0.001
		c-0.273,0-0.546-0.007-0.82,0.004C1.341,16.864,1.145,16.791,1,16.589C1,16.496,1,16.408,1,16.315z"/>
	<path fill-rule="evenodd" clip-rule="evenodd" d="M18.44,23.181c-4.131-0.065-7.476-3.001-8.073-7.089
		c-0.623-4.262,2.4-8.409,6.664-9.134c4.489-0.765,8.64,2.115,9.488,6.595c0.055,0.293,0.084,0.594,0.11,0.893
		c0.026,0.268-0.138,0.464-0.37,0.486c-0.231,0.026-0.419-0.139-0.441-0.414c-0.13-1.602-0.665-3.049-1.73-4.252
		c-2.035-2.296-4.593-3.145-7.544-2.337c-2.959,0.811-4.777,2.842-5.31,5.875c-0.707,4.019,2.002,7.753,6.035,8.458
		c3.933,0.688,7.802-2.057,8.455-5.998c0.021-0.129,0.055-0.302,0.143-0.368c0.115-0.082,0.306-0.122,0.443-0.09
		c0.199,0.043,0.286,0.236,0.236,0.435c-0.137,0.573-0.246,1.156-0.454,1.707C24.923,21.082,21.765,23.23,18.44,23.181z"/>
	<path fill-rule="evenodd" clip-rule="evenodd" d="M18.883,14.597c0.371,0,0.719,0,1.061,0c0.1,0,0.203-0.004,0.301,0.003
		c0.262,0.013,0.429,0.17,0.433,0.395c0.005,0.222-0.163,0.406-0.416,0.413c-0.595,0.015-1.185,0.016-1.776-0.001
		c-0.272-0.007-0.417-0.167-0.418-0.438c-0.006-1.128-0.006-2.257,0-3.386c0.001-0.269,0.18-0.45,0.417-0.443
		c0.231,0.003,0.396,0.184,0.397,0.46c0.005,0.882,0.002,1.767,0.002,2.649C18.883,14.348,18.883,14.445,18.883,14.597z"/>
	<path fill-rule="evenodd" clip-rule="evenodd" d="M5.265,9.158c-0.683,0-1.366,0-2.049,0C2.899,9.157,2.71,8.995,2.717,8.744
		c0.005-0.241,0.193-0.405,0.489-0.405c1.385-0.001,2.768-0.001,4.154,0c0.317,0,0.499,0.164,0.493,0.423
		c-0.006,0.26-0.177,0.396-0.512,0.396C6.65,9.158,5.958,9.158,5.265,9.158z"/>
	<path fill-rule="evenodd" clip-rule="evenodd" d="M5.284,20.847c0.691,0,1.385-0.003,2.077,0C7.682,20.849,7.859,21,7.854,21.262
		c-0.006,0.246-0.185,0.402-0.486,0.402c-1.383,0.004-2.768,0.004-4.154,0.001c-0.311-0.001-0.503-0.173-0.496-0.42
		C2.723,21,2.902,20.849,3.207,20.848C3.898,20.844,4.592,20.847,5.284,20.847z"/>
	<path fill-rule="evenodd" clip-rule="evenodd" d="M6.438,11.952c-0.273,0-0.547,0.007-0.82-0.002
		c-0.265-0.007-0.423-0.16-0.426-0.395c-0.005-0.231,0.152-0.411,0.411-0.415c0.561-0.014,1.125-0.013,1.689,0
		c0.251,0.003,0.423,0.191,0.419,0.412c-0.003,0.225-0.173,0.392-0.43,0.398C7,11.959,6.72,11.952,6.438,11.952z"/>
	<path fill-rule="evenodd" clip-rule="evenodd" d="M6.443,18.052c0.283-0.001,0.564-0.004,0.845,0.002
		c0.256,0.01,0.426,0.183,0.425,0.404c0,0.213-0.163,0.401-0.399,0.407c-0.58,0.01-1.162,0.011-1.743-0.003
		c-0.239-0.008-0.385-0.195-0.377-0.419c0.006-0.228,0.155-0.378,0.406-0.389C5.878,18.048,6.162,18.052,6.443,18.052z"/>
	<path fill-rule="evenodd" clip-rule="evenodd" d="M18.881,9.355c0,0.108,0.01,0.218-0.003,0.326
		c-0.02,0.229-0.201,0.404-0.412,0.389c-0.227-0.017-0.377-0.146-0.395-0.375c-0.022-0.224-0.019-0.455-0.002-0.679
		c0.012-0.232,0.197-0.392,0.412-0.39c0.216,0.004,0.383,0.167,0.398,0.403C18.89,9.137,18.882,9.247,18.881,9.355z"/>
	<path fill-rule="evenodd" clip-rule="evenodd" d="M14.228,10.333c0.132,0.066,0.235,0.095,0.304,0.157
		c0.162,0.145,0.318,0.296,0.461,0.46c0.16,0.185,0.15,0.406-0.008,0.563c-0.154,0.151-0.392,0.162-0.568,0.007
		c-0.166-0.151-0.346-0.303-0.468-0.489c-0.072-0.108-0.09-0.302-0.043-0.421C13.954,10.493,14.118,10.422,14.228,10.333z"/>
	<path fill-rule="evenodd" clip-rule="evenodd" d="M22.259,11.629c-0.33-0.009-0.537-0.353-0.354-0.601
		c0.164-0.224,0.371-0.432,0.598-0.586c0.098-0.067,0.34-0.04,0.438,0.042c0.099,0.082,0.181,0.342,0.125,0.417
		c-0.197,0.263-0.453,0.479-0.693,0.707C22.345,11.633,22.284,11.624,22.259,11.629z"/>
	<path fill-rule="evenodd" clip-rule="evenodd" d="M15.148,18.75c-0.063,0.13-0.085,0.227-0.143,0.286
		c-0.156,0.176-0.32,0.352-0.502,0.499c-0.175,0.149-0.377,0.131-0.537-0.033c-0.163-0.165-0.172-0.36-0.022-0.538
		c0.154-0.178,0.313-0.363,0.504-0.492c0.106-0.07,0.306-0.094,0.427-0.041C14.989,18.479,15.063,18.643,15.148,18.75z"/>
	<path fill-rule="evenodd" clip-rule="evenodd" d="M23.098,19.197c-0.001,0.335-0.346,0.552-0.596,0.374
		c-0.225-0.16-0.434-0.37-0.589-0.594c-0.066-0.1-0.046-0.349,0.034-0.438c0.091-0.1,0.359-0.185,0.44-0.124
		c0.255,0.185,0.468,0.442,0.688,0.673C23.104,19.116,23.094,19.177,23.098,19.197z"/>
	<path fill-rule="evenodd" clip-rule="evenodd" d="M18.068,20.653c0-0.118-0.017-0.236,0.003-0.353
		c0.031-0.23,0.176-0.365,0.404-0.365c0.228,0.001,0.38,0.136,0.398,0.368c0.021,0.227,0.019,0.452,0.004,0.68
		c-0.011,0.234-0.192,0.397-0.406,0.396c-0.213-0.001-0.386-0.164-0.404-0.4c-0.011-0.107-0.002-0.218-0.002-0.326
		C18.066,20.653,18.067,20.653,18.068,20.653z"/>
	<path fill-rule="evenodd" clip-rule="evenodd" d="M12.806,15.424c-0.125-0.008-0.254-0.004-0.378-0.027
		c-0.215-0.044-0.332-0.19-0.324-0.407c0.005-0.218,0.128-0.361,0.347-0.382c0.243-0.018,0.49-0.018,0.732-0.002
		c0.22,0.02,0.341,0.162,0.348,0.381c0.009,0.219-0.101,0.366-0.317,0.41C13.08,15.421,12.943,15.415,12.806,15.424z"/>
	<path fill-rule="evenodd" clip-rule="evenodd" d="M24.127,14.604c0.125,0,0.257-0.011,0.379,0.004
		c0.208,0.028,0.323,0.16,0.337,0.368c0.01,0.218-0.095,0.387-0.312,0.413c-0.255,0.031-0.524,0.03-0.781,0.008
		c-0.233-0.025-0.346-0.191-0.336-0.42c0.015-0.222,0.143-0.347,0.36-0.373C23.893,14.593,24.009,14.604,24.127,14.604
		L24.127,14.604z"/>
</g>
</svg>
