<?xml version="1.0" encoding="utf-8"?>
<!-- Generator: Adobe Illustrator 16.0.0, SVG Export Plug-In . SVG Version: 6.00 Build 0)  -->
<!DOCTYPE svg PUBLIC "-//W3C//DTD SVG 1.1//EN" "http://www.w3.org/Graphics/SVG/1.1/DTD/svg11.dtd">
<svg version="1.1" id="Layer_1" xmlns="http://www.w3.org/2000/svg" xmlns:xlink="http://www.w3.org/1999/xlink" x="0px" y="0px"
	 width="30px" height="30px" viewBox="0 0 30 30" enable-background="new 0 0 30 30" xml:space="preserve">
<g>
	<path fill-rule="evenodd" clip-rule="evenodd" d="M23.258,29c-0.203-0.043-0.405-0.086-0.607-0.133
		c-2.363-0.564-3.989-2.578-4.038-5.008c-0.002-0.063,0-0.125,0-0.225c-0.133,0-0.248,0-0.363,0c-4.538,0-9.076,0-13.615,0
		c-0.973,0-1.446-0.471-1.446-1.436c0-3.6,0-7.2,0-10.799c0-0.919,0.479-1.407,1.393-1.407c6.471-0.001,12.941-0.001,19.411,0
		c0.912,0,1.396,0.49,1.396,1.406c0.001,2.37,0.005,4.738-0.007,7.109c-0.001,0.252,0.058,0.375,0.311,0.469
		c0.831,0.301,1.52,0.814,2.09,1.488c0.193,0.23,0.198,0.467,0.021,0.631c-0.185,0.172-0.439,0.139-0.643-0.096
		c-0.907-1.049-2.055-1.578-3.437-1.566c-2.257,0.02-4.159,1.854-4.285,4.115c-0.129,2.277,1.53,4.289,3.775,4.586
		c3.074,0.402,5.566-2.367,4.84-5.379c-0.011-0.043-0.025-0.086-0.034-0.133c-0.049-0.281,0.057-0.473,0.293-0.529
		c0.233-0.057,0.433,0.068,0.503,0.34c0.072,0.291,0.124,0.586,0.186,0.879c0,0.346,0,0.693,0,1.039
		c-0.017,0.049-0.041,0.098-0.049,0.15c-0.349,2.084-1.518,3.496-3.497,4.221c-0.354,0.129-0.733,0.186-1.103,0.277
		C23.986,29,23.623,29,23.258,29z M18.235,19.428c0.213,0,0.395-0.004,0.577,0c0.286,0.008,0.453,0.152,0.462,0.393
		c0.007,0.254-0.164,0.418-0.46,0.426c-0.188,0.006-0.378,0.002-0.574,0.002c0,0.867,0,1.709,0,2.557c0.164,0,0.306,0,0.465,0
		c0.291-1.34,0.975-2.43,2.089-3.225c1.122-0.801,2.381-1.094,3.76-0.922c0-0.643,0-1.266,0-1.906c-0.938,0-1.861,0-2.801,0
		c-0.006,0.096-0.013,0.176-0.014,0.256c-0.002,0.346,0.003,0.691-0.004,1.039c-0.007,0.25-0.154,0.406-0.377,0.42
		c-0.229,0.016-0.409-0.141-0.436-0.393c-0.012-0.119-0.004-0.238-0.004-0.355c-0.001-0.324,0-0.648,0-0.959
		c-0.927,0-1.804,0-2.684,0C18.235,17.654,18.235,18.525,18.235,19.428z M4.028,13.234c0,0.903,0,1.782,0,2.665
		c0.937,0,1.853,0,2.785,0c0-0.893,0-1.771,0-2.665C5.878,13.234,4.961,13.234,4.028,13.234z M21.753,15.891
		c0.956,0,1.877,0,2.804,0c0-0.894,0-1.765,0-2.647c-0.942,0-1.872,0-2.804,0C21.753,14.137,21.753,15.008,21.753,15.891z
		 M4.028,16.748c0,0.912,0,1.789,0,2.668c0.936,0,1.852,0,2.78,0c0-0.895,0-1.777,0-2.668C5.869,16.748,4.954,16.748,4.028,16.748z
		 M14.708,15.891c0.911,0,1.796,0,2.683,0c0-0.895,0-1.766,0-2.652c-0.898,0-1.783,0-2.683,0
		C14.708,14.128,14.708,14.999,14.708,15.891z M18.24,13.236c0,0.896,0,1.776,0,2.661c0.896,0,1.775,0,2.658,0
		c0-0.895,0-1.773,0-2.661C20.001,13.236,19.122,13.236,18.24,13.236z M11.186,15.9c0.894,0,1.771,0,2.67,0c0-0.895,0-1.772,0-2.667
		c-0.896,0-1.775,0-2.67,0C11.186,14.127,11.186,15.006,11.186,15.9z M10.341,13.237c-0.901,0-1.781,0-2.667,0
		c0,0.896,0,1.775,0,2.662c0.898,0,1.777,0,2.667,0C10.341,15.008,10.341,14.135,10.341,13.237z M17.38,19.416
		c0-0.91,0-1.787,0-2.662c-0.901,0-1.78,0-2.668,0c0,0.898,0,1.775,0,2.662C15.61,19.416,16.49,19.416,17.38,19.416z M6.817,22.813
		c0-0.871,0-1.703,0-2.543c-0.943,0-1.873,0-2.81,0c0,0.715-0.004,1.404,0.002,2.096c0.003,0.273,0.151,0.441,0.413,0.445
		C5.213,22.82,6.002,22.813,6.817,22.813z M7.677,16.75c0,0.91,0,1.785,0,2.66c0.901,0,1.778,0,2.659,0c0-0.896,0-1.771,0-2.66
		C9.442,16.75,8.565,16.75,7.677,16.75z M11.185,19.404c0.888,0,1.779,0,2.667,0c0-0.895,0-1.771,0-2.652c-0.9,0-1.777,0-2.667,0
		C11.185,17.639,11.185,18.512,11.185,19.404z M17.388,20.262c-0.902,0-1.782,0-2.674,0c0,0.852,0,1.695,0,2.539
		c0.9,0,1.778,0,2.674,0C17.388,21.953,17.388,21.119,17.388,20.262z M7.668,22.795c0.899,0,1.784,0,2.671,0
		c0-0.854,0-1.686,0-2.529c-0.897,0-1.783,0-2.671,0C7.668,21.117,7.668,21.951,7.668,22.795z M11.186,22.801
		c0.899,0,1.777,0,2.668,0c0-0.854,0-1.691,0-2.539c-0.897,0-1.776,0-2.668,0C11.186,21.109,11.186,21.941,11.186,22.801z
		 M6.815,10.827c-0.834,0-1.651-0.014-2.466,0.016c-0.116,0.005-0.308,0.207-0.321,0.334c-0.042,0.394-0.016,0.795-0.016,1.203
		c0.945,0,1.867,0,2.803,0C6.815,11.855,6.815,11.351,6.815,10.827z M21.756,10.812c0,0.545,0,1.05,0,1.566c0.941,0,1.863,0,2.778,0
		c0.016-0.036,0.026-0.052,0.026-0.068c0.003-0.318,0.007-0.638,0.006-0.956c-0.002-0.399-0.14-0.538-0.546-0.541
		c-0.646-0.003-1.293-0.001-1.939-0.001C21.976,10.812,21.87,10.812,21.756,10.812z M17.393,10.832c-0.91,0-1.789,0-2.682,0
		c0,0.525,0,1.03,0,1.542c0.903,0,1.787,0,2.682,0C17.393,11.849,17.393,11.351,17.393,10.832z M7.678,10.825
		c0,0.534,0,1.047,0,1.551c0.902,0,1.779,0,2.657,0c0-0.527,0-1.033,0-1.551C9.447,10.825,8.576,10.825,7.678,10.825z
		 M20.904,10.836c-0.897,0-1.782,0-2.664,0c0,0.529,0,1.035,0,1.544c0.896,0,1.773,0,2.664,0
		C20.904,11.856,20.904,11.35,20.904,10.836z M11.187,10.825c0,0.53,0,1.037,0,1.549c0.899,0,1.783,0,2.664,0
		c0-0.528,0-1.032,0-1.549C12.956,10.825,12.085,10.825,11.187,10.825z"/>
	<path fill-rule="evenodd" clip-rule="evenodd" d="M19.32,1c0.141,0.06,0.287,0.107,0.421,0.18c0.521,0.286,0.796,0.732,0.831,1.323
		c0.014,0.216,0.002,0.434,0.002,0.688c0.117,0,0.213,0,0.31,0c1.668,0,3.336,0,5.004,0c1.08,0,1.687,0.61,1.687,1.698
		c0.001,4.438,0,8.875,0,13.313c0,0.055,0.002,0.109,0,0.164c-0.013,0.277-0.173,0.453-0.407,0.457
		c-0.243,0.004-0.41-0.18-0.411-0.475c-0.004-0.766-0.002-1.531-0.002-2.297c0-2.349,0-4.701,0-7.052c0-0.108,0-0.217,0-0.357
		c-0.107-0.007-0.202-0.018-0.298-0.018c-0.602-0.002-1.203,0-1.805-0.001c-0.406-0.001-0.587-0.125-0.59-0.402
		c-0.003-0.28,0.183-0.416,0.578-0.417c0.692-0.002,1.385-0.001,2.089-0.001c0.011-0.08,0.024-0.141,0.024-0.202
		c0.002-0.948,0.005-1.896-0.001-2.843c-0.003-0.458-0.276-0.743-0.729-0.745c-1.777-0.005-3.555-0.001-5.331,0
		c-0.026,0-0.052,0.009-0.117,0.021c0,0.2,0.004,0.406,0,0.612c-0.016,0.879-0.682,1.552-1.538,1.558
		c-0.871,0.006-1.547-0.662-1.568-1.553c-0.005-0.2-0.001-0.4-0.001-0.62c-2.117,0-4.217,0-6.363,0c0,0.21,0.008,0.424-0.001,0.639
		c-0.034,0.821-0.63,1.471-1.396,1.528C8.87,6.261,8.164,5.742,8.028,4.927C7.98,4.644,8.021,4.346,8.021,4.012
		c-0.129,0-0.225,0-0.32,0c-1.668,0-3.336-0.001-5.003,0c-0.633,0-0.877,0.243-0.877,0.872c0,0.866,0,1.731,0,2.598
		c0,0.098,0,0.196,0,0.322c0.153,0,0.279,0,0.403,0c6.681,0,13.361,0,20.039,0.001c0.129,0,0.259-0.002,0.381,0.024
		c0.207,0.044,0.307,0.191,0.301,0.397c-0.004,0.207-0.112,0.347-0.322,0.381c-0.116,0.02-0.234,0.015-0.354,0.016
		c-6.681,0-13.359,0-20.04,0c-0.126,0-0.251,0-0.409,0c0,0.599,0.008,1.17-0.002,1.74c-0.005,0.362-0.336,0.562-0.619,0.382
		C1.124,10.7,1.065,10.629,1,10.57c0-2.06,0-4.12,0-6.18c0.315-0.918,0.979-1.232,1.92-1.209c1.583,0.039,3.168,0.011,4.752,0.011
		c0.104,0,0.209,0,0.328,0c0-0.251-0.007-0.46,0.001-0.668c0.018-0.538,0.246-0.967,0.696-1.26C8.868,1.151,9.07,1.086,9.258,1
		c0.2,0,0.401,0,0.602,0C9.88,1.016,9.897,1.038,9.921,1.047c0.803,0.272,1.18,0.79,1.186,1.628c0.001,0.167,0,0.336,0,0.499
		c2.144,0,4.241,0,6.362,0c0-0.225-0.01-0.433,0.001-0.641c0.03-0.612,0.311-1.074,0.854-1.364C18.45,1.102,18.587,1.055,18.719,1
		C18.92,1,19.119,1,19.32,1z M19.756,3.597c0-0.337,0.006-0.674-0.002-1.011c-0.01-0.441-0.318-0.761-0.726-0.764
		c-0.406-0.003-0.731,0.314-0.737,0.754c-0.012,0.683-0.011,1.365,0,2.049c0.005,0.449,0.312,0.757,0.726,0.759
		c0.427,0.002,0.729-0.311,0.738-0.776C19.761,4.271,19.756,3.933,19.756,3.597z M10.286,3.608c0-0.318,0-0.637,0-0.956
		c0-0.019,0-0.036-0.001-0.055c-0.022-0.461-0.329-0.782-0.746-0.776C9.12,1.827,8.823,2.152,8.82,2.618
		c-0.005,0.655-0.004,1.311,0,1.966c0.002,0.476,0.286,0.79,0.712,0.798c0.437,0.009,0.74-0.305,0.752-0.791
		C10.291,4.264,10.286,3.936,10.286,3.608z"/>
	<path fill-rule="evenodd" clip-rule="evenodd" d="M1,12.101c0.138-0.182,0.289-0.338,0.546-0.241
		c0.252,0.094,0.276,0.304,0.276,0.536C1.819,16.305,1.82,20.211,1.82,24.119c0,0.646,0.24,0.883,0.894,0.883
		c4.919,0.002,9.838,0,14.758,0c0.082,0,0.164,0,0.246,0.002c0.314,0.004,0.507,0.162,0.502,0.412s-0.197,0.406-0.514,0.406
		c-5.057,0.002-10.111,0.002-15.168-0.002c-0.699,0-1.238-0.398-1.472-1.055C1.049,24.717,1.021,24.67,1,24.625
		C1,20.451,1,16.275,1,12.101z"/>
	<path fill-rule="evenodd" clip-rule="evenodd" d="M27.222,23.813c-0.008,1.891-1.557,3.426-3.436,3.408
		c-1.882-0.016-3.398-1.543-3.394-3.422c0.005-1.891,1.55-3.424,3.434-3.408C25.709,20.406,27.229,21.938,27.222,23.813z
		 M21.215,23.805c0.001,1.434,1.153,2.588,2.584,2.594c1.438,0.008,2.612-1.17,2.601-2.607c-0.011-1.434-1.17-2.582-2.601-2.576
		C22.366,21.219,21.214,22.373,21.215,23.805z"/>
	<path fill-rule="evenodd" clip-rule="evenodd" d="M23.4,23.4c0-0.389-0.011-0.74,0.003-1.094c0.01-0.291,0.235-0.471,0.49-0.408
		c0.2,0.049,0.313,0.189,0.317,0.391c0.009,0.502,0.01,1.004,0.001,1.504c-0.006,0.258-0.154,0.41-0.413,0.418
		c-0.355,0.012-0.711,0.014-1.065,0c-0.268-0.01-0.418-0.174-0.416-0.41c0.003-0.238,0.153-0.387,0.426-0.398
		C22.949,23.391,23.157,23.4,23.4,23.4z"/>
</g>
</svg>
