<?xml version="1.0" encoding="utf-8"?>
<!-- Generator: Adobe Illustrator 16.0.0, SVG Export Plug-In . SVG Version: 6.00 Build 0)  -->
<!DOCTYPE svg PUBLIC "-//W3C//DTD SVG 1.1//EN" "http://www.w3.org/Graphics/SVG/1.1/DTD/svg11.dtd">
<svg version="1.1" id="Layer_1" xmlns="http://www.w3.org/2000/svg" xmlns:xlink="http://www.w3.org/1999/xlink" x="0px" y="0px"
	 width="30px" height="30px" viewBox="0 0 30 30" enable-background="new 0 0 30 30" xml:space="preserve">
<path fill-rule="evenodd" clip-rule="evenodd" d="M28.391,22.302c1.159,1.019,1.646,2.27,1.607,3.761
	c-0.032,1.199-0.007,2.398-0.007,3.598c0,0.108,0,0.217,0,0.339c-5.81,0-11.59,0-17.415,0c0-0.105,0-0.211,0-0.317
	c0-1.179,0.03-2.359-0.007-3.537c-0.048-1.521,0.421-2.808,1.642-3.87c-0.168,0-0.272,0-0.376,0c-4.061,0-8.122,0-12.184,0
	C0.567,22.275,0,21.705,0,20.613C0,14.304,0,7.995,0,1.687c0-1.093,0.565-1.663,1.651-1.663c8.898,0,17.796,0,26.695,0
	c1.071,0,1.646,0.571,1.646,1.639c0,6.288,0,12.577,0,18.865C29.992,21.667,29.56,22.157,28.391,22.302z M0.968,4.861
	c0,0.136,0,0.234,0,0.333c0,5.138,0,10.277,0,15.416c0,0.557,0.14,0.698,0.693,0.698c4.826,0,9.652,0,14.479,0
	c0.08,0,0.166,0.014,0.241-0.007c0.986-0.276,1.972-0.558,2.948-0.835c0.063-0.483,0.01-0.864-0.357-1.245
	c-0.404-0.419-0.702-0.953-0.98-1.474c-0.133-0.25-0.26-0.316-0.52-0.315c-1.15,0.003-1.983-0.831-1.99-1.978
	c-0.005-0.786-0.01-1.572,0.002-2.357c0.008-0.472-0.009-0.956,0.084-1.414C16,9.54,17.266,8.083,19.369,7.492
	c2.118-0.595,3.951,0.016,5.453,1.622c0.086,0.091,0.196,0.173,0.312,0.22c1.224,0.504,1.949,1.568,1.955,2.891
	c0.004,1.027,0.001,2.055,0.001,3.083c-0.001,1.335-0.774,2.116-2.117,2.126c-0.171,0.002-0.268,0.041-0.34,0.212
	c-0.297,0.704-0.73,1.317-1.266,1.862c-0.08,0.082-0.127,0.22-0.141,0.337c-0.023,0.198-0.007,0.4-0.007,0.608
	c0.298,0.087,0.582,0.154,0.855,0.252c1.372,0.49,2.777,0.71,4.236,0.608c0.574-0.04,0.713-0.142,0.713-0.714
	c0-5.451,0-10.902,0-16.353c0-0.108,0-0.216,0-0.354c-0.146,0-0.265,0-0.382,0c-6.207,0-12.413,0.015-18.62-0.019
	C9.228,3.871,8.592,4.001,8.131,4.672C8.016,4.84,7.852,4.865,7.658,4.864C5.552,4.859,3.447,4.861,1.341,4.861
	C1.231,4.861,1.121,4.861,0.968,4.861z M29.023,29.036c0-1.15,0.009-2.268-0.002-3.385c-0.014-1.477-0.956-2.749-2.372-3.196
	c-0.699-0.221-1.409-0.408-2.115-0.61c-0.141-0.041-0.281-0.08-0.441-0.126c-0.163,1.457-0.321,2.873-0.486,4.351
	c-0.807-0.603-1.565-1.171-2.321-1.735c-0.776,0.581-1.523,1.141-2.321,1.738c-0.084-0.761-0.16-1.467-0.239-2.172
	c-0.081-0.717-0.164-1.434-0.249-2.183c-0.811,0.231-1.591,0.455-2.372,0.678c-1.574,0.447-2.553,1.73-2.558,3.364
	c-0.003,0.997,0,1.994,0,2.991c0,0.096,0,0.191,0,0.28c0.669,0,1.29,0,1.943,0c0-1.612,0-3.207,0-4.797c0.339,0,0.645,0,0.971,0
	c0,1.612,0,3.2,0,4.794c3.229,0,6.436,0,9.676,0c0-1.613,0-3.209,0-4.802c0.331,0,0.629,0,0.96,0c0,1.61,0,3.205,0,4.81
	C27.748,29.036,28.368,29.036,29.023,29.036z M0.969,3.894c0.148,0,0.258,0,0.368,0c1.722,0,3.446-0.038,5.167,0.018
	C7.246,3.935,7.834,3.79,8.266,3.168c0.138-0.2,0.329-0.248,0.571-0.248c6.598,0.007,13.195,0.006,19.793,0.006
	c0.126,0,0.253,0,0.394,0c0-0.425,0-0.807,0-1.189c0-0.621-0.123-0.746-0.734-0.746c-8.864,0-17.729,0-26.593,0
	c-0.081,0-0.161-0.004-0.242,0.002C1.167,1.014,0.976,1.186,0.973,1.471C0.963,2.266,0.969,3.06,0.969,3.894z M16.45,13.719
	c0.476-0.053,0.917-0.114,1.361-0.146c0.3-0.022,0.604-0.003,0.906-0.004c1.235-0.006,2.3-0.436,3.182-1.304
	c0.112-0.111,0.194-0.253,0.313-0.412c0.323,0.332,0.571,0.595,0.828,0.848c0.506,0.5,1.121,0.769,1.822,0.857
	c0.413,0.052,0.825,0.117,1.258,0.179c0-0.5,0.008-1.05-0.001-1.6c-0.017-0.9-0.604-1.663-1.46-1.947
	c-0.167-0.056-0.337-0.172-0.452-0.306c-1.117-1.297-2.523-1.867-4.205-1.553c-1.668,0.312-2.779,1.337-3.346,2.938
	C16.367,12.087,16.458,12.939,16.45,13.719z M18.385,14.534c0,0.304-0.014,0.575,0.002,0.843c0.11,1.892,0.988,3.317,2.614,4.289
	c0.205,0.122,0.371,0.118,0.575-0.005c1.979-1.191,2.746-2.979,2.599-5.25c-0.755-0.188-1.394-0.589-1.943-1.135
	C21.108,14.19,19.84,14.585,18.385,14.534z M22.254,20.42c-0.35,0.153-0.661,0.398-0.97,0.396c-0.318-0.004-0.633-0.249-1.021-0.42
	c0.213,0.826,0.678,1.471,1.016,2.257c0.343-0.687,0.653-1.3,0.952-1.92C22.272,20.651,22.248,20.538,22.254,20.42z M19.737,24.284
	c0.346-0.261,0.639-0.479,0.935-0.702c-0.349-0.696-0.679-1.36-1.017-2.021c-0.031-0.063-0.105-0.102-0.16-0.151
	c-0.023,0.014-0.047,0.028-0.069,0.042C19.526,22.373,19.627,23.294,19.737,24.284z M22.834,24.283
	c0.107-0.992,0.208-1.917,0.309-2.842c-0.048-0.016-0.096-0.031-0.144-0.047c-0.366,0.726-0.732,1.45-1.104,2.186
	C22.207,23.812,22.494,24.028,22.834,24.283z M17.501,16.441c-0.04-0.633-0.079-1.264-0.119-1.895
	c-0.607,0.062-1.001,0.526-0.929,1.081C16.522,16.15,16.999,16.514,17.501,16.441z M25.185,14.549
	c-0.04,0.646-0.079,1.271-0.118,1.897c0.54,0.053,1.006-0.326,1.052-0.861C26.165,15.039,25.763,14.59,25.185,14.549z"/>
<path fill-rule="evenodd" clip-rule="evenodd" d="M14.524,8.247c-0.078,1.878,0.168,3.729-0.312,5.543
	c-0.717,2.712-2.275,4.793-4.7,6.204c-0.845,0.491-1.747,0.501-2.587-0.01c-3.2-1.942-4.869-4.795-4.985-8.54
	C1.91,10.478,1.936,9.51,1.935,8.543c0-0.088,0-0.176,0-0.296c0.396,0,0.766-0.002,1.135,0c1.275,0.01,2.326-0.466,3.164-1.43
	c1.162-1.337,2.825-1.33,3.991,0.011c0.822,0.945,1.855,1.419,3.107,1.418C13.713,8.247,14.095,8.247,14.524,8.247z M2.903,9.216
	c0,0.755-0.017,1.47,0.003,2.184c0.091,3.335,1.553,5.895,4.372,7.679c0.624,0.396,1.253,0.386,1.879,0.011
	c1.774-1.062,3.017-2.568,3.789-4.484c0.696-1.727,0.612-3.531,0.589-5.333c0-0.016-0.023-0.031-0.047-0.061
	c-0.099,0-0.209,0.003-0.319,0c-1.468-0.048-2.692-0.618-3.652-1.73C8.718,6.558,7.726,6.557,6.925,7.494
	C6.433,8.069,5.839,8.508,5.144,8.811C4.44,9.117,3.702,9.234,2.903,9.216z"/>
<path fill-rule="evenodd" clip-rule="evenodd" d="M28.05,4.88c0,0.318,0,0.609,0,0.924c-1.598,0-3.191,0-4.809,0
	c0-0.294,0-0.599,0-0.924C24.834,4.88,26.428,4.88,28.05,4.88z"/>
<path fill-rule="evenodd" clip-rule="evenodd" d="M28.042,6.816c0,0.321,0,0.619,0,0.932c-1.278,0-2.543,0-3.832,0
	c0-0.3,0-0.605,0-0.932C25.476,6.816,26.748,6.816,28.042,6.816z"/>
<path fill-rule="evenodd" clip-rule="evenodd" d="M2.879,18.394c-0.313,0-0.611,0-0.926,0c0-0.316,0-0.62,0-0.94
	c0.308,0,0.605,0,0.926,0C2.879,17.753,2.879,18.059,2.879,18.394z"/>
<path fill-rule="evenodd" clip-rule="evenodd" d="M1.958,19.385c0.316,0,0.613,0,0.928,0c0,0.316,0,0.621,0,0.94
	c-0.31,0-0.608,0-0.928,0C1.958,20.023,1.958,19.717,1.958,19.385z"/>
<path fill-rule="evenodd" clip-rule="evenodd" d="M20.815,26.128c0-0.311,0-0.608,0-0.929c0.304,0,0.608,0,0.934,0
	c0,0.302,0,0.606,0,0.929C21.447,26.128,21.149,26.128,20.815,26.128z"/>
<path fill-rule="evenodd" clip-rule="evenodd" d="M21.753,28.068c-0.316,0-0.614,0-0.932,0c0-0.31,0-0.614,0-0.938
	c0.307,0,0.611,0,0.932,0C21.753,27.438,21.753,27.736,21.753,28.068z"/>
<path fill-rule="evenodd" clip-rule="evenodd" d="M2.88,2.914c-0.316,0-0.613,0-0.928,0c0-0.316,0-0.621,0-0.94
	c0.31,0,0.607,0,0.928,0C2.88,2.276,2.88,2.581,2.88,2.914z"/>
<path fill-rule="evenodd" clip-rule="evenodd" d="M3.882,2.903c0-0.315,0-0.613,0-0.928c0.317,0,0.622,0,0.941,0
	c0,0.31,0,0.608,0,0.928C4.52,2.903,4.215,2.903,3.882,2.903z"/>
<path fill-rule="evenodd" clip-rule="evenodd" d="M6.754,2.92c-0.32,0-0.61,0-0.925,0c0-0.309,0-0.614,0-0.94
	c0.296,0,0.601,0,0.925,0C6.754,2.285,6.754,2.589,6.754,2.92z"/>
<path fill-rule="evenodd" clip-rule="evenodd" d="M7.263,17.079c-0.738-0.734-1.486-1.479-2.244-2.233
	c0.203-0.191,0.422-0.397,0.655-0.616c0.495,0.516,1.001,1.043,1.515,1.579c1.703-1.706,3.351-3.356,5.006-5.016
	c0.261,0.261,0.477,0.478,0.676,0.677C10.993,13.35,9.12,15.222,7.263,17.079z"/>
<path fill-rule="evenodd" clip-rule="evenodd" d="M3.874,10.154c1.149-0.169,2.163-0.578,3.058-1.313
	c0.205,0.249,0.4,0.486,0.611,0.742c-0.709,0.592-1.479,1.015-2.338,1.255c-0.296,0.083-0.409,0.201-0.373,0.51
	c0.063,0.527,0.093,1.058,0.141,1.636c-0.259,0.061-0.557,0.13-0.879,0.205C3.817,12.188,3.872,11.187,3.874,10.154z"/>
</svg>
