<?xml version="1.0" standalone="no"?>
<!DOCTYPE svg PUBLIC "-//W3C//DTD SVG 20010904//EN"
 "http://www.w3.org/TR/2001/REC-SVG-20010904/DTD/svg10.dtd">
<svg version="1.0" xmlns="http://www.w3.org/2000/svg"
 width="64.000000pt" height="64.000000pt" viewBox="0 0 64.000000 64.000000"
 preserveAspectRatio="xMidYMid meet">

<g transform="translate(0.000000,64.000000) scale(0.100000,-0.100000)"
fill="#000000" stroke="none">
<path d="M280 559 c-7 -11 -9 -27 -6 -35 4 -11 -6 -14 -48 -14 -85 0 -86 -2
-86 -232 0 -170 2 -197 17 -209 23 -20 303 -20 326 0 15 12 17 39 17 211 0
229 0 230 -88 230 -40 0 -50 3 -46 14 10 26 -15 56 -46 56 -19 0 -33 -7 -40
-21z m58 -22 c2 -12 -3 -17 -17 -17 -12 0 -21 6 -21 13 0 31 32 34 38 4z
m-115 -77 c5 -18 14 -20 97 -20 83 0 92 2 97 20 6 24 48 27 57 4 12 -31 7
-359 -6 -372 -17 -17 -279 -17 -296 0 -13 13 -18 341 -6 372 9 23 51 20 57 -4z
m135 13 c-21 -2 -55 -2 -75 0 -21 2 -4 4 37 4 41 0 58 -2 38 -4z"/>
<path d="M312 378 c6 -16 108 -18 108 -3 0 6 -25 11 -56 13 -43 2 -55 0 -52
-10z"/>
<path d="M315 270 c-3 -5 0 -13 8 -16 23 -8 102 0 102 11 0 14 -102 19 -110 5z"/>
<path d="M310 150 c0 -6 27 -10 60 -10 33 0 60 4 60 10 0 6 -27 10 -60 10 -33
0 -60 -4 -60 -10z"/>
</g>
</svg>
