<?xml version="1.0" encoding="utf-8"?>
<!-- Generator: Adobe Illustrator 16.0.0, SVG Export Plug-In . SVG Version: 6.00 Build 0)  -->
<!DOCTYPE svg PUBLIC "-//W3C//DTD SVG 1.1//EN" "http://www.w3.org/Graphics/SVG/1.1/DTD/svg11.dtd">
<svg version="1.1" id="Layer_1" xmlns="http://www.w3.org/2000/svg" xmlns:xlink="http://www.w3.org/1999/xlink" x="0px" y="0px"
	 width="30px" height="30px" viewBox="0 0 30 30" enable-background="new 0 0 30 30" xml:space="preserve">
<g>
	<path fill-rule="evenodd" clip-rule="evenodd" d="M29,9.804c-0.125,0.208-0.305,0.278-0.549,0.277
		c-6.225-0.005-12.449-0.003-18.675-0.004c-0.414,0-0.543-0.124-0.545-0.533C9.228,8.751,9.229,7.958,9.23,7.166
		c0-0.509,0.097-0.605,0.61-0.605c4.676,0,9.352,0,14.027,0c1.514,0,3.025,0.004,4.539-0.003c0.26-0.001,0.462,0.059,0.594,0.295
		C29,7.836,29,8.82,29,9.804z M10.099,7.463c0,0.618,0,1.205,0,1.787c6.023,0,12.023,0,18.032,0c0-0.603,0-1.19,0-1.787
		C22.112,7.463,16.11,7.463,10.099,7.463z"/>
	<path fill-rule="evenodd" clip-rule="evenodd" d="M4.992,1C5.14,1.041,5.292,1.073,5.435,1.125c0.991,0.366,1.62,1.058,1.734,2.117
		c0.119,1.104-0.397,1.909-1.341,2.456C5.75,5.743,5.669,5.781,5.535,5.85C5.865,5.873,6.14,5.876,6.41,5.915
		c1.169,0.166,2.047,1.14,2.087,2.314c0.015,0.474,0.01,0.947,0.005,1.421c-0.003,0.325-0.142,0.473-0.466,0.474
		c-2.187,0.003-4.374,0.007-6.56-0.01C1.316,10.112,1.158,9.948,1,9.859C1,9.239,1,8.62,1,8c0.016-0.042,0.038-0.083,0.047-0.125
		c0.243-1.104,1.037-1.833,2.159-1.98C3.377,5.873,3.55,5.87,3.775,5.854C3.606,5.767,3.492,5.712,3.382,5.648
		C1.848,4.76,1.662,2.72,3.009,1.586C3.38,1.272,3.825,1.126,4.281,1C4.519,1,4.755,1,4.992,1z M1.882,9.25c1.914,0,3.813,0,5.727,0
		c0-0.38,0.03-0.746-0.006-1.104C7.521,7.357,6.861,6.751,6.074,6.738C5.172,6.724,4.269,6.723,3.367,6.74
		C2.648,6.753,1.992,7.304,1.892,8.009C1.834,8.409,1.882,8.823,1.882,9.25z M2.958,3.505c0,0.901,0.765,1.65,1.688,1.651
		C5.563,5.157,6.339,4.407,6.348,3.51c0.009-0.918-0.758-1.663-1.705-1.657C3.711,1.86,2.958,2.599,2.958,3.505z"/>
	<path fill-rule="evenodd" clip-rule="evenodd" d="M1.492,29c-0.215-0.118-0.289-0.299-0.281-0.543
		c0.017-0.519-0.031-1.043,0.029-1.555c0.138-1.174,1.063-2.026,2.247-2.131c0.139-0.014,0.278-0.023,0.445-0.037
		c-1.435-0.969-1.875-1.887-1.504-3.096c0.321-1.045,1.353-1.783,2.468-1.762c1.129,0.021,2.119,0.785,2.42,1.867
		c0.324,1.163-0.157,2.115-1.538,2.99c0.266,0.016,0.496,0.021,0.724,0.043c1.232,0.115,2.182,1.131,2.21,2.371
		c0.01,0.435-0.006,0.875,0.008,1.31C8.729,28.703,8.655,28.884,8.438,29C6.122,29,3.808,29,1.492,29z M7.825,28.148
		c0-0.391,0.025-0.738-0.005-1.08c-0.074-0.814-0.736-1.443-1.54-1.455c-0.891-0.016-1.783-0.016-2.675,0
		c-0.776,0.012-1.425,0.605-1.52,1.379c-0.034,0.279-0.007,0.563-0.034,0.844c-0.024,0.253,0.068,0.32,0.317,0.318
		c1.719-0.011,3.439-0.006,5.159-0.006C7.619,28.148,7.708,28.148,7.825,28.148z M4.874,20.734
		c-0.933-0.004-1.694,0.725-1.705,1.631c-0.009,0.902,0.746,1.656,1.67,1.663c0.937,0.011,1.717-0.739,1.719-1.647
		C6.56,21.468,5.812,20.738,4.874,20.734z"/>
	<path fill-rule="evenodd" clip-rule="evenodd" d="M9.75,29c-0.201-0.129-0.275-0.311-0.272-0.551
		c0.01-0.813,0.002-1.623,0.004-2.434c0.001-0.396,0.129-0.531,0.519-0.531c3.572-0.002,7.144-0.002,10.714,0
		c0.381,0,0.518,0.146,0.52,0.537c0.002,0.81-0.006,1.621,0.004,2.432c0.004,0.244-0.068,0.424-0.277,0.547
		C17.223,29,13.487,29,9.75,29z M20.372,26.341c-3.348,0-6.678,0-10.017,0c0,0.604,0,1.191,0,1.788c3.347,0,6.675,0,10.017,0
		C20.372,27.523,20.372,26.935,20.372,26.341z"/>
	<path fill-rule="evenodd" clip-rule="evenodd" d="M17.075,19.539c-2.332,0-4.664,0-6.996,0c-0.481,0-0.597-0.115-0.598-0.594
		c0-0.791-0.001-1.584,0-2.377c0.001-0.413,0.126-0.547,0.533-0.547c4.718-0.001,9.437-0.001,14.156,0
		c0.402,0,0.545,0.142,0.547,0.542c0.004,0.81,0.004,1.62,0,2.433c0,0.42-0.133,0.543-0.565,0.543
		C21.793,19.539,19.434,19.539,17.075,19.539z M23.851,16.88c-4.515,0-9.001,0-13.496,0c0,0.604,0,1.191,0,1.783
		c4.509,0,9.001,0,13.496,0C23.851,18.06,23.851,17.48,23.851,16.88z"/>
	<path fill-rule="evenodd" clip-rule="evenodd" d="M3.856,15.274c-1.42-0.927-1.887-1.892-1.514-3.088
		c0.338-1.081,1.385-1.817,2.518-1.769c1.158,0.049,2.129,0.844,2.396,1.968c0.208,0.872-0.046,2.134-1.536,2.905
		c0.1,0,0.201,0,0.301,0.001c1.583,0.013,2.614,1.047,2.62,2.627c0,0.373,0.005,0.746-0.002,1.121
		c-0.007,0.357-0.146,0.496-0.501,0.498c-2.168,0.002-4.336,0.002-6.505,0c-0.339,0-0.497-0.127-0.503-0.438
		c-0.011-0.5-0.027-1.004,0.012-1.502c0.104-1.293,1.023-2.186,2.323-2.293C3.586,15.295,3.708,15.286,3.856,15.274z M7.736,18.716
		c0-0.355,0.012-0.684-0.002-1.01c-0.036-0.834-0.703-1.495-1.539-1.509c-0.893-0.015-1.787-0.018-2.679,0.003
		c-0.675,0.017-1.149,0.376-1.415,0.988c-0.214,0.494-0.098,1.016-0.117,1.527C3.917,18.716,5.81,18.716,7.736,18.716z
		 M4.765,14.569c0.957,0.004,1.705-0.72,1.705-1.649c0-0.918-0.737-1.642-1.678-1.647c-0.938-0.005-1.713,0.742-1.712,1.653
		C3.08,13.839,3.824,14.565,4.765,14.569z"/>
	<path fill-rule="evenodd" clip-rule="evenodd" d="M18.942,4.511c0-0.319-0.004-0.637,0.002-0.955
		c0.006-0.301,0.152-0.467,0.408-0.476c0.27-0.009,0.439,0.158,0.443,0.472c0.008,0.646,0.008,1.291,0,1.936
		c-0.004,0.311-0.178,0.485-0.441,0.477c-0.268-0.009-0.408-0.176-0.412-0.499C18.94,5.147,18.942,4.829,18.942,4.511z"/>
	<path fill-rule="evenodd" clip-rule="evenodd" d="M19.754,23.39c0,0.326,0.004,0.651-0.002,0.979
		c-0.006,0.3-0.158,0.465-0.414,0.472c-0.26,0.006-0.432-0.154-0.436-0.451c-0.01-0.663-0.01-1.326,0-1.989
		c0.006-0.288,0.186-0.454,0.441-0.444c0.246,0.01,0.4,0.171,0.406,0.451C19.76,22.736,19.752,23.062,19.754,23.39z"/>
	<path fill-rule="evenodd" clip-rule="evenodd" d="M14.495,4.523c0,0.319,0.006,0.639-0.002,0.957
		c-0.006,0.314-0.176,0.494-0.436,0.483c-0.259-0.009-0.417-0.195-0.418-0.504c-0.002-0.619-0.003-1.24,0-1.859
		c0.002-0.344,0.147-0.518,0.424-0.52c0.278-0.002,0.426,0.17,0.432,0.514C14.499,3.904,14.495,4.213,14.495,4.523z"/>
	<path fill-rule="evenodd" clip-rule="evenodd" d="M21.403,4.534c0-0.328-0.004-0.656,0.001-0.984c0.007-0.3,0.159-0.465,0.419-0.47
		c0.262-0.004,0.428,0.155,0.432,0.455c0.01,0.656,0.01,1.313,0,1.968c-0.004,0.295-0.178,0.467-0.43,0.46
		c-0.25-0.007-0.416-0.188-0.421-0.473C21.399,5.172,21.403,4.854,21.403,4.534z"/>
	<path fill-rule="evenodd" clip-rule="evenodd" d="M10.965,23.421c0-0.326-0.005-0.654,0.001-0.98
		c0.007-0.314,0.167-0.488,0.432-0.484c0.264,0.004,0.419,0.178,0.422,0.494c0.005,0.637,0.005,1.271,0,1.908
		c-0.003,0.314-0.162,0.484-0.431,0.482c-0.267-0.004-0.416-0.171-0.422-0.492C10.96,24.041,10.965,23.73,10.965,23.421z"/>
	<path fill-rule="evenodd" clip-rule="evenodd" d="M17.125,23.404c0,0.318,0.004,0.637-0.002,0.955
		c-0.006,0.316-0.162,0.484-0.432,0.482c-0.268-0.002-0.42-0.172-0.422-0.492c-0.006-0.637-0.006-1.271,0-1.908
		c0.002-0.314,0.166-0.488,0.432-0.484c0.264,0.004,0.416,0.178,0.422,0.494C17.129,22.769,17.125,23.084,17.125,23.404z"/>
	<path fill-rule="evenodd" clip-rule="evenodd" d="M17.125,4.528c0,0.319,0.004,0.638-0.002,0.957
		c-0.006,0.303-0.16,0.474-0.412,0.479c-0.26,0.005-0.439-0.185-0.441-0.481c-0.006-0.638-0.006-1.276,0-1.914
		c0.002-0.322,0.158-0.49,0.428-0.489c0.27,0,0.42,0.169,0.426,0.491C17.129,3.89,17.125,4.208,17.125,4.528z"/>
	<path fill-rule="evenodd" clip-rule="evenodd" d="M11.01,4.517c0-0.327-0.005-0.654,0.002-0.981
		c0.006-0.282,0.154-0.443,0.401-0.455c0.262-0.012,0.44,0.147,0.445,0.438c0.011,0.663,0.01,1.327,0.001,1.991
		c-0.004,0.292-0.179,0.46-0.433,0.455c-0.261-0.005-0.413-0.171-0.417-0.466C11.007,5.171,11.01,4.844,11.01,4.517z"/>
	<path fill-rule="evenodd" clip-rule="evenodd" d="M14.45,23.394c0,0.326,0.005,0.654-0.002,0.98
		c-0.006,0.296-0.16,0.463-0.417,0.467c-0.259,0.004-0.426-0.158-0.43-0.455c-0.009-0.662-0.009-1.326,0.001-1.988
		c0.004-0.279,0.172-0.439,0.417-0.441c0.257-0.004,0.423,0.164,0.429,0.457C14.456,22.74,14.45,23.066,14.45,23.394z"/>
	<path fill-rule="evenodd" clip-rule="evenodd" d="M14.114,13.937c0-0.328-0.004-0.655,0.002-0.983
		c0.006-0.295,0.168-0.463,0.424-0.458c0.25,0.004,0.408,0.167,0.41,0.445c0.006,0.674,0.006,1.348,0.002,2.021
		c-0.004,0.283-0.182,0.466-0.43,0.463c-0.244-0.003-0.4-0.17-0.406-0.45C14.11,14.629,14.114,14.283,14.114,13.937z"/>
	<path fill-rule="evenodd" clip-rule="evenodd" d="M19.417,13.933c0-0.328-0.004-0.655,0.002-0.983
		c0.006-0.293,0.172-0.461,0.43-0.455c0.248,0.007,0.404,0.169,0.406,0.449c0.004,0.673,0.006,1.347,0,2.021
		c-0.002,0.28-0.186,0.464-0.434,0.459c-0.242-0.006-0.396-0.171-0.402-0.453C19.413,14.625,19.418,14.279,19.417,13.933z"/>
	<path fill-rule="evenodd" clip-rule="evenodd" d="M22.716,13.948c0,0.328,0.003,0.656-0.001,0.984
		c-0.004,0.305-0.17,0.494-0.426,0.493c-0.252-0.001-0.408-0.173-0.41-0.474c-0.006-0.665-0.006-1.329,0-1.994
		c0.002-0.296,0.164-0.464,0.422-0.461c0.256,0.002,0.41,0.17,0.414,0.469C22.721,13.292,22.716,13.62,22.716,13.948z"/>
	<path fill-rule="evenodd" clip-rule="evenodd" d="M12.324,13.948c0,0.337,0.004,0.674-0.001,1.011
		c-0.005,0.282-0.181,0.467-0.428,0.466c-0.243-0.001-0.406-0.167-0.409-0.447c-0.006-0.683-0.007-1.365,0.001-2.048
		c0.003-0.276,0.172-0.437,0.421-0.434c0.249,0.002,0.408,0.165,0.414,0.442C12.329,13.274,12.323,13.611,12.324,13.948z"/>
	<path fill-rule="evenodd" clip-rule="evenodd" d="M17.627,13.96c0,0.328,0.004,0.656-0.002,0.984
		c-0.004,0.287-0.166,0.472-0.412,0.48c-0.254,0.009-0.422-0.163-0.426-0.459c-0.006-0.674-0.006-1.348,0-2.021
		c0.004-0.282,0.16-0.442,0.408-0.448c0.258-0.006,0.424,0.163,0.43,0.454C17.631,13.287,17.627,13.624,17.627,13.96z"/>
	<path fill-rule="evenodd" clip-rule="evenodd" d="M23.911,4.515c0-0.327-0.005-0.654,0.002-0.98
		c0.006-0.292,0.166-0.458,0.428-0.454c0.252,0.004,0.406,0.155,0.41,0.441c0.008,0.671,0.008,1.344-0.002,2.016
		c-0.004,0.272-0.18,0.433-0.426,0.427c-0.253-0.006-0.406-0.167-0.41-0.441C23.909,5.187,23.911,4.851,23.911,4.515z"/>
	<path fill-rule="evenodd" clip-rule="evenodd" d="M26.372,4.5c0-0.328-0.005-0.656,0.002-0.984
		c0.006-0.275,0.168-0.436,0.417-0.437c0.255,0,0.417,0.154,0.419,0.435c0.008,0.674,0.008,1.348,0,2.022
		c-0.004,0.273-0.187,0.438-0.428,0.426c-0.244-0.011-0.404-0.184-0.408-0.452C26.367,5.175,26.372,4.837,26.372,4.5z"/>
</g>
</svg>
