<?xml version="1.0" encoding="utf-8"?>
<!-- Generator: Adobe Illustrator 16.0.0, SVG Export Plug-In . SVG Version: 6.00 Build 0)  -->
<!DOCTYPE svg PUBLIC "-//W3C//DTD SVG 1.1//EN" "http://www.w3.org/Graphics/SVG/1.1/DTD/svg11.dtd">
<svg version="1.1" id="Layer_1" xmlns="http://www.w3.org/2000/svg" xmlns:xlink="http://www.w3.org/1999/xlink" x="0px" y="0px"
	 width="30px" height="30px" viewBox="0 0 30 30" enable-background="new 0 0 30 30" xml:space="preserve">
<path fill-rule="evenodd" clip-rule="evenodd" d="M24.297,29c-6.2,0-12.396,0-18.594,0c-0.051-0.02-0.098-0.046-0.149-0.053
	c-2.191-0.321-3.854-1.814-4.399-3.967C1.098,24.755,1.052,24.524,1,24.296c0-6.2,0-12.396,0-18.594
	c0.017-0.051,0.043-0.098,0.052-0.149C1.373,3.362,2.871,1.7,5.02,1.154C5.248,1.097,5.475,1.051,5.704,1c6.197,0,12.394,0,18.594,0
	c0.051,0.017,0.102,0.043,0.147,0.052c2.196,0.32,3.854,1.818,4.399,3.967C28.902,5.247,28.949,5.474,29,5.703
	c0,6.197,0,12.394,0,18.594c-0.02,0.051-0.046,0.102-0.053,0.153c-0.321,2.19-1.814,3.848-3.967,4.394
	C24.756,28.901,24.525,28.948,24.297,29z M14.975,17.432c0.134,0.146,0.193,0.225,0.268,0.299c1.13,1.131,2.267,2.27,3.398,3.399
	c0.397,0.397,0.79,0.396,1.19-0.003c0.422-0.42,0.85-0.849,1.271-1.271c0.432-0.433,0.431-0.813-0.004-1.249
	c-1.126-1.126-2.253-2.258-3.385-3.384c-0.066-0.069-0.136-0.141-0.208-0.222c0.073-0.083,0.144-0.154,0.21-0.224
	c1.146-1.147,2.295-2.294,3.44-3.443c0.355-0.356,0.355-0.773,0.002-1.13c-0.436-0.44-0.874-0.877-1.313-1.314
	c-0.421-0.423-0.8-0.424-1.227-0.002c-1.13,1.134-2.26,2.269-3.397,3.402c-0.067,0.069-0.142,0.134-0.27,0.25
	c-0.064-0.096-0.113-0.189-0.18-0.259c-1.14-1.141-2.282-2.284-3.421-3.422c-0.382-0.381-0.781-0.38-1.165,0.001
	C9.751,9.29,9.322,9.723,8.89,10.157c-0.421,0.422-0.421,0.801,0.001,1.224c1.133,1.135,2.268,2.268,3.401,3.403
	c0.069,0.069,0.134,0.144,0.242,0.257c-0.099,0.072-0.186,0.124-0.256,0.194c-1.135,1.133-2.27,2.27-3.403,3.402
	c-0.395,0.392-0.397,0.794-0.01,1.184c0.433,0.434,0.863,0.867,1.297,1.299c0.411,0.408,0.801,0.41,1.205,0.004
	c1.135-1.137,2.269-2.268,3.405-3.399C14.838,17.65,14.888,17.561,14.975,17.432z"/>
</svg>
