<?xml version="1.0" encoding="utf-8"?>
<!-- Generator: Adobe Illustrator 16.0.0, SVG Export Plug-In . SVG Version: 6.00 Build 0)  -->
<!DOCTYPE svg PUBLIC "-//W3C//DTD SVG 1.1//EN" "http://www.w3.org/Graphics/SVG/1.1/DTD/svg11.dtd">
<svg version="1.1" id="Layer_1" xmlns="http://www.w3.org/2000/svg" xmlns:xlink="http://www.w3.org/1999/xlink" x="0px" y="0px"
	 width="30px" height="30px" viewBox="0 0 30 30" enable-background="new 0 0 30 30" xml:space="preserve">
<path fill-rule="evenodd" clip-rule="evenodd" d="M18.579,1c0.507,0.119,0.999,0.269,1.416,0.6c0.71,0.563,1.121,1.285,1.16,2.195
	c0.021,0.499,0.003,0.998,0.003,1.531c0.133,0,0.229,0,0.326,0c1.12,0,2.241,0,3.361,0c1.248,0.002,2.045,0.803,2.048,2.054
	c0.001,0.519,0.003,1.038-0.002,1.557c-0.006,0.613-0.413,1.025-1.024,1.043c-0.181,0.005-0.363,0-0.573,0
	c-0.028,0.39-0.059,0.76-0.081,1.13c-0.153,2.454-0.303,4.908-0.459,7.363c-0.174,2.752-0.34,5.507-0.537,8.26
	c-0.081,1.119-0.889,1.979-1.985,2.215c-0.052,0.013-0.102,0.034-0.151,0.053c-4.12,0-8.24,0-12.36,0
	c-0.181-0.057-0.369-0.097-0.543-0.17c-0.916-0.379-1.499-1.052-1.586-2.045c-0.139-1.563-0.219-3.127-0.318-4.69
	c-0.102-1.601-0.197-3.201-0.295-4.802C6.974,17.24,6.968,17.185,6.97,17.13c0.005-0.248,0.146-0.412,0.366-0.432
	c0.217-0.021,0.407,0.116,0.436,0.358c0.042,0.361,0.059,0.726,0.081,1.091c0.171,2.754,0.339,5.511,0.515,8.265
	c0.073,1.154,0.737,1.767,1.893,1.767c3.763,0,7.527,0.002,11.292,0c1.138,0,1.806-0.61,1.88-1.75
	c0.158-2.455,0.305-4.911,0.458-7.364c0.174-2.747,0.352-5.493,0.526-8.239c0.017-0.271,0.025-0.541,0.039-0.828
	c-5.708,0-11.39,0-17.11,0c0.014,0.284,0.023,0.562,0.04,0.839c0.088,1.428,0.184,2.854,0.262,4.283
	c0.008,0.149-0.04,0.338-0.135,0.44c-0.075,0.083-0.288,0.119-0.393,0.072C7.001,15.581,6.88,15.42,6.86,15.291
	c-0.056-0.358-0.063-0.724-0.085-1.088c-0.08-1.3-0.158-2.601-0.238-3.901C6.53,10.203,6.513,10.105,6.499,9.98
	c-0.216,0-0.415,0.007-0.613-0.002C5.322,9.954,4.917,9.54,4.909,8.972C4.901,8.417,4.904,7.861,4.907,7.305
	C4.913,6.15,5.732,5.333,6.895,5.328c1.139-0.004,2.278-0.001,3.417-0.001c0.097,0,0.194,0,0.321,0c0-0.422,0-0.812,0-1.201
	c0.004-1.649,0.896-2.744,2.515-3.089C13.173,1.031,13.196,1.013,13.22,1C15.006,1,16.793,1,18.579,1z M15.901,9.162
	c3.262,0,6.524,0,9.786,0c0.369,0,0.385-0.017,0.386-0.388c0.001-0.455,0-0.912,0-1.367c-0.001-0.835-0.425-1.259-1.262-1.259
	c-2.815,0-5.632,0-8.447,0c-3.144,0-6.288,0-9.433,0.001c-0.762,0-1.202,0.443-1.204,1.206c-0.001,0.465,0,0.93,0,1.394
	c0,0.406,0.007,0.415,0.413,0.415C9.394,9.162,12.646,9.162,15.901,9.162z M20.339,5.315c0-0.502,0.018-0.984-0.003-1.464
	c-0.045-1.123-0.947-2.015-2.069-2.026c-1.576-0.015-3.152-0.012-4.728,0c-0.913,0.006-1.769,0.602-1.97,1.487
	c-0.146,0.642-0.111,1.325-0.157,1.997c0.486,0,0.89,0,1.314,0c0-0.463-0.004-0.909,0.001-1.354
	c0.005-0.374,0.182-0.675,0.534-0.778c0.277-0.081,0.591-0.074,0.885-0.053c0.216,0.015,0.324,0.203,0.304,0.418
	c-0.02,0.213-0.149,0.351-0.374,0.363c-0.17,0.01-0.34,0.002-0.514,0.002c0,0.496,0,0.947,0,1.4c1.568,0,3.12,0,4.67,0
	c0-0.469,0-0.919,0-1.396c-0.126,0-0.234,0-0.342,0c-0.684,0-1.366,0.004-2.049-0.004c-0.244-0.003-0.405-0.167-0.415-0.386
	c-0.009-0.213,0.149-0.389,0.383-0.424c0.045-0.007,0.091-0.006,0.137-0.006c0.729,0,1.458-0.005,2.187,0.001
	c0.597,0.005,0.937,0.359,0.939,0.963c0.002,0.417,0,0.833,0,1.259C19.503,5.315,19.902,5.315,20.339,5.315z"/>
<path fill-rule="evenodd" clip-rule="evenodd" d="M10.688,11.057c0.73-0.002,1.304,0.522,1.37,1.289
	c0.159,1.843,0.301,3.687,0.453,5.528c0.155,1.897,0.314,3.795,0.471,5.692c0.057,0.689,0.12,1.378,0.168,2.069
	c0.052,0.742-0.508,1.398-1.224,1.454c-0.791,0.063-1.436-0.474-1.5-1.256c-0.24-2.896-0.476-5.791-0.715-8.688
	c-0.118-1.435-0.246-2.868-0.356-4.303c-0.021-0.268-0.026-0.553,0.039-0.81C9.541,11.441,10.078,11.059,10.688,11.057z
	 M10.15,12.494c0.086,1.061,0.165,2.051,0.246,3.041c0.157,1.915,0.315,3.831,0.474,5.745c0.124,1.489,0.246,2.979,0.374,4.466
	c0.031,0.354,0.273,0.556,0.6,0.526c0.3-0.027,0.511-0.284,0.485-0.616c-0.071-0.917-0.15-1.833-0.226-2.75
	c-0.157-1.896-0.313-3.794-0.469-5.691c-0.131-1.597-0.258-3.195-0.392-4.793c-0.025-0.309-0.219-0.511-0.485-0.541
	c-0.251-0.027-0.484,0.103-0.565,0.336C10.154,12.326,10.156,12.448,10.15,12.494z"/>
<path fill-rule="evenodd" clip-rule="evenodd" d="M14.532,19.072c0-2.213-0.003-4.426,0.002-6.639c0.001-0.571,0.27-1,0.783-1.245
	c0.492-0.234,0.979-0.177,1.416,0.153c0.363,0.276,0.532,0.658,0.533,1.115c0,1.029,0,2.058,0,3.088
	c0,3.378,0.002,6.758-0.002,10.138c-0.001,0.991-0.898,1.654-1.807,1.347c-0.566-0.193-0.924-0.707-0.925-1.344
	C14.531,23.48,14.532,21.276,14.532,19.072z M15.353,19.074c0,1.567,0,3.136,0,4.703c0,0.638-0.005,1.277,0.002,1.914
	c0.004,0.397,0.295,0.646,0.658,0.574c0.284-0.053,0.433-0.279,0.433-0.664c0.001-4.348,0.001-8.694,0-13.043
	c0-0.072,0.005-0.146-0.008-0.218c-0.051-0.309-0.331-0.507-0.639-0.455c-0.288,0.049-0.446,0.278-0.446,0.655
	C15.352,14.717,15.353,16.897,15.353,19.074z"/>
<path fill-rule="evenodd" clip-rule="evenodd" d="M22.464,12.593c-0.115,1.41-0.232,2.862-0.353,4.315
	c-0.137,1.67-0.275,3.342-0.414,5.012c-0.109,1.325-0.212,2.652-0.331,3.976c-0.066,0.728-0.722,1.247-1.475,1.197
	c-0.709-0.047-1.286-0.68-1.243-1.409c0.054-0.891,0.138-1.78,0.215-2.67c0.024-0.281,0.195-0.434,0.438-0.421
	c0.254,0.013,0.396,0.186,0.374,0.497c-0.062,0.837-0.134,1.672-0.203,2.507c-0.033,0.397,0.182,0.674,0.531,0.678
	c0.304,0.004,0.521-0.191,0.55-0.523c0.094-1.042,0.179-2.087,0.266-3.131c0.157-1.916,0.316-3.832,0.473-5.748
	c0.118-1.442,0.238-2.886,0.35-4.331c0.028-0.368-0.143-0.606-0.434-0.656c-0.346-0.059-0.621,0.173-0.654,0.563
	c-0.095,1.116-0.185,2.232-0.275,3.351c-0.147,1.788-0.293,3.576-0.44,5.364c-0.023,0.275-0.198,0.439-0.436,0.425
	c-0.246-0.015-0.403-0.208-0.381-0.501c0.091-1.163,0.189-2.326,0.284-3.487c0.141-1.716,0.288-3.432,0.423-5.148
	c0.063-0.822,0.604-1.388,1.357-1.394C21.909,11.05,22.495,11.685,22.464,12.593z"/>
</svg>
