<?xml version="1.0" encoding="utf-8"?>
<!-- Generator: Adobe Illustrator 16.0.0, SVG Export Plug-In . SVG Version: 6.00 Build 0)  -->
<!DOCTYPE svg PUBLIC "-//W3C//DTD SVG 1.1//EN" "http://www.w3.org/Graphics/SVG/1.1/DTD/svg11.dtd">
<svg version="1.1" id="Layer_1" xmlns="http://www.w3.org/2000/svg" xmlns:xlink="http://www.w3.org/1999/xlink" x="0px" y="0px"
	 width="30px" height="30px" viewBox="0 0 30 30" enable-background="new 0 0 30 30" xml:space="preserve">
<path fill-rule="evenodd" clip-rule="evenodd" d="M4.677,8.243c-0.119-0.548-0.025-1.01,0.239-1.451
	c0.057-0.093,0.04-0.248,0.02-0.368c-0.098-0.572-0.285-1.14-0.299-1.713C4.588,2.685,6.22,1.042,8.249,1.024
	c1.165-0.01,2.331-0.006,3.496,0c2.45,0.011,4.161,2.204,3.587,4.591c-0.031,0.128-0.06,0.256-0.099,0.381
	c-0.123,0.388-0.17,0.737,0.06,1.142c0.166,0.291,0.132,0.697,0.196,1.105c0.032,0,0.14,0,0.247,0c3.892,0,7.784,0.017,11.674-0.012
	c1.009-0.008,1.596,0.67,1.591,1.58c-0.021,4.671-0.008,9.343-0.008,14.015c0,1.03-0.535,1.564-1.562,1.564
	c-2.679,0.001-5.359,0.001-8.038,0.001c-0.111,0-0.222,0-0.354,0c-0.169,1.175-0.705,2.123-1.649,2.821
	c-0.727,0.537-1.55,0.792-2.451,0.789c-1.627-0.009-3.618-1.172-3.999-3.61c-0.103,0-0.212,0-0.321,0
	c-2.688,0-5.377-0.017-8.064,0.01c-0.875,0.01-1.559-0.581-1.554-1.557c0.024-4.69,0.011-9.381,0.011-14.071
	c0-1.006,0.522-1.529,1.525-1.53C3.241,8.242,3.944,8.243,4.677,8.243z M6.47,9.635C6.45,9.652,6.43,9.669,6.41,9.687
	C6.047,9.527,5.686,9.364,5.321,9.21C5.23,9.172,5.126,9.148,5.028,9.148C4.21,9.143,3.393,9.145,2.575,9.146
	c-0.544,0-0.66,0.116-0.66,0.659c0,4.672,0,9.345,0,14.016c0,0.542,0.123,0.667,0.657,0.667c2.688,0,5.377,0,8.065,0
	c0.102,0,0.202,0,0.319,0c0.138-0.994,0.547-1.833,1.267-2.506c0.728-0.679,1.591-1.053,2.588-1.1
	c0.882-0.04,1.694,0.183,2.426,0.677c1.04,0.699,1.62,1.692,1.805,2.916c0.063,0.007,0.102,0.013,0.137,0.013
	c2.792,0,5.584,0.001,8.377,0c0.376,0,0.534-0.183,0.534-0.601c0.001-4.719,0.001-9.438,0-14.157c0-0.428-0.155-0.584-0.573-0.584
	c-4.164-0.001-8.329-0.001-12.494,0.002c-0.088,0-0.184,0.02-0.266,0.055c-0.374,0.158-0.743,0.324-1.114,0.488
	c-0.013-0.023-0.025-0.046-0.039-0.069c-0.034,0.134-0.069,0.269-0.111,0.433c1.264,0,2.501,0,3.744,0c0,3.319,0,6.61,0,9.905
	c-4.813,0-9.602,0-14.398,0c0-3.31,0-6.602,0-9.919c1.248,0,2.474,0,3.725,0C6.527,9.887,6.499,9.761,6.47,9.635z M5.466,19.047
	c3.091,0,6.081,0,9.077,0c0-0.963,0.038-1.905-0.009-2.843c-0.061-1.229-0.637-2.198-1.664-2.888
	c-0.079-0.053-0.168-0.092-0.271-0.148c-0.141,1.252-0.276,2.46-0.412,3.667c-0.028,0.019-0.057,0.034-0.085,0.051
	c-0.688-0.71-1.375-1.419-2.089-2.156c-0.718,0.719-1.407,1.41-2.131,2.133c-0.139-1.244-0.275-2.457-0.417-3.711
	c-0.942,0.547-1.64,1.279-1.792,2.296C5.498,16.626,5.527,17.836,5.466,19.047z M11.844,24.939c0.001,1.74,1.417,3.16,3.154,3.16
	c1.73,0,3.162-1.433,3.161-3.163c-0.002-1.735-1.424-3.154-3.164-3.154C13.253,21.783,11.843,23.195,11.844,24.939z M14.291,6.032
	c0.056-0.22,0.129-0.48,0.188-0.744c0.379-1.695-0.891-3.33-2.623-3.357C10.644,1.912,9.43,1.903,8.219,1.934
	C7.109,1.961,6.297,2.508,5.795,3.498C5.362,4.351,5.512,5.21,5.802,6.084c0.119-0.027,0.236-0.08,0.352-0.075
	C6.382,6.018,6.46,5.915,6.53,5.702c0.208-0.636,0.655-1.036,1.313-1.189c0.162-0.037,0.326-0.059,0.483-0.086
	C8.29,4.188,8.256,3.973,8.223,3.75c0.331,0,0.617,0,0.899,0c0.104,0.648,0.398,0.943,1.032,1.022
	c0.494,0.062,0.99,0.107,1.486,0.148c0.488,0.041,0.988,0.12,1.308,0.503C13.299,5.844,13.68,6.108,14.291,6.032z M7.33,7.756
	C7.331,7.756,7.331,7.756,7.33,7.756c0.001,0.47-0.006,0.94,0.002,1.41c0.018,0.991,0.783,1.761,1.778,1.782
	c0.61,0.012,1.221,0.011,1.833,0c0.981-0.017,1.759-0.758,1.794-1.741c0.027-0.779,0.017-1.56,0.002-2.34
	c-0.01-0.533-0.36-0.919-0.889-1.007c-0.296-0.049-0.599-0.053-0.895-0.1c-0.544-0.085-1.112-0.115-1.62-0.305
	C9,5.33,8.707,5.279,8.374,5.343C8.308,5.355,8.243,5.36,8.178,5.369c-0.531,0.07-0.84,0.412-0.846,0.949
	C7.325,6.797,7.33,7.276,7.33,7.756z M16.348,10.98c-0.051-0.014-0.076-0.027-0.103-0.027c-1.053-0.001-2.104-0.002-3.156-0.001
	c-0.054,0-0.12,0.001-0.161,0.03c-0.402,0.279-0.801,0.563-1.233,0.87c0.093,0.033,0.203,0.083,0.318,0.112
	c1.832,0.471,3.222,2.035,3.388,3.916c0.084,0.942,0.039,1.896,0.051,2.843c0.002,0.108,0,0.218,0,0.325c0.323,0,0.606,0,0.896,0
	C16.348,16.349,16.348,13.674,16.348,10.98z M3.742,10.951c0,2.728,0,5.417,0,8.104c0.301,0,0.578,0,0.879,0
	c0-0.119,0-0.223,0-0.323c0.001-0.817-0.005-1.635,0.004-2.452c0.009-0.95,0.313-1.809,0.871-2.572
	c0.656-0.896,1.527-1.483,2.608-1.756c0.096-0.025,0.185-0.081,0.251-0.111c-0.42-0.297-0.799-0.565-1.18-0.829
	c-0.05-0.034-0.118-0.058-0.179-0.058C5.918,10.95,4.839,10.951,3.742,10.951z M10.034,13.354c0.275-0.367,0.541-0.704,0.786-1.055
	c0.125-0.179-0.03-0.442-0.247-0.445c-0.356-0.003-0.712-0.003-1.068,0c-0.242,0.002-0.387,0.265-0.246,0.463
	C9.501,12.659,9.759,12.989,10.034,13.354z M6.41,8.682c0-0.601,0-1.188,0-1.774C5.924,6.913,5.552,7.263,5.528,7.725
	C5.5,8.244,5.836,8.621,6.41,8.682z M13.662,6.9c0,0.603,0,1.188,0,1.776c0.514-0.033,0.88-0.4,0.886-0.879
	C14.554,7.322,14.188,6.94,13.662,6.9z M9.406,14.056c-0.413-0.689-0.859-1.21-1.064-1.212c0.075,0.677,0.151,1.351,0.225,2.014
	C8.855,14.582,9.13,14.319,9.406,14.056z M11.503,14.858c0.073-0.683,0.146-1.359,0.219-2.035c-0.04-0.017-0.08-0.034-0.12-0.05
	c-0.32,0.424-0.64,0.849-0.938,1.245C10.953,14.307,11.22,14.575,11.503,14.858z"/>
<path fill-rule="evenodd" clip-rule="evenodd" d="M27.171,10.067c0,1.492,0,2.973,0,4.474c-2.993,0-5.976,0-8.985,0
	c0-1.48,0-2.967,0-4.474C21.171,10.067,24.165,10.067,27.171,10.067z M26.269,10.969c-2.405,0-4.796,0-7.18,0
	c0,0.905,0,1.791,0,2.669c2.407,0,4.788,0,7.18,0C26.269,12.74,26.269,11.86,26.269,10.969z"/>
<path fill-rule="evenodd" clip-rule="evenodd" d="M18.173,19.508c0-0.298,0-0.573,0-0.87c2.997,0,5.982,0,8.99,0
	c0,0.282,0,0.567,0,0.87C24.175,19.508,21.191,19.508,18.173,19.508z"/>
<path fill-rule="evenodd" clip-rule="evenodd" d="M21.185,23.565c0-0.886,0-1.766,0-2.665c1.188,0,2.375,0,3.578,0
	c0,0.886,0,1.765,0,2.665C23.575,23.565,22.387,23.565,21.185,23.565z M23.862,21.801c-0.601,0-1.187,0-1.775,0
	c0,0.297,0,0.575,0,0.862c0.6,0,1.185,0,1.775,0C23.862,22.367,23.862,22.088,23.862,21.801z"/>
<path fill-rule="evenodd" clip-rule="evenodd" d="M2.831,22.594c0-0.302,0-0.58,0-0.872c2.397,0,4.781,0,7.186,0
	c0,0.286,0,0.571,0,0.872C7.624,22.594,5.241,22.594,2.831,22.594z"/>
<path fill-rule="evenodd" clip-rule="evenodd" d="M20.883,17.253c0-0.304,0-0.582,0-0.873c1.485,0,2.955,0,4.444,0
	c0,0.29,0,0.575,0,0.873C23.846,17.253,22.375,17.253,20.883,17.253z"/>
<path fill-rule="evenodd" clip-rule="evenodd" d="M18.173,17.25c0-0.291,0-0.569,0-0.865c0.594,0,1.18,0,1.778,0
	c0,0.292,0,0.569,0,0.865C19.364,17.25,18.787,17.25,18.173,17.25z"/>
<path fill-rule="evenodd" clip-rule="evenodd" d="M27.17,17.253c-0.303,0-0.581,0-0.872,0c0-0.292,0-0.57,0-0.867
	c0.287,0,0.572,0,0.872,0C27.17,16.672,27.17,16.95,27.17,17.253z"/>
<path fill-rule="evenodd" clip-rule="evenodd" d="M10.468,16.351c-0.288,0-0.564,0-0.863,0c0-0.289,0-0.574,0-0.873
	c0.287,0,0.565,0,0.863,0C10.468,15.766,10.468,16.051,10.468,16.351z"/>
<path fill-rule="evenodd" clip-rule="evenodd" d="M9.6,18.152c0-0.29,0-0.568,0-0.864c0.291,0,0.575,0,0.874,0
	c0,0.29,0,0.567,0,0.864C10.189,18.152,9.912,18.152,9.6,18.152z"/>
<path fill-rule="evenodd" clip-rule="evenodd" d="M14.065,25.682c0.831-0.832,1.611-1.613,2.386-2.391
	c0.216,0.226,0.415,0.432,0.589,0.615c-0.973,0.973-1.973,1.975-2.955,2.956c-0.378-0.378-0.776-0.773-1.162-1.158
	c0.188-0.196,0.387-0.404,0.614-0.643C13.709,25.264,13.874,25.457,14.065,25.682z"/>
<path fill-rule="evenodd" clip-rule="evenodd" d="M8.697,10.042c0-0.31,0-0.588,0-0.896c0.535,0,1.058-0.011,1.579,0.003
	c0.341,0.011,0.595-0.075,0.675-0.438c0.3,0,0.588,0,0.875,0c-0.029,0.721-0.524,1.282-1.221,1.324
	C9.981,10.071,9.353,10.042,8.697,10.042z"/>
<path fill-rule="evenodd" clip-rule="evenodd" d="M9.131,7.329c0.005,0.237-0.205,0.454-0.443,0.459
	C8.442,7.794,8.239,7.595,8.235,7.346C8.231,7.094,8.421,6.896,8.671,6.892C8.917,6.888,9.126,7.086,9.131,7.329z"/>
<path fill-rule="evenodd" clip-rule="evenodd" d="M11.377,6.892c0.247-0.005,0.456,0.193,0.461,0.437
	c0.006,0.237-0.203,0.454-0.442,0.46c-0.246,0.006-0.449-0.192-0.453-0.441C10.938,7.095,11.127,6.896,11.377,6.892z"/>
</svg>
