<?xml version="1.0" encoding="utf-8"?>
<!-- Generator: Adobe Illustrator 16.0.0, SVG Export Plug-In . SVG Version: 6.00 Build 0)  -->
<!DOCTYPE svg PUBLIC "-//W3C//DTD SVG 1.1//EN" "http://www.w3.org/Graphics/SVG/1.1/DTD/svg11.dtd">
<svg version="1.1" id="Layer_1" xmlns="http://www.w3.org/2000/svg" xmlns:xlink="http://www.w3.org/1999/xlink" x="0px" y="0px"
	 width="30px" height="30px" viewBox="0 0 30 30" enable-background="new 0 0 30 30" xml:space="preserve">
<path fill-rule="evenodd" clip-rule="evenodd" d="M7.592,19.993c0,0.692-0.002,1.3,0.001,1.908c0.001,0.227-0.021,0.436-0.255,0.55
	c-0.243,0.119-0.413-0.02-0.582-0.163c-1.536-1.3-3.073-2.599-4.608-3.899c-0.405-0.344-0.403-0.561-0.008-0.896
	c1.528-1.293,3.057-2.586,4.583-3.882c0.181-0.153,0.362-0.298,0.608-0.192c0.268,0.114,0.264,0.363,0.262,0.607
	c-0.004,0.565-0.001,1.131-0.001,1.74c1.726-0.137,3.338,0.189,4.869,1.027c0-3.216,0-6.379,0-9.585c-0.366,0-0.723,0-1.08,0
	c-0.526,0-1.054,0.019-1.579-0.011C9.644,7.187,9.419,7.08,9.359,6.953s-0.011-0.38,0.087-0.497
	c1.749-2.089,3.511-4.167,5.274-6.244c0.25-0.294,0.498-0.273,0.775,0.053c1.441,1.699,2.881,3.402,4.322,5.103
	c0.293,0.347,0.584,0.695,0.881,1.038c0.146,0.169,0.258,0.376,0.113,0.556c-0.104,0.129-0.318,0.229-0.488,0.233
	c-0.863,0.023-1.729,0.011-2.613,0.011c0,2.04,0,4.054,0,6.116c1.486-0.979,3.09-1.458,4.875-1.426c0-0.548,0-1.07,0-1.593
	c0-0.114-0.029-0.239,0.008-0.338c0.059-0.153,0.133-0.354,0.256-0.411c0.123-0.056,0.355-0.011,0.473,0.078
	c0.42,0.316,0.813,0.669,1.213,1.009c1.166,0.987,2.332,1.974,3.496,2.963c0.402,0.341,0.402,0.561,0.008,0.896
	c-1.535,1.301-3.072,2.6-4.607,3.903c-0.172,0.146-0.348,0.277-0.584,0.173c-0.248-0.11-0.266-0.338-0.264-0.576
	c0.006-0.606,0.002-1.213,0.002-1.843c-1.412,0.041-2.572,0.562-3.527,1.544c-0.52,0.533-0.887,1.162-1.119,1.868
	c-0.076,0.228-0.207,0.387-0.463,0.38c-0.295-0.008-0.467-0.291-0.361-0.61c0.451-1.379,1.301-2.45,2.539-3.202
	c0.994-0.603,2.078-0.891,3.246-0.827c0.404,0.022,0.545,0.167,0.547,0.583c0.002,0.431,0,0.862,0,1.369
	c1.289-1.09,2.529-2.138,3.793-3.207c-1.256-1.063-2.496-2.112-3.793-3.209c0,0.485,0.002,0.902,0,1.319
	c0,0.519-0.139,0.649-0.643,0.614c-1.971-0.14-3.693,0.463-5.201,1.727c-0.121,0.101-0.344,0.153-0.498,0.122
	c-0.23-0.048-0.273-0.275-0.273-0.497c0.002-1.972,0-3.943,0-5.915c0-0.413,0-0.826,0.002-1.239c0-0.498,0.129-0.628,0.617-0.63
	c0.65-0.002,1.301-0.003,1.951-0.006c0.016,0,0.031-0.019,0.076-0.048c-1.459-1.723-2.914-3.442-4.393-5.189
	c-1.477,1.744-2.932,3.463-4.438,5.243c0.655,0,1.237,0,1.818,0c0.134,0,0.269-0.004,0.403,0.002
	c0.282,0.012,0.435,0.164,0.458,0.444C13.334,6.896,13.33,7,13.33,7.103c0,3.293,0,6.586,0.001,9.878
	c0,0.206,0.045,0.418,0.009,0.616c-0.028,0.154-0.116,0.354-0.239,0.419c-0.12,0.064-0.364,0.045-0.471-0.041
	c-1.564-1.254-3.367-1.512-5.287-1.307c-0.414,0.044-0.608-0.11-0.612-0.523c-0.005-0.443-0.001-0.887-0.001-1.414
	c-1.291,1.091-2.534,2.143-3.792,3.207c1.26,1.064,2.494,2.107,3.791,3.204c0-0.491,0-0.907,0-1.324
	c0.001-0.491,0.119-0.613,0.618-0.644c2.663-0.157,5.199,1.764,5.812,4.431c0.114,0.498,0.164,1.02,0.173,1.531
	c0.022,1.197,0.002,2.396,0,3.593c0,0.122,0,0.245,0,0.394c1.167,0,2.315,0,3.499,0c0-0.446,0-0.887,0-1.328
	c0-0.299-0.002-0.599,0.002-0.897c0.004-0.336,0.166-0.535,0.428-0.538c0.26-0.004,0.428,0.199,0.43,0.53
	c0.004,0.413,0.002,0.826,0.002,1.238c0,0.465,0.004,0.93-0.002,1.394c-0.006,0.323-0.156,0.48-0.473,0.481
	c-1.426,0.004-2.85,0.004-4.274,0c-0.336-0.001-0.467-0.16-0.467-0.546c0-1.507,0.017-3.015,0.001-4.521
	c-0.023-2.248-1.54-4.193-3.693-4.747C8.411,20.091,8.021,20.061,7.592,19.993z"/>
<path fill-rule="evenodd" clip-rule="evenodd" d="M17.691,23.163c0,0.205,0.008,1.411-0.002,1.615
	c-0.014,0.262-0.191,0.443-0.426,0.433c-0.252-0.012-0.412-0.159-0.422-0.405c-0.018-0.431-0.018-2.863-0.002-3.293
	c0.01-0.259,0.215-0.442,0.443-0.418c0.26,0.028,0.404,0.184,0.408,0.452C17.695,21.751,17.691,22.957,17.691,23.163z"/>
</svg>
