<?xml version="1.0" encoding="utf-8"?>
<!-- Generator: Adobe Illustrator 16.0.0, SVG Export Plug-In . SVG Version: 6.00 Build 0)  -->
<!DOCTYPE svg PUBLIC "-//W3C//DTD SVG 1.1//EN" "http://www.w3.org/Graphics/SVG/1.1/DTD/svg11.dtd">
<svg version="1.1" id="Layer_1" xmlns="http://www.w3.org/2000/svg" xmlns:xlink="http://www.w3.org/1999/xlink" x="0px" y="0px"
	 width="30px" height="30px" viewBox="40.688 0 30 30" enable-background="new 40.688 0 30 30" xml:space="preserve">
<g>
	<path fill-rule="evenodd" clip-rule="evenodd" d="M70.664,19.531c-0.009-1.145-0.933-1.963-2.083-1.871
		c-1.023,0.131-1.688,0.857-1.696,1.883c-0.01,1.373-0.011,2.744,0,4.119c0.007,0.896-0.291,1.639-1.032,2.178
		c-0.394,0.246-0.84,0.309-1.285,0.387c-1.016,0-2.031,0.002-3.049,0.002c-0.83,0-1.658,0-2.486,0c-0.856,0-1.712,0-2.569,0
		c-0.854,0-1.712,0-2.567,0c-1.659,0-3.317,0-4.975,0c-0.958-0.068-1.925,0.076-2.878-0.109c-1.13-0.455-1.623-1.307-1.604-2.51
		c0.02-1.375,0.014-2.752-0.003-4.129c-0.011-0.922-0.648-1.641-1.531-1.781c-1.115-0.26-2.228,0.602-2.242,1.775
		c-0.02,1.586-0.047,3.176,0.011,4.76c0.057,1.563,0.654,2.92,1.812,4.004c1.266,1.279,2.813,1.818,4.591,1.746
		c0.681,0.004,1.361,0.016,2.041,0.01c0.36-0.004,0.604-0.244,0.604-0.561c0-0.313-0.242-0.555-0.604-0.557
		c-0.68-0.006-1.36,0.006-2.041,0.01c-0.134-0.004-0.267-0.01-0.399-0.014c-0.888-0.029-1.721-0.236-2.489-0.703
		c-0.555-0.336-1.002-0.785-1.431-1.26c-0.733-1.055-1.024-2.225-0.983-3.506c0.038-1.225,0.007-2.451,0.008-3.676
		c0.001-0.711,0.299-0.986,1.01-0.947c0.408,0.201,0.54,0.531,0.534,0.98c-0.02,1.375-0.018,2.75-0.005,4.125
		c0.017,1.682,1.09,2.998,2.712,3.359c0.959,0.17,1.926,0.074,2.89,0.072c1.657,0.033,3.315,0.031,4.974-0.002
		c0.854,0.035,1.713,0.033,2.567,0.002c0.857,0.033,1.712,0.031,2.569,0c0.829,0.033,1.657,0.033,2.488-0.002
		c1.016,0.002,2.03,0.002,3.044,0.002c0.482,0.027,0.941-0.061,1.369-0.287c1.228-0.479,2.056-1.701,2.07-3.1
		c0.016-1.428,0.008-2.857,0.001-4.283c-0.002-0.432,0.162-0.734,0.578-0.883c0.692,0.012,0.959,0.281,0.96,0.979
		c0.001,1.387-0.002,2.775,0.002,4.162c0.001,0.377-0.053,0.744-0.129,1.109c-0.225,1.072-0.817,1.924-1.575,2.68
		c-1.036,0.795-2.196,1.219-3.513,1.191c-0.963,0-1.926,0-2.889,0c-0.803,0-1.604,0-2.407-0.002c-0.654-0.004-1.31-0.014-1.965-0.01
		c-0.385,0.002-0.604,0.209-0.615,0.539c-0.011,0.354,0.215,0.578,0.615,0.58c0.655,0.006,1.311-0.004,1.965-0.01
		c0.803,0,1.604,0,2.407,0c0.963,0,1.926,0,2.889,0c1.321,0.074,2.522-0.279,3.614-1.02c1.721-1.131,2.621-2.752,2.71-4.783
		C70.718,22.635,70.675,21.08,70.664,19.531z"/>
	<path fill-rule="evenodd" clip-rule="evenodd" d="M49.146,16.48c0.91,0.965,1.847,1.898,2.808,2.809
		c0.808,0.85,1.62,1.693,2.494,2.477c0.101-0.348,0.092-0.705,0.091-1.061c0.001,0.355,0.01,0.713-0.091,1.061
		c0.769,0.676,1.851,0.621,2.573-0.129c0.752-0.693,1.472-1.416,2.169-2.164c0.822-0.76,1.599-1.563,2.37-2.371
		c0.639-0.58,1.245-1.191,1.829-1.829c0.361-0.354,0.747-0.687,1.078-1.067c0.518-0.594,0.639-1.292,0.312-2.013
		c-0.314-0.694-0.862-1.1-1.653-1.12c-0.373-0.049-0.719,0.048-1.027,0.241c-0.454,0.283-0.807,0.681-1.149,1.086
		c-0.889,0.824-1.744,1.679-2.566,2.569c-0.281,0.186-0.455,0.502-0.813,0.681c0-0.195,0-0.338,0-0.482c0-2.485,0-4.97,0-7.454
		c0-1.911,0.006-3.821-0.003-5.731c-0.005-1.098-0.708-1.885-1.745-1.979c-1.197-0.077-2.064,0.763-2.066,2.02
		c-0.003,4.371-0.001,8.742-0.001,13.112c0,0.107,0.001,0.214-0.001,0.321c-0.005,0.292-0.146,0.114-0.248,0.071
		c-0.74-0.802-1.513-1.573-2.313-2.314c-0.537-0.605-1.12-1.166-1.709-1.72c-0.154-0.145-0.333-0.265-0.552-0.298
		c-0.582-0.141-1.156-0.183-1.689,0.169c-0.972,0.643-1.184,1.968-0.39,2.825C47.586,14.982,48.323,15.775,49.146,16.48z
		 M47.639,12.529c0.243-0.357,0.618-0.419,1.133-0.188c0.746,0.744,1.493,1.486,2.239,2.229c0.79,0.802,1.529,1.652,2.387,2.385
		c0.092-0.291,0.099-0.59,0.099-0.889c0,0.299-0.007,0.598-0.099,0.889c0.164,0.176,0.326,0.352,0.494,0.523
		c0.188,0.191,0.422,0.24,0.663,0.141c0.232-0.098,0.329-0.299,0.322-0.551c-0.003-0.121,0.001-0.24,0.001-0.361
		c0-4.864-0.001-9.728,0-14.591c0-0.713,0.256-0.982,0.943-1.009c0.511,0.188,0.627,0.587,0.626,1.084
		c-0.006,4.885-0.003,9.771-0.002,14.656c0,0.172-0.026,0.352,0.048,0.514c0.164,0.354,0.625,0.414,0.945,0.105
		c0.356-0.34,0.688-0.705,1.03-1.059c0.938-0.867,1.832-1.777,2.71-2.704c0.406-0.396,0.818-0.786,1.217-1.189
		c0.206-0.208,0.431-0.346,0.729-0.344c0.786,0.277,0.924,0.864,0.341,1.463c-0.093,0.096-0.179,0.196-0.269,0.294
		c-0.646,0.646-1.293,1.292-1.939,1.938c-0.744,0.744-1.488,1.49-2.232,2.232c-0.733,0.732-1.468,1.463-2.2,2.193l0,0
		c-0.19,0.182-0.378,0.369-0.571,0.549c-0.39,0.361-0.803,0.359-1.193-0.006c-0.172-0.16-0.345-0.324-0.516-0.486
		c-0.807-0.852-1.635-1.684-2.486-2.486c-0.915-0.961-1.848-1.898-2.81-2.811c-0.456-0.465-0.909-0.931-1.367-1.395
		C47.473,13.241,47.395,12.886,47.639,12.529z"/>
	<path fill-rule="evenodd" clip-rule="evenodd" d="M53.481,28.875c-0.198-0.01-0.399-0.018-0.596,0.006
		c-0.318,0.037-0.51,0.232-0.508,0.557c0.002,0.326,0.195,0.51,0.513,0.555c0.105,0.014,0.212,0.002,0.317,0.002
		c0,0.002,0,0.002,0,0.004c0.094,0,0.188,0.004,0.279-0.002c0.365-0.021,0.591-0.238,0.59-0.564
		C54.075,29.109,53.851,28.891,53.481,28.875z"/>
</g>
</svg>
