<?xml version="1.0" encoding="utf-8"?>
<!-- Generator: Adobe Illustrator 16.0.0, SVG Export Plug-In . SVG Version: 6.00 Build 0)  -->
<!DOCTYPE svg PUBLIC "-//W3C//DTD SVG 1.1//EN" "http://www.w3.org/Graphics/SVG/1.1/DTD/svg11.dtd">
<svg version="1.1" id="Layer_1" xmlns="http://www.w3.org/2000/svg" xmlns:xlink="http://www.w3.org/1999/xlink" x="0px" y="0px"
	 width="30px" height="30px" viewBox="0 0 30 30" enable-background="new 0 0 30 30" xml:space="preserve">
<path fill-rule="evenodd" clip-rule="evenodd" d="M22.219,29c-7.072,0-14.146,0-21.218,0c0-8.641,0-17.281,0-25.921
	c0.098-0.255,0.287-0.345,0.555-0.339C2.033,2.752,2.51,2.743,3.01,2.743c0-0.431,0.007-0.819-0.003-1.208
	C3,1.294,3.077,1.11,3.298,1c4.63,0,9.261,0,13.89,0c0.152,0.14,0.31,0.276,0.457,0.42c2.113,2.046,4.219,4.1,6.343,6.133
	c0.343,0.328,0.56,0.657,0.482,1.14c-0.014,0.082-0.002,0.168-0.002,0.253c0.157-0.311,0.26-0.628,0.373-0.942
	c0.282-0.782,0.933-1.279,1.697-1.265c0.594,0.01,1.143,0.209,1.658,0.491C28.666,7.488,28.866,7.946,29,8.438
	c0,0.146,0,0.291,0,0.438c-0.062,0.197-0.127,0.394-0.189,0.591c-0.864,2.751-1.758,5.495-2.58,8.258
	c-0.35,1.178-0.8,2.273-1.614,3.205c-0.095,0.108-0.141,0.294-0.142,0.445c-0.01,1.75-0.006,3.5-0.007,5.25
	c0,0.539-0.094,0.632-0.638,0.632c-0.443,0.001-0.885,0-1.348,0c0,0.412-0.006,0.784,0.001,1.158
	C22.491,28.657,22.424,28.856,22.219,29z M3.866,26.399c6.6,0,13.183,0,19.767,0c0-1.345,0-2.67,0-4.053
	c-0.092,0.122-0.147,0.193-0.202,0.268c-0.308,0.407-0.601,0.825-0.93,1.215c-0.086,0.103-0.302,0.184-0.418,0.146
	c-0.13-0.042-0.228-0.22-0.312-0.354c-0.039-0.062-0.019-0.16-0.02-0.242c-0.026-1.695-0.054-3.39-0.075-5.085
	c-0.002-0.134,0.021-0.272,0.063-0.401c0.293-0.937,0.593-1.873,0.891-2.81c0.315-0.989,0.74-1.958,0.912-2.971
	c0.173-1.02,0.091-2.083,0.12-3.126c0.001-0.027,0.002-0.055,0-0.082c-0.004-0.08-0.011-0.158-0.02-0.264c-0.122,0-0.229,0-0.338,0
	c-1.959,0-3.918,0-5.879,0c-0.748,0-0.797-0.047-0.797-0.781c0-1.887,0-3.773,0-5.66c0-0.106,0-0.214,0-0.326
	c-4.275,0-8.516,0-12.763,0C3.866,10.059,3.866,18.221,3.866,26.399z M1.877,28.131c6.595,0,13.161,0,19.729,0
	c0-0.299,0-0.575,0-0.875c-0.136,0-0.253,0-0.37,0c-5.841,0-11.683,0-17.525,0c-0.1,0-0.2,0.003-0.3-0.004
	c-0.247-0.017-0.383-0.148-0.396-0.398C3.01,26.746,3.01,26.636,3.01,26.527c0-7.52,0-15.038,0-22.557c0-0.123,0-0.246,0-0.367
	c-0.408,0-0.766,0-1.132,0C1.877,11.788,1.877,19.95,1.877,28.131z M25.058,18.688c0.046-0.127,0.079-0.22,0.109-0.313
	c0.411-1.31,0.822-2.622,1.234-3.931c0.562-1.789,1.124-3.576,1.684-5.364c0.197-0.631-0.028-1.059-0.66-1.267
	c-0.147-0.048-0.294-0.094-0.442-0.139c-0.725-0.224-1.15,0-1.379,0.722c-0.688,2.177-1.377,4.354-2.065,6.53
	c-0.31,0.979-0.616,1.957-0.93,2.96C23.426,18.153,24.227,18.416,25.058,18.688z M17.483,7.762c1.835,0,3.655,0,5.521,0
	c-1.853-1.781-3.668-3.527-5.521-5.308C17.483,4.269,17.483,6.013,17.483,7.762z M22.539,18.797c0,1.152,0,2.282,0,3.411
	c0.026,0.005,0.053,0.011,0.078,0.016c0.656-0.917,1.313-1.833,1.983-2.77C23.876,19.224,23.195,19.007,22.539,18.797z"/>
<path fill-rule="evenodd" clip-rule="evenodd" d="M9.788,3.461c0.975,0,1.95-0.001,2.925,0c0.426,0,0.555,0.125,0.556,0.554
	c0.002,1.358,0.002,2.715,0,4.073c-0.001,0.421-0.132,0.549-0.563,0.55c-1.933,0.002-3.865,0.002-5.796,0
	c-0.436,0-0.598-0.164-0.599-0.595c-0.001-1.34-0.002-2.679,0-4.019c0-0.435,0.135-0.564,0.579-0.564
	C7.855,3.46,8.822,3.461,9.788,3.461z M7.181,7.762c1.767,0,3.5,0,5.229,0c0-1.157,0-2.291,0-3.433c-1.75,0-3.483,0-5.229,0
	C7.181,5.484,7.181,6.618,7.181,7.762z"/>
<path fill-rule="evenodd" clip-rule="evenodd" d="M12.315,18.822c-2.086,0-4.172,0-6.258-0.001c-0.402,0-0.576-0.126-0.58-0.416
	c-0.003-0.219,0.092-0.37,0.317-0.411c0.106-0.021,0.216-0.026,0.325-0.026c4.145-0.001,8.29-0.001,12.436-0.001
	c0.471,0,0.657,0.123,0.653,0.432c-0.003,0.305-0.189,0.424-0.662,0.424C16.469,18.822,14.392,18.822,12.315,18.822z"/>
<path fill-rule="evenodd" clip-rule="evenodd" d="M12.368,11.774c2.078,0,4.154-0.001,6.231,0.001c0.117,0,0.271-0.018,0.343,0.044
	c0.117,0.102,0.229,0.256,0.254,0.403c0.031,0.179-0.089,0.332-0.287,0.373c-0.106,0.021-0.217,0.03-0.325,0.03
	c-4.164,0-8.327,0-12.491,0c-0.426,0-0.59-0.104-0.613-0.38c-0.021-0.251,0.108-0.425,0.357-0.462
	c0.089-0.014,0.182-0.009,0.273-0.009C8.196,11.774,10.282,11.774,12.368,11.774z"/>
<path fill-rule="evenodd" clip-rule="evenodd" d="M12.319,15.717c-2.104,0-4.208,0.001-6.313,0
	c-0.381-0.001-0.551-0.153-0.527-0.461c0.016-0.209,0.127-0.336,0.336-0.366c0.089-0.013,0.181-0.012,0.273-0.012
	c4.162,0,8.326,0,12.488,0c0.092,0,0.184,0,0.272,0.01c0.241,0.027,0.354,0.185,0.355,0.408c0.001,0.228-0.116,0.381-0.354,0.411
	c-0.099,0.014-0.199,0.01-0.301,0.01C16.473,15.718,14.396,15.717,12.319,15.717z"/>
<path fill-rule="evenodd" clip-rule="evenodd" d="M12.32,21.068c2.077,0,4.152,0,6.229,0.001c0.101,0,0.204-0.006,0.298,0.018
	c0.216,0.052,0.324,0.198,0.312,0.419c-0.013,0.215-0.121,0.36-0.342,0.396c-0.082,0.012-0.164,0.01-0.246,0.011
	c-4.162,0-8.324,0-12.486,0c-0.44,0-0.603-0.112-0.608-0.41c-0.003-0.239,0.128-0.396,0.368-0.426
	c0.09-0.012,0.182-0.007,0.273-0.007C8.185,21.068,10.252,21.068,12.32,21.068z"/>
<path fill-rule="evenodd" clip-rule="evenodd" d="M17.335,25.011c-0.993,0-1.987,0-2.98-0.001c-0.091,0-0.184,0.007-0.272-0.012
	c-0.231-0.045-0.344-0.198-0.335-0.429c0.007-0.217,0.119-0.358,0.344-0.39c0.063-0.007,0.127-0.013,0.19-0.013
	c2.05-0.001,4.1-0.005,6.149,0.008c0.152,0.001,0.357,0.076,0.441,0.189c0.215,0.286-0.008,0.639-0.395,0.644
	c-0.639,0.008-1.276,0.002-1.913,0.003C18.156,25.011,17.746,25.011,17.335,25.011z"/>
</svg>
