<?xml version="1.0" encoding="utf-8"?>
<!-- Generator: Adobe Illustrator 16.0.0, SVG Export Plug-In . SVG Version: 6.00 Build 0)  -->
<!DOCTYPE svg PUBLIC "-//W3C//DTD SVG 1.1//EN" "http://www.w3.org/Graphics/SVG/1.1/DTD/svg11.dtd">
<svg version="1.1" id="Layer_1" xmlns="http://www.w3.org/2000/svg" xmlns:xlink="http://www.w3.org/1999/xlink" x="0px" y="0px"
	 width="30px" height="30px" viewBox="0 0 30 30" enable-background="new 0 0 30 30" xml:space="preserve">
<circle fill="#FA0404" cx="21.146" cy="21.104" r="5.167"/>
<path fill="#040404" d="M28.8,19.391c-0.774-3.229-3.381-5.593-6.649-6.018c-0.799-0.104-1.602-0.086-2.393,0.076
	c-0.229,0.047-0.311,0.027-0.309-0.244c0.011-3.545,0.006-7.089,0.009-10.634c0-0.374-0.052-0.726-0.301-1.023
	c-0.281-0.336-0.644-0.494-1.079-0.493c-1.313,0.001-2.624,0-3.936,0c-3.873,0-7.746,0.004-11.618-0.004
	c-0.708-0.001-1.21,0.263-1.467,0.94C1.048,2.012,1.02,2.024,1,2.041C1,10.7,1,19.359,1,28.018c0.115,0.074,0.122,0.211,0.183,0.317
	c0.193,0.345,0.528,0.5,0.856,0.666c0.019,0,0.036,0,0.055,0c5.396,0,10.792,0,16.188,0c0.018,0,0.036,0,0.055,0
	c0.199-0.097,0.422-0.14,0.597-0.282c0.023-0.021,0.072-0.035,0.101-0.025c0.466,0.162,0.967,0.162,1.437,0.309
	c0.127,0,0.256,0,0.383,0c0.219,0,0.438,0,0.656,0c0.092,0,0.182,0,0.273,0c0.386-0.07,0.775-0.133,1.156-0.223
	c0.309-0.07,0.613-0.168,0.914-0.27c0.283-0.096,0.401-0.31,0.324-0.541c-0.076-0.238-0.314-0.328-0.605-0.23
	c-2.074,0.707-4.071,0.548-5.973-0.547c-2.388-1.373-3.784-4.104-3.396-6.803c0.426-2.959,2.018-5.05,4.921-5.943
	c4.157-1.281,8.422,1.46,8.978,5.763c0.355,2.749-0.66,4.973-2.863,6.65C25.172,26.909,25.1,26.95,25.035,27
	c-0.203,0.159-0.251,0.385-0.121,0.575c0.134,0.198,0.379,0.243,0.602,0.096c0.656-0.438,1.235-0.961,1.733-1.573
	c0.942-1.158,1.492-2.486,1.692-3.961c0.009-0.05-0.014-0.113,0.061-0.135c0-0.547,0-1.094,0-1.641
	C28.873,20.05,28.877,19.714,28.8,19.391z M14.469,25.227c0.042,0.067,0.085,0.139,0.155,0.252c-0.129,0-0.209,0-0.288,0
	c-3.235,0-6.469,0-9.704,0c-0.466,0-0.524-0.058-0.524-0.513c0-1.239,0-2.479,0-3.719c0-0.365,0.084-0.448,0.449-0.448
	c2.843-0.001,5.685,0.002,8.528-0.006c0.2,0,0.251,0.038,0.249,0.251C13.314,22.543,13.694,23.939,14.469,25.227z M16.195,15.098
	c-0.716,0.578-1.308,1.265-1.767,2.063c-0.091,0.155-0.188,0.204-0.364,0.204c-1.586-0.008-3.171-0.004-4.757-0.004
	c-1.567,0-3.134,0-4.702-0.002c-0.43,0-0.496-0.063-0.496-0.483c0-1.237-0.001-2.478,0-3.716c0-0.399,0.068-0.472,0.453-0.472
	c3.782-0.001,7.563-0.001,11.345,0c0.358,0,0.448,0.094,0.45,0.454c0.002,0.538-0.004,1.075,0.004,1.613
	C16.365,14.909,16.311,15.004,16.195,15.098z M18.375,13.836c-0.406,0.131-0.781,0.335-1.191,0.56c0-0.446,0.002-0.86,0-1.274
	c-0.002-0.795-0.455-1.266-1.248-1.267c-3.81-0.004-7.62-0.005-11.429,0c-0.769,0.001-1.222,0.464-1.225,1.229
	c-0.004,1.294-0.004,2.588,0,3.883c0.003,0.764,0.461,1.217,1.231,1.217c3.017,0.002,6.034,0.002,9.05,0.002c0.101,0,0.2,0,0.336,0
	c-0.123,0.381-0.268,0.737-0.349,1.115c-0.047,0.221-0.035,0.534-0.173,0.635c-0.159,0.111-0.455,0.037-0.691,0.037
	c-2.697,0.002-5.395,0-8.093,0.002c-0.877,0-1.312,0.43-1.312,1.301c-0.001,1.24-0.001,2.48,0,3.72c0,0.87,0.443,1.313,1.309,1.313
	c3.473,0,6.945,0,10.418-0.002c0.176,0,0.301,0.043,0.424,0.178c0.61,0.674,1.333,1.207,2.123,1.683c-0.08,0-0.16,0-0.24,0
	c-4.912,0-9.824,0-14.735,0c-0.615,0-0.753-0.138-0.753-0.757c0-8.268,0-16.532,0-24.8c0-0.585,0.141-0.729,0.723-0.729
	c5.122,0,10.245,0,15.365,0c0.568,0,0.713,0.144,0.713,0.708c0,3.627-0.002,7.254,0.006,10.882
	C18.631,13.681,18.568,13.773,18.375,13.836z"/>
<path fill="#040404" d="M21.193,27.055c-3.437-0.072-6.002-2.697-5.934-6.064c0.064-3.221,2.813-5.829,6.063-5.76
	c3.213,0.069,5.818,2.805,5.752,6.04C27.01,24.471,24.313,27.124,21.193,27.055z M21.193,16.072
	c-2.937,0.051-5.158,2.299-5.106,5.164c0.05,2.807,2.353,5.039,5.147,4.988c2.818-0.047,5.063-2.341,5.017-5.121
	C26.201,18.313,23.902,16.025,21.193,16.072z"/>
<path fill="#020202" d="M10.244,3.738c1.877,0,3.754,0,5.631,0c0.859,0,1.309,0.453,1.309,1.317c0,1.249,0,2.498,0,3.745
	c-0.002,0.807-0.468,1.274-1.27,1.274c-3.792,0-7.582,0.001-11.373,0c-0.796,0-1.258-0.456-1.26-1.249
	c-0.003-1.285-0.003-2.57,0-3.855c0.003-0.773,0.469-1.23,1.25-1.231C6.435,3.737,8.339,3.738,10.244,3.738z M10.237,9.252
	c1.876,0,3.753,0,5.629,0c0.396,0,0.491-0.094,0.491-0.475c0.002-1.248,0.002-2.496,0-3.744c0-0.373-0.096-0.471-0.469-0.471
	c-3.77,0-7.54,0-11.312,0c-0.38,0-0.469,0.087-0.469,0.46c-0.001,1.248-0.001,2.496,0,3.744c0,0.407,0.082,0.485,0.5,0.485
	C6.485,9.253,8.361,9.252,10.237,9.252z"/>
<path d="M10.229,14.578c1.511,0,3.023,0,4.535,0c0.073,0,0.146-0.003,0.219,0.002c0.251,0.018,0.414,0.184,0.409,0.418
	c-0.004,0.222-0.161,0.383-0.397,0.402c-0.063,0.004-0.128,0.002-0.191,0.002c-3.05,0-6.101,0-9.152,0
	c-0.073,0-0.147,0.005-0.219-0.004c-0.231-0.033-0.365-0.177-0.369-0.403c-0.004-0.225,0.128-0.373,0.359-0.411
	c0.08-0.014,0.163-0.006,0.245-0.006C7.187,14.578,8.708,14.578,10.229,14.578z"/>
<path fill="#030303" d="M7.112,23.58c-0.519,0-1.037,0.002-1.556-0.001c-0.311-0.002-0.503-0.166-0.5-0.416
	c0.005-0.249,0.199-0.407,0.513-0.407c1.037-0.003,2.074-0.003,3.111,0c0.313,0,0.508,0.158,0.513,0.406
	c0.005,0.258-0.19,0.416-0.526,0.417C8.148,23.581,7.63,23.58,7.112,23.58z"/>
<path fill="#020202" d="M11.685,23.579c-0.401,0-0.803,0.004-1.203-0.001c-0.28-0.003-0.452-0.158-0.459-0.396
	c-0.007-0.25,0.171-0.423,0.459-0.425c0.812-0.005,1.623-0.005,2.434,0c0.291,0.003,0.465,0.173,0.457,0.427
	c-0.007,0.244-0.171,0.393-0.457,0.396C12.505,23.583,12.095,23.58,11.685,23.579z"/>
<path fill="#FFFFFF" d="M21.736,21.12c0.723,0.726,1.404,1.407,2.088,2.088c0.127,0.124,0.246,0.255,0.23,0.442
	c-0.016,0.162-0.099,0.303-0.26,0.356c-0.184,0.062-0.352,0.024-0.496-0.124c-0.629-0.635-1.271-1.254-1.887-1.898
	c-0.202-0.215-0.307-0.189-0.495,0.009c-0.541,0.567-1.103,1.114-1.658,1.666c-0.077,0.077-0.155,0.153-0.239,0.224
	c-0.229,0.197-0.453,0.207-0.623,0.027c-0.183-0.188-0.16-0.42,0.063-0.645c0.357-0.363,0.721-0.724,1.081-1.084
	c0.296-0.297,0.586-0.601,0.892-0.885c0.127-0.119,0.111-0.18-0.004-0.294c-0.669-0.657-1.33-1.321-1.99-1.987
	c-0.205-0.207-0.215-0.447-0.039-0.627c0.17-0.173,0.424-0.162,0.634,0.026c0.04,0.037,0.077,0.077,0.114,0.116
	c0.619,0.617,1.242,1.232,1.854,1.857c0.131,0.135,0.2,0.145,0.336,0.004c0.65-0.664,1.313-1.315,1.966-1.977
	c0.138-0.139,0.294-0.18,0.472-0.128c0.166,0.048,0.252,0.176,0.277,0.34c0.03,0.192-0.085,0.322-0.21,0.448
	c-0.625,0.623-1.25,1.249-1.877,1.871C21.9,21.014,21.818,21.059,21.736,21.12z"/>
<path fill="#060606" d="M7.338,7.348c-0.591,0-1.183,0.002-1.775,0c-0.316-0.001-0.506-0.16-0.506-0.409
	c0-0.247,0.196-0.414,0.505-0.414c1.193-0.003,2.386-0.003,3.579,0c0.304,0.001,0.501,0.179,0.492,0.427
	C9.624,7.191,9.44,7.346,9.142,7.348C8.541,7.35,7.939,7.348,7.338,7.348z"/>
<path fill="#060606" d="M11.64,7.348c-0.246,0-0.491,0.005-0.737-0.001c-0.276-0.009-0.445-0.172-0.442-0.413
	c0.003-0.239,0.173-0.405,0.45-0.409c0.491-0.008,0.982-0.008,1.474,0c0.277,0.004,0.441,0.172,0.438,0.417
	c-0.002,0.248-0.161,0.396-0.447,0.404C12.131,7.353,11.886,7.348,11.64,7.348z"/>
</svg>
