<?xml version="1.0" encoding="utf-8"?>
<!-- Generator: Adobe Illustrator 16.0.0, SVG Export Plug-In . SVG Version: 6.00 Build 0)  -->
<!DOCTYPE svg PUBLIC "-//W3C//DTD SVG 1.1//EN" "http://www.w3.org/Graphics/SVG/1.1/DTD/svg11.dtd">
<svg version="1.1" id="Layer_1" xmlns="http://www.w3.org/2000/svg" xmlns:xlink="http://www.w3.org/1999/xlink" x="0px" y="0px"
	 width="30px" height="30px" viewBox="0 0 30 30" enable-background="new 0 0 30 30" xml:space="preserve">
<g>
	<path fill-rule="evenodd" clip-rule="evenodd" d="M24.485,25.969h-0.912c0.01,0.251,0.004,0.504,0,0.755
		c-0.012,0.775-0.584,1.365-1.354,1.366c-4.514,0.005-9.028,0.005-13.542,0c-0.759-0.001-1.338-0.585-1.352-1.34
		c-0.01-0.44-0.002-0.881-0.002-1.366h0.336c1.203,0,2.407,0.001,3.61-0.001c0.406,0,0.566-0.158,0.566-0.56
		c0.002-2.634,0.002-5.268,0-7.898c0-0.407-0.158-0.567-0.561-0.568c-1.203-0.002-2.407-0.001-3.61-0.001H7.348
		c0-0.55-0.052-1.087,0.013-1.61c0.082-0.65,0.651-1.094,1.311-1.095c4.522-0.004,9.046-0.005,13.57,0.001
		c0.705,0,1.299,0.554,1.326,1.247c0.021,0.585,0.012,10.485,0.01,11.07h0.9c0.002-0.567,0.01-10.424-0.002-10.961
		c-0.016-0.867-0.402-1.533-1.154-1.968c-0.154-0.088-0.203-0.179-0.201-0.349c0.008-1.204,0.014-2.408-0.002-3.611
		c-0.008-0.553-0.025-1.112-0.109-1.657c-0.682-4.434-5.223-7.354-9.546-6.152c-3.41,0.948-5.677,3.918-5.688,7.456
		c-0.004,1.326-0.003,2.652,0.002,3.978c0,0.156-0.039,0.245-0.187,0.33c-0.775,0.441-1.161,1.123-1.169,2.015
		c-0.006,0.422-0.002,0.844-0.002,1.307c-0.098,0-0.161,0-0.227,0.001c-0.562,0.006-0.676,0.12-0.676,0.678c0,1.193,0,2.388,0,3.583
		c0,1.4-0.001,2.802,0.001,4.203c0.001,0.404,0.158,0.56,0.563,0.563c0.108,0.001,0.217,0,0.338,0v1.169
		c0.002,1.508,0.936,2.442,2.445,2.442h10.808c0.863,0,1.73,0.011,2.594-0.003c1.074-0.017,1.965-0.78,2.166-1.834
		c0.02-0.101,0.035-0.207,0.053-0.326V25.969z M11.435,12.727c0-1.57-0.102-3.127,0.027-4.665c0.164-1.963,1.99-3.447,4.003-3.441
		c1.992,0.005,3.732,1.504,3.994,3.445c0.031,0.241,0.051,0.486,0.051,0.73c0.006,1.304,0.002,2.609,0.002,3.932H11.435z
		 M8.677,8.729c0.01-3.408,2.391-6.195,5.758-6.745C18,1.401,21.528,3.929,22.108,7.493c0.068,0.425,0.104,0.859,0.109,1.291
		c0.01,1.305,0.004,2.612,0.004,3.951h-1.807v-0.306c0-1.231,0.004-2.463,0-3.695c-0.01-2.864-2.26-5.068-5.119-5.014
		c-2.585,0.049-4.769,2.227-4.808,4.814c-0.02,1.288-0.004,2.576-0.006,3.864v0.328H8.691c-0.005-0.082-0.015-0.163-0.015-0.245
		C8.677,11.23,8.673,9.979,8.677,8.729z M10.921,21.76h-4.48v-1.771h4.48V21.76z M6.433,17.275h4.477v1.771H6.433V17.275z
		 M6.433,24.463v-1.771h4.479v1.771H6.433z"/>
	<path fill-rule="evenodd" clip-rule="evenodd" d="M16.803,19.404c0,0.527,0.01,1.053-0.004,1.579
		c-0.008,0.222,0.051,0.376,0.219,0.536c0.695,0.66,0.879,1.671,0.484,2.539c-0.385,0.85-1.262,1.397-2.174,1.318
		c-0.968-0.085-1.665-0.581-1.993-1.502c-0.324-0.909-0.102-1.723,0.584-2.397c0.125-0.122,0.178-0.236,0.178-0.41
		c-0.006-1.129-0.01-2.255,0-3.383c0.006-0.65,0.471-1.182,1.114-1.307c0.586-0.114,1.215,0.203,1.459,0.766
		c0.078,0.184,0.119,0.396,0.127,0.599C16.815,18.295,16.803,18.85,16.803,19.404z M15.901,19.629c0-0.621,0.002-1.24-0.002-1.859
		c-0.004-0.328-0.223-0.541-0.504-0.506c-0.248,0.031-0.397,0.22-0.397,0.528c-0.002,1.185-0.01,2.366,0.004,3.55
		c0.004,0.313-0.086,0.524-0.358,0.7c-0.52,0.339-0.709,0.965-0.514,1.538c0.189,0.559,0.698,0.919,1.288,0.915
		c0.592-0.003,1.125-0.387,1.307-0.938c0.184-0.556,0.01-1.162-0.479-1.502c-0.264-0.183-0.361-0.396-0.352-0.708
		C15.913,20.776,15.901,20.203,15.901,19.629z"/>
</g>
</svg>
