<?xml version="1.0" encoding="utf-8"?>
<!-- Generator: Adobe Illustrator 16.0.0, SVG Export Plug-In . SVG Version: 6.00 Build 0)  -->
<!DOCTYPE svg PUBLIC "-//W3C//DTD SVG 1.1//EN" "http://www.w3.org/Graphics/SVG/1.1/DTD/svg11.dtd">
<svg version="1.1" id="Layer_1" xmlns="http://www.w3.org/2000/svg" xmlns:xlink="http://www.w3.org/1999/xlink" x="0px" y="0px"
	 width="30px" height="30px" viewBox="0 0 30 30" enable-background="new 0 0 30 30" xml:space="preserve">
<path fill-rule="evenodd" clip-rule="evenodd" d="M26.921,0.999c0.2,0,0.401,0,0.603,0c0.387,0.135,0.783,0.272,1.025,0.622
	C28.733,1.883,28.851,2.189,29,2.476c0,0.201,0,0.401,0,0.602c-0.014,0.024-0.034,0.047-0.04,0.072
	c-0.227,1.148-1.514,1.774-2.577,1.239c-0.062-0.031-0.204,0.021-0.265,0.079c-0.599,0.586-1.188,1.18-1.779,1.774
	c-0.041,0.042-0.073,0.095-0.106,0.138c0.021,0.031,0.027,0.048,0.04,0.061c1.722,1.897,2.794,4.106,3.204,6.637
	c0.012,0.074,0.124,0.164,0.207,0.19c0.646,0.209,1.069,0.632,1.26,1.287c0.012,0.041,0.037,0.078,0.057,0.117
	c0,0.219,0,0.438,0,0.657c-0.014,0.012-0.033,0.022-0.037,0.037c-0.179,0.716-0.627,1.169-1.332,1.384
	c-0.072,0.021-0.148,0.143-0.162,0.229c-0.328,1.961-1.057,3.757-2.221,5.371c-0.317,0.44-0.67,0.855-1.025,1.306
	c0.649,0.646,1.297,1.296,1.958,1.935c0.047,0.045,0.197,0.027,0.278-0.01c0.961-0.434,2.083,0.039,2.436,1.034
	c0.035,0.103,0.069,0.206,0.105,0.309c0,0.199,0,0.4,0,0.602c-0.154,0.292-0.281,0.605-0.47,0.875
	c-0.237,0.34-0.633,0.465-1.007,0.602c-0.201,0-0.402,0-0.603,0c-0.032-0.016-0.063-0.037-0.097-0.046
	c-1.175-0.316-1.715-1.435-1.211-2.539c0.065-0.146,0.014-0.211-0.075-0.3c-0.574-0.571-1.146-1.146-1.72-1.718
	c-0.062-0.062-0.127-0.119-0.185-0.173c-0.043,0.027-0.062,0.033-0.073,0.047c-1.898,1.721-4.106,2.795-6.637,3.205
	c-0.076,0.012-0.165,0.123-0.191,0.205c-0.206,0.64-0.624,1.056-1.261,1.256c-0.049,0.016-0.097,0.042-0.144,0.063
	c-0.22,0-0.438,0-0.657,0c-0.012-0.014-0.022-0.033-0.037-0.037c-0.717-0.179-1.169-0.627-1.384-1.332
	c-0.022-0.072-0.143-0.148-0.227-0.162c-1.961-0.329-3.759-1.055-5.372-2.222c-0.44-0.317-0.856-0.669-1.302-1.021
	c-0.621,0.622-1.241,1.25-1.87,1.866c-0.123,0.121-0.143,0.208-0.068,0.371c0.46,1.004-0.072,2.153-1.129,2.468
	C3.214,28.952,3.146,28.976,3.078,29c-0.2,0-0.401,0-0.602,0c-0.287-0.149-0.591-0.269-0.854-0.451
	C1.272,28.306,1.134,27.91,1,27.523c0-0.201,0-0.402,0-0.602c0.013-0.024,0.032-0.047,0.037-0.073
	c0.231-1.156,1.524-1.771,2.58-1.238c0.061,0.031,0.203-0.02,0.263-0.078c0.593-0.579,1.176-1.167,1.761-1.754
	c0.048-0.049,0.088-0.106,0.127-0.154c-0.021-0.034-0.028-0.052-0.041-0.064c-1.721-1.898-2.795-4.105-3.205-6.637
	c-0.012-0.075-0.123-0.164-0.206-0.19c-0.638-0.206-1.055-0.624-1.255-1.261C1.046,15.421,1.021,15.375,1,15.328
	c0-0.219,0-0.438,0-0.657c0.023-0.057,0.049-0.113,0.068-0.17c0.203-0.613,0.601-1.033,1.225-1.215
	c0.164-0.047,0.223-0.117,0.25-0.289c0.347-2.124,1.177-4.041,2.499-5.741c0.233-0.3,0.483-0.586,0.74-0.896
	c-0.632-0.631-1.259-1.251-1.877-1.88c-0.119-0.122-0.206-0.144-0.37-0.068c-0.995,0.457-2.13-0.058-2.46-1.102
	C1.052,3.231,1.026,3.154,1,3.077c0-0.2,0-0.401,0-0.602c0.192-0.332,0.333-0.714,0.592-0.981c0.226-0.232,0.584-0.335,0.884-0.495
	c0.201,0,0.401,0,0.602,0c0.033,0.015,0.064,0.036,0.098,0.045c1.175,0.317,1.707,1.42,1.212,2.54
	C4.323,3.731,4.373,3.795,4.462,3.883c0.594,0.59,1.185,1.184,1.779,1.775C6.284,5.7,6.336,5.733,6.379,5.766
	C6.41,5.746,6.427,5.739,6.44,5.727c1.897-1.722,4.105-2.795,6.637-3.205c0.074-0.012,0.164-0.124,0.19-0.207
	c0.199-0.615,0.595-1.031,1.209-1.238c0.066-0.022,0.131-0.052,0.195-0.079c0.219,0,0.438,0,0.657,0
	c0.013,0.013,0.022,0.033,0.038,0.036c0.715,0.18,1.169,0.627,1.383,1.333c0.021,0.072,0.144,0.148,0.229,0.162
	c1.952,0.325,3.741,1.05,5.35,2.204c0.448,0.322,0.87,0.681,1.324,1.039c0.621-0.623,1.24-1.25,1.869-1.868
	c0.123-0.121,0.141-0.208,0.067-0.37c-0.466-1.014,0.081-2.172,1.155-2.475C26.803,1.042,26.862,1.02,26.921,0.999z M26.658,13.282
	c-0.008-0.089-0.009-0.162-0.021-0.232c-0.778-4.861-4.802-8.892-9.664-9.69c-0.194-0.031-0.277,0.025-0.366,0.203
	c-0.329,0.662-0.878,1.015-1.619,1.011c-0.731-0.004-1.26-0.364-1.599-1.007c-0.037-0.071-0.069-0.145-0.115-0.241
	C10.533,3.76,8.223,4.99,6.344,7.014c-1.646,1.775-2.652,3.867-3.015,6.263c0.783,0.329,1.235,0.872,1.244,1.701
	c0.008,0.854-0.453,1.41-1.215,1.731c0.196,2.086,1.396,4.746,3.354,6.658c1.84,1.797,4.019,2.908,6.565,3.302
	c0.331-0.787,0.88-1.243,1.722-1.243c0.854-0.002,1.4,0.473,1.722,1.226c5.275-0.683,9.386-5.24,9.921-9.942
	c-0.774-0.326-1.234-0.892-1.215-1.758C25.445,14.133,25.899,13.602,26.658,13.282z M3.758,14.998
	c-0.001-0.537-0.444-0.978-0.976-0.972c-0.523,0.006-0.955,0.438-0.961,0.961c-0.006,0.534,0.431,0.982,0.963,0.985
	C3.315,15.977,3.759,15.533,3.758,14.998z M28.178,15.006c0.004-0.533-0.438-0.98-0.969-0.981c-0.532-0.001-0.972,0.444-0.968,0.98
	c0.004,0.525,0.43,0.958,0.953,0.965C27.723,15.981,28.174,15.538,28.178,15.006z M15.004,28.178
	c0.531-0.003,0.976-0.452,0.968-0.98c-0.006-0.524-0.438-0.952-0.963-0.956c-0.536-0.006-0.982,0.432-0.983,0.964
	C14.025,27.737,14.471,28.18,15.004,28.178z M14.994,3.757c0.536,0.003,0.98-0.436,0.979-0.968C15.971,2.269,15.541,1.83,15.02,1.82
	c-0.533-0.01-0.983,0.423-0.994,0.957C14.017,3.307,14.458,3.754,14.994,3.757z M28.179,2.788c-0.001-0.535-0.442-0.971-0.978-0.968
	c-0.538,0.004-0.969,0.446-0.96,0.984c0.008,0.53,0.432,0.95,0.962,0.952C27.742,3.76,28.18,3.325,28.179,2.788z M2.78,3.757
	c0.541,0.006,0.976-0.423,0.978-0.964C3.76,2.265,3.339,1.832,2.815,1.82C2.278,1.809,1.83,2.237,1.821,2.772
	C1.813,3.31,2.242,3.751,2.78,3.757z M2.795,26.241c-0.539-0.002-0.976,0.432-0.975,0.969c0.002,0.537,0.443,0.973,0.979,0.969
	c0.525-0.005,0.952-0.431,0.959-0.959C3.766,26.679,3.337,26.244,2.795,26.241z M27.213,28.178c0.536-0.004,0.972-0.447,0.966-0.981
	c-0.007-0.526-0.434-0.951-0.962-0.956c-0.541-0.005-0.976,0.425-0.976,0.966C26.242,27.745,26.678,28.181,27.213,28.178z"/>
<path fill-rule="evenodd" clip-rule="evenodd" d="M8.467,10.121c-0.112,0.163-0.228,0.335-0.349,0.505
	c-0.169,0.24-0.403,0.305-0.606,0.17c-0.203-0.134-0.238-0.373-0.073-0.625c1.375-2.11,3.292-3.457,5.759-3.961
	c4.648-0.951,9.195,1.861,10.457,6.435c0.348,1.257,0.403,2.531,0.199,3.817c-0.046,0.294-0.226,0.446-0.476,0.412
	c-0.24-0.03-0.365-0.209-0.339-0.5c0.028-0.307,0.069-0.611,0.108-0.94c-1.116,0-2.204,0-3.265,0
	c-0.145,1.126-0.29,2.241-0.438,3.376c0.65,0.331,1.351,0.689,2.112,1.079c0.246-0.421,0.511-0.873,0.772-1.326
	c0.059-0.104,0.1-0.214,0.151-0.321c0.137-0.282,0.357-0.387,0.586-0.277c0.216,0.103,0.282,0.334,0.163,0.607
	c-0.485,1.117-1.15,2.118-2.055,2.934c-2.629,2.369-5.675,3.103-9.026,1.977c-3.317-1.116-5.304-3.517-5.986-6.95
	c-0.293-1.473-0.149-2.938,0.321-4.368c0.101-0.306,0.306-0.44,0.541-0.365c0.248,0.08,0.322,0.294,0.251,0.604
	c-0.143,0.628-0.268,1.261-0.397,1.893c-0.018,0.086-0.014,0.177-0.021,0.28c1.114,0,2.204,0,3.255,0
	c0.147-1.137,0.292-2.252,0.438-3.387C9.905,10.857,9.204,10.498,8.467,10.121z M21.527,10.124c-0.73,0.374-1.43,0.732-2.081,1.065
	c0.147,1.13,0.292,2.245,0.438,3.383c1.05,0,2.145,0,3.258,0C23.038,12.913,22.504,11.435,21.527,10.124z M10.154,15.439
	c-1.098,0-2.191,0-3.295,0c0.108,1.666,0.645,3.143,1.613,4.436c0.73-0.375,1.431-0.732,2.118-1.085
	c-0.096-0.555-0.211-1.107-0.284-1.666C10.235,16.568,10.204,16.004,10.154,15.439z M10.944,14.567c1.271,0,2.447,0,3.622,0
	c0-0.875,0-1.724,0-2.52c-1.076-0.18-2.119-0.354-3.234-0.541C11.207,12.494,11.077,13.517,10.944,14.567z M15.436,12.045
	c0,0.828,0,1.676,0,2.531c1.195,0,2.366,0,3.621,0c-0.135-1.056-0.267-2.085-0.392-3.068C17.544,11.695,16.5,11.869,15.436,12.045z
	 M14.572,17.95c0-0.817,0-1.66,0-2.517c-1.194,0-2.371,0-3.628,0c0.134,1.056,0.265,2.077,0.39,3.057
	C12.453,18.303,13.499,18.129,14.572,17.95z M15.428,15.428c0,0.877,0,1.721,0,2.521c1.07,0.18,2.116,0.353,3.188,0.532
	c0.232-0.968,0.366-1.996,0.379-3.054C17.792,15.428,16.621,15.428,15.428,15.428z M15.43,23.082
	c1.187-0.232,2.783-2.305,2.909-3.75c-0.941-0.291-1.903-0.452-2.909-0.484C15.43,20.266,15.43,21.665,15.43,23.082z M14.568,11.219
	c0-1.502,0-2.899,0-4.3c-1.229,0.183-2.492,2.022-2.929,3.81C12.607,10.891,13.57,11.052,14.568,11.219z M11.601,19.277
	c0.355,1.095,0.779,2.035,1.468,2.836c0.33,0.384,0.712,0.705,1.192,0.89c0.096,0.038,0.196,0.061,0.307,0.094
	c0-1.438,0-2.835,0-4.316C13.569,18.947,12.606,19.108,11.601,19.277z M18.379,10.651c-0.091-0.256-0.169-0.498-0.265-0.732
	c-0.363-0.894-0.812-1.732-1.538-2.392c-0.325-0.296-0.688-0.525-1.14-0.623c0,1.429,0,2.833,0,4.249
	C16.45,11.11,17.416,10.959,18.379,10.651z M19.167,19.581c-0.39,1.182-0.89,2.234-1.72,3.194c1.412-0.463,2.554-1.19,3.552-2.255
	C20.375,20.201,19.796,19.904,19.167,19.581z M12.554,7.22c-1.411,0.46-2.556,1.187-3.552,2.26c0.624,0.317,1.216,0.619,1.832,0.933
	C11.227,9.226,11.726,8.175,12.554,7.22z M20.994,9.48c-1.006-1.064-2.139-1.796-3.451-2.224c0.314,0.495,0.654,0.969,0.924,1.479
	c0.274,0.518,0.479,1.073,0.735,1.662C19.787,10.098,20.373,9.798,20.994,9.48z M9.007,20.517c1.006,1.064,2.138,1.795,3.475,2.207
	c-0.77-0.912-1.256-1.971-1.653-3.14C10.213,19.9,9.628,20.2,9.007,20.517z"/>
</svg>
