<?xml version="1.0" encoding="utf-8"?>
<!-- Generator: Adobe Illustrator 16.0.0, SVG Export Plug-In . SVG Version: 6.00 Build 0)  -->
<!DOCTYPE svg PUBLIC "-//W3C//DTD SVG 1.1//EN" "http://www.w3.org/Graphics/SVG/1.1/DTD/svg11.dtd">
<svg version="1.1" id="Layer_1" xmlns="http://www.w3.org/2000/svg" xmlns:xlink="http://www.w3.org/1999/xlink" x="0px" y="0px"
	 width="30px" height="30px" viewBox="0 0 30 30" enable-background="new 0 0 30 30" xml:space="preserve">
<g>
	<path fill-rule="evenodd" clip-rule="evenodd" d="M21.944,1c0.664,0.245,0.896,0.727,0.889,1.423
		c-0.023,2.315-0.009,4.629-0.009,6.944c0,0.108,0,0.217,0,0.355c0.112,0.005,0.208,0.013,0.306,0.013
		c1.094,0.001,2.187-0.001,3.28,0.001c0.73,0.001,1.114,0.384,1.115,1.11c0.001,1.54,0,3.081,0,4.622
		c0,0.045,0.002,0.09-0.001,0.135c-0.012,0.262-0.165,0.43-0.393,0.438c-0.24,0.008-0.42-0.164-0.423-0.436
		c-0.008-0.574-0.004-1.148-0.004-1.722c0-0.966,0-1.932,0-2.898c0-0.429,0-0.429-0.418-0.429c-2.296,0-4.593,0-6.89,0
		c-5.221,0-10.443,0-15.665,0c-0.438,0-0.438,0-0.438,0.437c0,3.8,0,7.601,0,11.399c0,0.445,0,0.445,0.458,0.445
		c0.154,0,0.308,0,0.505,0c0-0.127,0-0.232,0-0.338c0-1.285-0.001-2.568,0-3.854c0.001-0.729,0.346-1.068,1.075-1.068
		c6.443,0,12.885,0,19.329,0c0.742,0,1.079,0.34,1.08,1.09c0.002,1.268,0.001,2.533,0.001,3.801c0,0.107,0,0.215,0,0.363
		c0.282,0,0.543,0.018,0.799-0.012c0.063-0.008,0.153-0.166,0.157-0.258c0.017-0.428,0.007-0.857,0.007-1.285
		c0-1.184,0-2.369,0.001-3.555c0-0.09-0.005-0.186,0.019-0.27c0.053-0.199,0.194-0.314,0.398-0.309
		c0.216,0.004,0.354,0.129,0.396,0.346c0.013,0.063,0.007,0.127,0.007,0.191c0,1.631,0.001,3.262-0.001,4.893
		c-0.001,0.689-0.394,1.082-1.088,1.084c-1.093,0.002-2.187,0-3.28,0c-0.099,0-0.197,0-0.332,0c0,0.123,0,0.221,0,0.316
		c0,1.193-0.021,2.389,0.008,3.58c0.018,0.725-0.252,1.209-0.941,1.445c-4.595,0-9.188,0-13.782,0
		c-0.689-0.236-0.959-0.721-0.942-1.443c0.03-1.191,0.008-2.385,0.008-3.578c0-0.098,0-0.193,0-0.32c-0.133,0-0.23,0-0.329,0
		c-1.093,0-2.186,0.002-3.279,0c-0.706-0.002-1.093-0.393-1.093-1.104c0-3.908-0.001-7.816,0-11.723c0-0.707,0.39-1.093,1.102-1.095
		c1.093-0.002,2.186,0,3.279,0c0.098,0,0.195,0,0.32,0c0-0.131,0-0.229,0-0.327c0-1.466,0.003-2.933-0.004-4.399
		C7.17,4.774,7.236,4.597,7.406,4.429C8.556,3.291,9.698,2.144,10.843,1c1.112,0,2.224,0,3.336,0
		c0.186,0.135,0.339,0.29,0.244,0.545c-0.092,0.25-0.302,0.279-0.536,0.277c-0.665-0.006-1.33-0.002-1.996-0.002
		c-0.151,0-0.302,0-0.469,0c0,0.75,0.003,1.461-0.001,2.171c-0.005,0.8-0.462,1.256-1.255,1.26c-0.392,0.001-0.784,0-1.176,0
		c-0.325,0-0.649,0-0.981,0c0,1.509,0,2.981,0,4.467c4.667,0,9.318,0,13.994,0c0-0.106,0-0.195,0-0.285c0-2.379,0-4.758-0.001-7.136
		c0-0.399-0.077-0.478-0.479-0.478c-1.805,0-3.609-0.001-5.414,0.002c-0.233,0-0.444-0.027-0.536-0.277
		C15.48,1.29,15.634,1.135,15.819,1C17.861,1,19.903,1,21.944,1z M7.996,21.043c0,0.113,0,0.195,0,0.277c0,2.111,0,4.227,0,6.34
		c0,0.426,0.096,0.52,0.535,0.52c4.317,0,8.635,0,12.953,0c0.42,0,0.52-0.098,0.52-0.508c0.001-2.123,0.001-4.246,0-6.367
		c0-0.088-0.01-0.174-0.017-0.262C17.314,21.043,12.672,21.043,7.996,21.043z M5.081,20.193c6.623,0,13.215,0,19.841,0
		c0-0.479,0-0.939,0-1.402c0-0.393-0.001-0.393-0.38-0.393c-6.361,0-12.723,0-19.085,0c-0.073,0-0.153-0.02-0.217,0.006
		c-0.062,0.023-0.152,0.092-0.153,0.141C5.076,19.088,5.081,19.633,5.081,20.193z M5.095,22.822c0.694,0,1.371,0,2.061,0
		c0-0.6,0-1.184,0-1.771c-0.697,0-1.375,0-2.061,0C5.095,21.648,5.095,22.227,5.095,22.822z M24.905,21.047
		c-0.694,0-1.371,0-2.063,0c0,0.598,0,1.184,0,1.771c0.696,0,1.375,0,2.063,0C24.905,22.221,24.905,21.643,24.905,21.047z
		 M10.6,2.565C9.984,3.181,9.344,3.82,8.734,4.431c0.449,0,0.967,0,1.485,0c0.225,0,0.375-0.102,0.378-0.336
		C10.606,3.561,10.6,3.026,10.6,2.565z"/>
	<path fill-rule="evenodd" clip-rule="evenodd" d="M23.132,15.404c-0.766,0.006-1.395-0.613-1.396-1.377
		c-0.002-0.749,0.615-1.374,1.363-1.382c0.771-0.008,1.4,0.599,1.41,1.363S23.9,15.398,23.132,15.404z M23.688,14.027
		c0.001-0.299-0.252-0.556-0.556-0.561s-0.563,0.24-0.573,0.542c-0.012,0.313,0.25,0.576,0.567,0.574
		C23.433,14.58,23.686,14.332,23.688,14.027z"/>
	<path fill-rule="evenodd" clip-rule="evenodd" d="M15,25.5c1.667,0,3.335,0,5.003,0c0.082,0,0.165-0.006,0.246,0.006
		c0.229,0.035,0.367,0.178,0.367,0.406c0,0.225-0.137,0.369-0.367,0.404c-0.072,0.01-0.146,0.004-0.219,0.004
		c-3.354,0-6.708,0-10.063,0c-0.072,0-0.146,0.006-0.218-0.004c-0.23-0.035-0.367-0.18-0.367-0.404c0-0.229,0.138-0.371,0.368-0.406
		c0.08-0.012,0.163-0.006,0.246-0.006C11.664,25.5,13.332,25.5,15,25.5z"/>
	<path fill-rule="evenodd" clip-rule="evenodd" d="M15,24.576c-1.667,0-3.335,0-5.003,0c-0.082,0-0.165,0.006-0.246-0.002
		c-0.224-0.023-0.35-0.162-0.368-0.375c-0.017-0.201,0.087-0.355,0.289-0.41c0.111-0.031,0.233-0.031,0.351-0.031
		c3.317-0.002,6.634-0.002,9.952,0c0.117,0,0.239,0,0.351,0.031c0.2,0.055,0.307,0.207,0.29,0.41
		c-0.017,0.211-0.143,0.352-0.366,0.373c-0.081,0.01-0.164,0.004-0.246,0.004C18.335,24.576,16.668,24.576,15,24.576z"/>
	<path fill-rule="evenodd" clip-rule="evenodd" d="M15.028,22.023c1.648,0,3.298,0,4.947,0.002c0.101,0,0.201-0.006,0.3,0.012
		c0.218,0.039,0.342,0.184,0.341,0.396c-0.002,0.215-0.121,0.361-0.343,0.396c-0.089,0.014-0.182,0.014-0.272,0.014
		c-3.335,0-6.67,0-10.004,0c-0.019,0-0.037,0-0.055,0c-0.366-0.004-0.564-0.15-0.563-0.41c0-0.264,0.199-0.408,0.565-0.408
		C11.638,22.023,13.333,22.023,15.028,22.023z"/>
</g>
</svg>
