<?xml version="1.0" encoding="utf-8"?>
<!-- Generator: Adobe Illustrator 16.0.0, SVG Export Plug-In . SVG Version: 6.00 Build 0)  -->
<!DOCTYPE svg PUBLIC "-//W3C//DTD SVG 1.1//EN" "http://www.w3.org/Graphics/SVG/1.1/DTD/svg11.dtd">
<svg version="1.1" id="Layer_1" xmlns="http://www.w3.org/2000/svg" xmlns:xlink="http://www.w3.org/1999/xlink" x="0px" y="0px"
	 width="30px" height="30px" viewBox="0 0 30 30" enable-background="new 0 0 30 30" xml:space="preserve">
<path fill-rule="evenodd" clip-rule="evenodd" d="M30,24.667c-0.076,0.33-0.127,0.668-0.23,0.99
	c-0.592,1.842-1.835,3.016-3.69,3.549c-0.057,0.016-0.114,0.029-0.172,0.035c-0.277,0.033-0.493-0.1-0.527-0.34
	c-0.038-0.262,0.083-0.441,0.336-0.506c0.572-0.148,1.106-0.375,1.589-0.721c1.546-1.107,2.192-3.109,1.584-4.914
	c-0.603-1.789-2.327-2.996-4.215-2.947c-2.163,0.055-3.919,1.668-4.207,3.869c-0.267,2.029,1.112,4.068,3.139,4.643
	c0.104,0.029,0.21,0.051,0.308,0.092c0.216,0.092,0.32,0.264,0.269,0.492c-0.052,0.225-0.21,0.365-0.447,0.336
	c-0.211-0.027-0.421-0.084-0.623-0.152c-2.29-0.779-3.769-3.051-3.529-5.412c0.249-2.457,2.093-4.369,4.535-4.695
	c0.179-0.023,0.229-0.088,0.226-0.256c-0.007-0.547-0.008-1.094,0.001-1.641c0.003-0.156-0.06-0.221-0.198-0.27
	c-0.578-0.203-0.977-0.598-1.181-1.176c-0.055-0.156-0.132-0.205-0.294-0.205c-1.854,0.006-3.71,0.006-5.565,0
	c-0.167,0-0.233,0.061-0.291,0.211c-0.308,0.801-0.997,1.283-1.813,1.283c-0.817,0-1.513-0.48-1.815-1.281
	c-0.064-0.17-0.151-0.213-0.319-0.213c-1.835,0.006-3.671,0.006-5.507,0c-0.184-0.002-0.271,0.049-0.336,0.23
	c-0.198,0.555-0.586,0.941-1.141,1.139c-0.183,0.064-0.233,0.154-0.229,0.336c0.011,0.518,0.01,1.035,0.001,1.553
	c-0.004,0.189,0.045,0.268,0.252,0.293c2.531,0.313,4.497,2.521,4.523,5.068c0.026,2.635-1.854,4.865-4.422,5.248
	c-2.887,0.43-5.547-1.545-5.956-4.42C0.045,24.832,0.018,24.779,0,24.726c0-0.371,0-0.742,0-1.113
	c0.018-0.064,0.044-0.129,0.054-0.195c0.333-2.32,2.167-4.133,4.494-4.432c0.169-0.021,0.238-0.07,0.235-0.248
	c-0.009-0.547-0.011-1.092,0.001-1.639c0.004-0.174-0.071-0.23-0.217-0.283c-0.565-0.201-0.961-0.59-1.16-1.156
	C3.34,15.47,3.24,15.437,3.064,15.439c-0.8,0.008-1.6-0.004-2.399,0.008C0.396,15.449,0.168,15.396,0,15.175
	c0-0.117,0-0.234,0-0.352c0.161-0.212,0.376-0.268,0.638-0.264c0.81,0.012,1.621,0,2.431,0.008c0.181,0.002,0.27-0.043,0.336-0.227
	c0.287-0.788,1-1.277,1.818-1.275c0.817,0.002,1.51,0.488,1.811,1.287c0.056,0.147,0.115,0.215,0.286,0.214
	c1.884-0.007,3.769-0.004,5.654-0.005c0.039,0,0.077-0.008,0.131-0.015c0.208-0.685,0.637-1.166,1.326-1.408
	c0.062-0.021,0.122-0.144,0.123-0.22c0.011-0.557,0.002-1.113,0.008-1.67c0.002-0.159-0.056-0.214-0.216-0.237
	c-2.729-0.387-4.616-2.608-4.56-5.359C9.84,3,12.099,0.718,14.752,0.638c2.547-0.078,4.708,1.531,5.308,3.95
	c0.087,0.353-0.017,0.584-0.294,0.655c-0.261,0.067-0.458-0.084-0.553-0.424c-0.588-2.1-2.325-3.382-4.472-3.3
	c-1.812,0.069-3.434,1.389-3.931,3.199c-0.493,1.794,0.251,3.741,1.818,4.758c2.466,1.602,5.766,0.345,6.551-2.494
	c0.013-0.047,0.026-0.094,0.039-0.141c0.091-0.311,0.289-0.453,0.551-0.393c0.252,0.058,0.386,0.299,0.305,0.601
	c-0.508,1.9-1.693,3.169-3.565,3.783c-0.275,0.09-0.568,0.139-0.856,0.179c-0.162,0.022-0.217,0.083-0.215,0.24
	c0.006,0.556-0.003,1.113,0.008,1.669c0.001,0.077,0.062,0.199,0.122,0.22c0.689,0.242,1.118,0.724,1.331,1.423
	c0.539,0,1.065,0,1.592,0c1.377,0,2.754-0.003,4.131,0.004c0.192,0.001,0.284-0.046,0.355-0.242c0.28-0.771,0.995-1.258,1.799-1.26
	c0.807-0.002,1.529,0.483,1.809,1.248c0.075,0.206,0.175,0.256,0.376,0.253c0.801-0.01,1.602,0.004,2.402-0.008
	c0.261-0.004,0.476,0.054,0.638,0.264c0,0.117,0,0.234,0,0.352c-0.169,0.221-0.396,0.273-0.665,0.271
	c-0.81-0.012-1.619-0.002-2.43-0.006c-0.151-0.002-0.245,0.025-0.303,0.191c-0.203,0.59-0.607,0.99-1.198,1.191
	c-0.145,0.051-0.19,0.127-0.188,0.275c0.008,0.537,0.008,1.074,0,1.609c-0.003,0.176,0.038,0.254,0.235,0.279
	c2.123,0.268,3.855,1.809,4.383,3.887c0.063,0.244,0.11,0.492,0.165,0.738C30,23.964,30,24.316,30,24.667z M5.191,28.486
	c2.4,0.012,4.352-1.916,4.361-4.307c0.009-2.396-1.922-4.354-4.31-4.367c-2.385-0.014-4.355,1.934-4.363,4.316
	C0.87,26.527,2.797,28.474,5.191,28.486z M24.791,16.054c0.585-0.004,1.056-0.484,1.048-1.07c-0.007-0.573-0.476-1.036-1.05-1.039
	c-0.588-0.003-1.061,0.467-1.06,1.055C23.729,15.587,24.203,16.058,24.791,16.054z M5.203,16.054
	c0.588,0.006,1.065-0.463,1.068-1.049c0.003-0.575-0.454-1.047-1.025-1.06c-0.588-0.013-1.074,0.449-1.084,1.033
	C4.15,15.564,4.619,16.046,5.203,16.054z M16.054,15.003c0.003-0.586-0.471-1.06-1.058-1.058c-0.575,0.001-1.043,0.462-1.051,1.036
	c-0.008,0.587,0.458,1.067,1.043,1.073C15.576,16.058,16.052,15.589,16.054,15.003z"/>
<path fill-rule="evenodd" clip-rule="evenodd" d="M15,7.976c-0.557,0-1.112,0.002-1.668-0.001c-0.33-0.001-0.516-0.155-0.525-0.419
	c-0.008-0.274,0.191-0.456,0.525-0.457c1.112-0.004,2.225-0.004,3.337,0c0.334,0.001,0.534,0.184,0.524,0.457
	C17.184,7.822,17,7.973,16.668,7.975C16.112,7.978,15.556,7.976,15,7.976z"/>
<path fill-rule="evenodd" clip-rule="evenodd" d="M14.984,4.58c-0.263,0-0.526,0.007-0.789-0.002
	c-0.269-0.009-0.428-0.166-0.438-0.41c-0.01-0.242,0.139-0.443,0.398-0.452c0.564-0.019,1.128-0.019,1.692,0
	c0.259,0.009,0.406,0.212,0.395,0.455c-0.011,0.243-0.171,0.398-0.44,0.407C15.529,4.586,15.256,4.58,14.984,4.58z"/>
<path fill-rule="evenodd" clip-rule="evenodd" d="M24.808,25.417c0.557,0.002,1.112-0.002,1.668,0.002
	c0.312,0.002,0.487,0.154,0.497,0.414c0.011,0.268-0.176,0.459-0.491,0.461c-1.132,0.006-2.264,0.006-3.395,0
	c-0.313-0.002-0.507-0.193-0.5-0.455c0.007-0.264,0.195-0.418,0.523-0.42C23.676,25.416,24.243,25.417,24.808,25.417z"/>
<path fill-rule="evenodd" clip-rule="evenodd" d="M24.763,22.902c-0.243,0-0.486,0.006-0.729-0.002
	c-0.315-0.01-0.5-0.184-0.494-0.453c0.006-0.262,0.18-0.42,0.488-0.422c0.506-0.006,1.012-0.006,1.519,0
	c0.304,0.004,0.479,0.168,0.479,0.43s-0.175,0.434-0.475,0.445C25.29,22.91,25.026,22.902,24.763,22.902z"/>
<path fill-rule="evenodd" clip-rule="evenodd" d="M5.244,25.417c0.556,0.002,1.112-0.002,1.668,0.002
	c0.308,0.002,0.49,0.158,0.5,0.414c0.011,0.262-0.184,0.459-0.494,0.461c-1.132,0.006-2.263,0.006-3.395,0
	c-0.317-0.002-0.503-0.188-0.497-0.455c0.007-0.268,0.188-0.418,0.521-0.42C4.113,25.416,4.679,25.417,5.244,25.417z"/>
<path fill-rule="evenodd" clip-rule="evenodd" d="M5.228,22.025c0.263,0,0.526-0.008,0.788,0.002
	c0.268,0.008,0.431,0.164,0.443,0.406c0.014,0.25-0.151,0.453-0.421,0.461c-0.544,0.016-1.09,0.016-1.635,0.002
	c-0.272-0.008-0.438-0.205-0.429-0.457c0.008-0.252,0.177-0.402,0.465-0.416c0.02,0,0.039,0,0.059,0c0.243,0,0.487,0,0.73,0
	C5.228,22.023,5.228,22.023,5.228,22.025z"/>
</svg>
