<?xml version="1.0" encoding="utf-8"?>
<!-- Generator: Adobe Illustrator 16.0.0, SVG Export Plug-In . SVG Version: 6.00 Build 0)  -->
<!DOCTYPE svg PUBLIC "-//W3C//DTD SVG 1.1//EN" "http://www.w3.org/Graphics/SVG/1.1/DTD/svg11.dtd">
<svg version="1.1" id="Layer_1" xmlns="http://www.w3.org/2000/svg" xmlns:xlink="http://www.w3.org/1999/xlink" x="0px" y="0px"
	 width="30px" height="30px" viewBox="0 0 30 30" enable-background="new 0 0 30 30" xml:space="preserve">
<path fill-rule="evenodd" clip-rule="evenodd" d="M6.763,30.001c-0.114-0.047-0.231-0.09-0.343-0.146
	c-0.593-0.293-0.929-0.768-0.943-1.434c-0.016-0.73-0.004-1.463-0.004-2.217c-0.113-0.006-0.208-0.016-0.301-0.016
	c-0.615-0.002-1.23,0.002-1.845-0.002c-1.024-0.004-1.711-0.684-1.712-1.709c-0.002-3.299-0.001-6.6-0.001-9.899
	c0-1.553-0.001-3.105,0.001-4.658c0-0.116,0.001-0.238,0.036-0.346c0.066-0.212,0.232-0.317,0.45-0.293
	c0.214,0.023,0.357,0.153,0.385,0.377c0.013,0.106,0.007,0.214,0.007,0.322c0,4.726,0,9.452,0,14.177
	c0,0.977,0.178,1.152,1.165,1.152c0.594,0,1.187,0,1.815,0c0-0.15,0-0.273,0-0.398c0-6.424,0-12.849,0-19.273
	c0-1.186,0.64-1.824,1.828-1.824c4.188,0,8.378,0,12.565,0c0.115,0,0.23,0,0.367,0c0-0.794,0.018-1.563-0.006-2.33
	c-0.01-0.313-0.311-0.559-0.633-0.597c-0.096-0.012-0.195-0.007-0.293-0.007c-5.282,0-10.564,0-15.847,0
	c-0.713,0-0.962,0.251-0.962,0.971c0,1.943,0,3.886,0,5.829c0,0.098,0.006,0.196-0.006,0.292C2.455,8.21,2.304,8.342,2.074,8.354
	c-0.218,0.011-0.375-0.106-0.434-0.32C1.613,7.933,1.615,7.822,1.615,7.715c-0.001-1.884,0.027-3.77-0.012-5.653
	C1.581,1.055,1.91,0.341,2.896,0.001c5.645,0,11.29,0,16.935,0c0.123,0.053,0.25,0.098,0.369,0.158
	c0.58,0.295,0.904,0.767,0.918,1.42c0.016,0.73,0.004,1.462,0.004,2.235c0.221,0,0.422,0,0.623,0c0.527,0,1.053-0.004,1.582,0.001
	c0.949,0.01,1.65,0.697,1.652,1.647c0.008,1.992,0.004,3.984,0.002,5.976c0,0.341-0.168,0.544-0.438,0.547
	c-0.273,0.003-0.439-0.195-0.439-0.539c-0.002-1.933,0-3.867,0-5.8c0-0.694-0.26-0.953-0.953-0.953c-5.281,0-10.564,0-15.847,0
	c-0.699,0-0.952,0.251-0.952,0.948c0,7.508,0,15.016,0,22.526c0,0.705,0.247,0.955,0.943,0.955c5.292,0,10.584,0,15.875,0
	c0.672,0,0.934-0.262,0.934-0.941c0-1.689,0-3.379,0-5.068c0-0.088-0.006-0.178,0.006-0.264c0.031-0.221,0.168-0.354,0.385-0.377
	c0.219-0.021,0.385,0.08,0.451,0.293c0.035,0.107,0.035,0.23,0.035,0.346c0.002,1.602-0.029,3.203,0.012,4.803
	c0.027,1.016-0.291,1.748-1.295,2.088C18.053,30.001,12.408,30.001,6.763,30.001z"/>
<path fill-rule="evenodd" clip-rule="evenodd" d="M19.362,24.177c0.516,0.309,1.016,0.609,1.553,0.932
	c1.977-3.291,3.945-6.574,5.936-9.889c-0.525-0.315-1.029-0.619-1.549-0.93c-0.066,0.104-0.125,0.192-0.18,0.283
	c-1.221,2.033-2.439,4.066-3.66,6.099c-0.055,0.092-0.107,0.191-0.184,0.262c-0.16,0.152-0.354,0.168-0.537,0.047
	c-0.18-0.121-0.25-0.297-0.166-0.51c0.031-0.08,0.078-0.156,0.125-0.23c1.545-2.576,3.09-5.155,4.637-7.731
	c0.488-0.815,1.164-0.983,1.982-0.5c0.211,0.124,0.42,0.248,0.629,0.375c0.752,0.458,0.926,1.167,0.471,1.929
	c-1.268,2.116-2.539,4.233-3.809,6.351c-1.016,1.689-2.025,3.381-3.047,5.066c-0.107,0.178-0.26,0.342-0.422,0.473
	c-0.463,0.375-0.939,0.732-1.416,1.092c-0.426,0.324-0.859,0.365-1.252,0.131c-0.404-0.244-0.564-0.643-0.475-1.189
	c0.1-0.598,0.189-1.195,0.301-1.789c0.033-0.178,0.098-0.359,0.188-0.514c0.371-0.643,0.758-1.275,1.141-1.91
	c0.189-0.314,0.432-0.404,0.67-0.258c0.234,0.145,0.264,0.402,0.076,0.719C20.042,23.042,19.706,23.601,19.362,24.177z
	 M25.747,13.531c0.525,0.315,1.031,0.619,1.555,0.933c0.148-0.249,0.289-0.47,0.418-0.699c0.133-0.235,0.074-0.438-0.15-0.579
	c-0.271-0.173-0.547-0.339-0.828-0.495c-0.232-0.129-0.436-0.076-0.578,0.151C26.028,13.057,25.901,13.276,25.747,13.531z
	 M20.286,25.755c-0.418-0.25-0.791-0.471-1.197-0.713c-0.086,0.498-0.168,0.955-0.236,1.414c-0.01,0.063,0.025,0.166,0.074,0.195
	s0.158,0.018,0.209-0.021C19.51,26.355,19.877,26.07,20.286,25.755z"/>
<path fill-rule="evenodd" clip-rule="evenodd" d="M15.288,5.982c1.736,0,3.473,0,5.211,0c0.76,0,1.137,0.373,1.141,1.127
	c0,0.225,0.002,0.449-0.002,0.673c-0.008,0.659-0.402,1.057-1.063,1.058c-1.59,0.003-3.182,0.001-4.771,0.001
	c-1.902,0-3.806,0-5.708,0c-0.746,0-1.113-0.369-1.116-1.113c-0.001-0.224-0.001-0.449,0-0.673c0.005-0.688,0.384-1.071,1.068-1.072
	c1.571-0.002,3.143-0.001,4.714-0.001C14.936,5.982,15.112,5.982,15.288,5.982z M15.315,6.861c-1.571,0-3.142,0-4.713,0
	c-0.747,0-0.735,0-0.751,0.747C9.845,7.885,9.92,7.97,10.205,7.969c3.259-0.01,6.518-0.007,9.776-0.007c0.783,0,0.773,0,0.785-0.776
	c0.004-0.257-0.07-0.333-0.33-0.331C18.729,6.867,17.022,6.861,15.315,6.861z"/>
<path fill-rule="evenodd" clip-rule="evenodd" d="M13.922,25.025c-0.001,0.408,0.006,0.818-0.002,1.229
	c-0.014,0.705-0.477,1.266-1.171,1.299c-0.915,0.047-1.834,0.047-2.749,0.002c-0.704-0.035-1.177-0.609-1.183-1.324
	c-0.006-0.799-0.005-1.6,0-2.4c0.005-0.768,0.511-1.33,1.279-1.359c0.847-0.031,1.698-0.031,2.546-0.002
	c0.773,0.029,1.27,0.582,1.279,1.355C13.926,24.224,13.922,24.625,13.922,25.025z M13.043,25.05c0-0.398,0.004-0.799-0.001-1.199
	c-0.004-0.344-0.154-0.508-0.499-0.512c-0.78-0.008-1.56-0.008-2.34,0c-0.343,0.004-0.505,0.172-0.507,0.508
	c-0.005,0.781-0.005,1.561,0,2.34c0.002,0.338,0.162,0.506,0.503,0.51c0.78,0.01,1.56,0.01,2.34,0.002
	c0.349-0.006,0.498-0.162,0.503-0.508C13.048,25.812,13.043,25.431,13.043,25.05z"/>
<path fill-rule="evenodd" clip-rule="evenodd" d="M13.922,18.835c0,0.389,0.004,0.779-0.001,1.17
	c-0.01,0.785-0.527,1.342-1.306,1.361c-0.829,0.021-1.659,0.021-2.488,0c-0.776-0.02-1.306-0.586-1.311-1.359
	c-0.005-0.801-0.006-1.602,0-2.4c0.007-0.762,0.538-1.326,1.296-1.344c0.838-0.02,1.678-0.02,2.517,0
	c0.764,0.02,1.279,0.572,1.291,1.342C13.927,18.015,13.922,18.425,13.922,18.835z M13.043,18.8c0-0.389,0.005-0.779-0.001-1.17
	c-0.005-0.33-0.154-0.488-0.484-0.49c-0.79-0.008-1.579-0.008-2.369,0c-0.327,0.002-0.49,0.166-0.492,0.486
	c-0.006,0.789-0.006,1.58,0,2.369c0.002,0.32,0.165,0.492,0.488,0.496c0.79,0.008,1.579,0.01,2.369,0
	c0.339-0.004,0.485-0.17,0.489-0.521C13.047,19.582,13.043,19.191,13.043,18.8z"/>
<path fill-rule="evenodd" clip-rule="evenodd" d="M13.922,12.626c0,0.4,0.006,0.8-0.002,1.2c-0.013,0.761-0.542,1.317-1.304,1.334
	c-0.829,0.019-1.659,0.019-2.488,0c-0.769-0.018-1.307-0.587-1.313-1.36c-0.005-0.8-0.006-1.6,0-2.4
	c0.007-0.775,0.549-1.331,1.324-1.343c0.819-0.012,1.639-0.012,2.458,0c0.781,0.012,1.31,0.556,1.321,1.34
	C13.927,11.807,13.922,12.217,13.922,12.626z M13.043,12.611c0-0.4,0.005-0.8-0.001-1.199c-0.006-0.314-0.154-0.472-0.467-0.476
	c-0.799-0.008-1.599-0.008-2.398,0c-0.322,0.003-0.479,0.169-0.48,0.496c-0.005,0.78-0.005,1.561,0,2.34
	c0.002,0.339,0.164,0.509,0.501,0.512c0.78,0.007,1.56,0.007,2.34,0c0.345-0.003,0.5-0.164,0.505-0.504
	C13.048,13.391,13.043,13.001,13.043,12.611z"/>
<path fill-rule="evenodd" clip-rule="evenodd" d="M18.215,13.424c-0.945,0-1.893,0.001-2.838,0c-0.354-0.001-0.537-0.15-0.541-0.429
	s0.188-0.447,0.529-0.448c1.912-0.003,3.822-0.003,5.734,0c0.332,0,0.541,0.184,0.535,0.451c-0.008,0.267-0.209,0.425-0.553,0.426
	C20.125,13.425,19.17,13.424,18.215,13.424z"/>
<path fill-rule="evenodd" clip-rule="evenodd" d="M18.249,14.289c0.975,0,1.951-0.004,2.926,0.002
	c0.271,0.001,0.457,0.187,0.461,0.427c0,0.236-0.184,0.421-0.453,0.445c-0.088,0.007-0.176,0.003-0.264,0.003
	c-1.646,0-3.295,0-4.941,0c-0.207,0-0.41,0.003-0.615-0.001c-0.342-0.008-0.531-0.173-0.525-0.454
	c0.006-0.271,0.182-0.422,0.518-0.423c0.965-0.003,1.93-0.001,2.895-0.001C18.249,14.288,18.249,14.289,18.249,14.289z"/>
<path fill-rule="evenodd" clip-rule="evenodd" d="M17.497,19.632c-0.713,0-1.424,0.002-2.135,0
	c-0.344-0.002-0.531-0.166-0.525-0.449c0.006-0.266,0.191-0.428,0.518-0.428c1.434-0.004,2.867-0.004,4.301,0
	c0.314,0,0.516,0.178,0.518,0.438c0.004,0.26-0.197,0.438-0.512,0.438C18.94,19.634,18.217,19.632,17.497,19.632z"/>
<path fill-rule="evenodd" clip-rule="evenodd" d="M17.01,20.494c0.547,0,1.094,0,1.639,0.002c0.354,0.002,0.539,0.156,0.539,0.434
	s-0.189,0.441-0.537,0.443c-1.092,0.004-2.186,0.004-3.277,0c-0.348-0.002-0.537-0.164-0.537-0.441
	c-0.002-0.281,0.182-0.434,0.537-0.436C15.918,20.494,16.463,20.494,17.01,20.494z"/>
<path fill-rule="evenodd" clip-rule="evenodd" d="M15.975,25.841c-0.234,0-0.469,0.008-0.701-0.004
	c-0.271-0.012-0.443-0.195-0.438-0.447c0.006-0.238,0.172-0.418,0.43-0.424c0.488-0.01,0.977-0.01,1.465,0.002
	c0.256,0.006,0.422,0.193,0.424,0.432c0.002,0.248-0.174,0.428-0.447,0.439C16.463,25.847,16.219,25.841,15.975,25.841z"/>
<path fill-rule="evenodd" clip-rule="evenodd" d="M16.01,26.705c0.244,0,0.488-0.008,0.732,0.004
	c0.25,0.012,0.396,0.158,0.408,0.408c0.012,0.252-0.125,0.432-0.371,0.443c-0.523,0.021-1.051,0.023-1.576-0.002
	c-0.244-0.01-0.377-0.193-0.365-0.445c0.014-0.252,0.162-0.395,0.412-0.404C15.502,26.697,15.756,26.705,16.01,26.705z"/>
<path fill-rule="evenodd" clip-rule="evenodd" d="M11.194,24.898c0.156-0.176,0.306-0.355,0.466-0.523
	c0.195-0.205,0.433-0.23,0.623-0.074c0.201,0.164,0.221,0.418,0.035,0.646c-0.178,0.219-0.361,0.438-0.559,0.637
	c-0.442,0.451-1.287,0.23-1.435-0.385c-0.031-0.129,0.041-0.354,0.143-0.428c0.115-0.082,0.319-0.063,0.48-0.047
	C11.031,24.732,11.104,24.832,11.194,24.898z"/>
<path fill-rule="evenodd" clip-rule="evenodd" d="M12.023,18.818c0.41,0.477,0.467,0.689,0.25,0.9
	c-0.221,0.219-0.401,0.168-0.903-0.262c-0.265,0.209-0.503,0.621-0.914,0.242c-0.222-0.205-0.149-0.414,0.277-0.883
	c-0.201-0.271-0.651-0.516-0.234-0.932c0.204-0.203,0.384-0.135,0.875,0.285c0.264-0.199,0.488-0.609,0.9-0.256
	C12.497,18.103,12.432,18.312,12.023,18.818z"/>
<path fill-rule="evenodd" clip-rule="evenodd" d="M11.195,12.484c0.162-0.183,0.311-0.363,0.471-0.531
	c0.195-0.205,0.434-0.224,0.625-0.063c0.189,0.16,0.214,0.409,0.04,0.625c-0.189,0.235-0.382,0.47-0.598,0.68
	c-0.436,0.425-1.28,0.18-1.41-0.418c-0.029-0.131,0.048-0.346,0.151-0.428c0.103-0.082,0.302-0.067,0.455-0.051
	C11.012,12.308,11.087,12.405,11.195,12.484z"/>
</svg>
