<?xml version="1.0" encoding="utf-8"?>
<!-- Generator: Adobe Illustrator 16.0.0, SVG Export Plug-In . SVG Version: 6.00 Build 0)  -->
<!DOCTYPE svg PUBLIC "-//W3C//DTD SVG 1.1//EN" "http://www.w3.org/Graphics/SVG/1.1/DTD/svg11.dtd">
<svg version="1.1" id="Layer_1" xmlns="http://www.w3.org/2000/svg" xmlns:xlink="http://www.w3.org/1999/xlink" x="0px" y="0px"
	 width="30px" height="30px" viewBox="0 0 30 30" enable-background="new 0 0 30 30" xml:space="preserve">
<path fill-rule="evenodd" clip-rule="evenodd" d="M16.423,1c0.104,0.151,0.256,0.288,0.312,0.456
	c0.277,0.837,0.531,1.681,0.79,2.525c0.049,0.16,0.122,0.253,0.293,0.311c0.336,0.115,0.664,0.254,0.981,0.407
	c0.157,0.077,0.277,0.069,0.428-0.013c0.79-0.42,1.582-0.83,2.371-1.244c0.322-0.168,0.445-0.152,0.7,0.1
	c0.651,0.65,1.304,1.301,1.954,1.952c0.256,0.258,0.272,0.372,0.1,0.7c-0.413,0.79-0.823,1.582-1.242,2.368
	c-0.089,0.163-0.082,0.291-0.006,0.453c0.148,0.318,0.264,0.658,0.416,0.976c0.053,0.106,0.164,0.218,0.271,0.255
	c0.852,0.281,1.714,0.545,2.573,0.816c0.359,0.115,0.435,0.212,0.436,0.59c0.002,0.91,0.002,1.822,0,2.733
	c-0.001,0.359-0.08,0.458-0.427,0.568c-0.856,0.272-1.715,0.545-2.578,0.806c-0.157,0.048-0.235,0.127-0.29,0.279
	c-0.121,0.336-0.258,0.664-0.408,0.982c-0.071,0.153-0.075,0.275,0.008,0.428c0.419,0.789,0.83,1.58,1.242,2.371
	c0.182,0.338,0.162,0.449-0.106,0.72c-0.64,0.646-1.288,1.288-1.931,1.935c-0.271,0.27-0.375,0.28-0.727,0.098
	c-0.628-0.328-1.257-0.658-1.903-0.995c0.108,0.41,0.231,0.793,0.313,1.183c0.183,0.896,0.093,1.775-0.19,2.643
	c-0.109,0.335-0.301,0.468-0.547,0.395c-0.267-0.082-0.348-0.303-0.236-0.645c0.857-2.646-0.704-5.313-3.428-5.855
	c-2.475-0.492-4.948,1.314-5.245,3.826c-0.329,2.781,1.812,5.139,4.607,5.05c1.104-0.033,2.069-0.45,2.884-1.204
	c0.062-0.056,0.118-0.114,0.179-0.169c0.219-0.21,0.449-0.231,0.627-0.063c0.188,0.177,0.188,0.434-0.056,0.64
	c-0.376,0.326-0.764,0.653-1.186,0.917c-0.58,0.368-1.236,0.568-1.92,0.658c-0.055,0.008-0.103,0.033-0.152,0.049
	c-0.365,0-0.729,0-1.094,0c-0.211-0.043-0.424-0.086-0.635-0.135c-3.158-0.753-4.9-4.018-3.765-7.059
	c0.023-0.065,0.047-0.131,0.089-0.248c-0.676,0.352-1.302,0.68-1.929,1.005c-0.378,0.196-0.462,0.187-0.765-0.116
	c-0.639-0.639-1.276-1.278-1.914-1.914c-0.26-0.262-0.275-0.375-0.105-0.703c0.418-0.796,0.833-1.594,1.256-2.389
	c0.078-0.146,0.078-0.26,0.008-0.404c-0.156-0.328-0.273-0.678-0.431-1.006c-0.05-0.105-0.157-0.224-0.264-0.256
	c-0.863-0.287-1.734-0.552-2.601-0.824c-0.328-0.104-0.41-0.207-0.411-0.551c-0.002-0.922-0.002-1.841,0-2.762
	c0.001-0.364,0.081-0.467,0.421-0.573c0.859-0.27,1.721-0.531,2.576-0.815c0.113-0.037,0.229-0.161,0.284-0.274
	C6.204,9.66,6.316,9.319,6.468,9.001c0.074-0.156,0.092-0.283-0.006-0.429C6.41,8.499,6.37,8.415,6.34,8.33
	c-0.082-0.223-0.01-0.4,0.193-0.506c0.196-0.104,0.392-0.061,0.506,0.123c0.147,0.229,0.273,0.474,0.37,0.728
	c0.04,0.099-0.005,0.249-0.05,0.359c-0.203,0.517-0.426,1.025-0.626,1.542c-0.081,0.208-0.22,0.317-0.427,0.38
	c-0.817,0.25-1.632,0.514-2.451,0.757c-0.195,0.059-0.277,0.136-0.273,0.354c0.016,0.645,0.012,1.293,0.002,1.94
	c-0.003,0.167,0.06,0.235,0.214,0.283c0.826,0.252,1.648,0.518,2.476,0.766c0.263,0.078,0.399,0.23,0.491,0.489
	c0.161,0.461,0.356,0.917,0.564,1.357c0.113,0.239,0.122,0.438-0.003,0.669c-0.41,0.76-0.803,1.531-1.209,2.293
	c-0.073,0.139-0.091,0.229,0.036,0.35c0.487,0.469,0.963,0.949,1.433,1.432c0.11,0.115,0.192,0.117,0.325,0.044
	c0.755-0.401,1.492-0.85,2.28-1.173c0.453-0.182,0.744-0.506,1.099-0.783c0.412-0.324,0.856-0.611,1.284-0.91
	c-0.122-0.055-0.278-0.121-0.434-0.197c-2.428-1.145-3.875-3.761-3.522-6.378c0.37-2.742,2.406-4.882,5.105-5.349
	c1.574-0.274,3.042,0.029,4.393,0.876c0.055,0.034,0.107,0.069,0.158,0.107c0.231,0.167,0.291,0.385,0.162,0.587
	c-0.135,0.202-0.355,0.233-0.602,0.103c-0.417-0.219-0.821-0.482-1.265-0.631c-2.045-0.681-3.911-0.313-5.472,1.163
	c-1.589,1.502-2.09,3.384-1.454,5.474c0.632,2.079,2.098,3.336,4.229,3.742c2.128,0.4,4.275-0.576,5.446-2.401
	c1.17-1.825,1.137-4.155-0.091-5.953c-0.023-0.03-0.045-0.058-0.063-0.088C18.995,9.62,19.014,9.395,19.22,9.25
	c0.2-0.146,0.459-0.107,0.604,0.151c0.305,0.556,0.657,1.104,0.852,1.699c1.015,3.059-0.503,6.356-3.471,7.628
	c-0.083,0.032-0.163,0.072-0.275,0.123c0.755,0.354,1.37,0.838,1.913,1.432c0.104,0.115,0.329,0.109,0.488,0.188
	c0.761,0.393,1.514,0.791,2.274,1.188c0.071,0.036,0.142,0.073,0.241,0.12c0.538-0.541,1.08-1.077,1.61-1.627
	c0.044-0.05,0.027-0.203-0.016-0.279c-0.387-0.76-0.777-1.522-1.187-2.275c-0.137-0.252-0.132-0.457-0.01-0.717
	c0.212-0.439,0.4-0.895,0.563-1.357c0.086-0.254,0.227-0.392,0.478-0.465c0.818-0.247,1.631-0.513,2.449-0.759
	c0.176-0.052,0.249-0.12,0.245-0.316c-0.012-0.646-0.012-1.293,0-1.941c0.004-0.193-0.062-0.268-0.24-0.321
	c-0.819-0.247-1.63-0.515-2.449-0.759c-0.254-0.074-0.393-0.21-0.482-0.46c-0.171-0.478-0.373-0.948-0.585-1.409
	c-0.101-0.22-0.112-0.404,0.004-0.619c0.398-0.744,0.79-1.496,1.183-2.246c0.047-0.088,0.086-0.177,0.139-0.286
	c-0.541-0.536-1.07-1.072-1.615-1.596c-0.055-0.047-0.205-0.04-0.281-0.001c-0.771,0.394-1.539,0.791-2.298,1.201
	c-0.242,0.133-0.449,0.12-0.695,0.002C18.216,5.34,17.762,5.15,17.3,4.987c-0.261-0.091-0.398-0.241-0.479-0.5
	c-0.246-0.819-0.513-1.632-0.757-2.452c-0.052-0.174-0.13-0.221-0.306-0.219c-0.646,0.011-1.291,0.012-1.939-0.001
	c-0.186-0.002-0.269,0.047-0.325,0.231c-0.247,0.83-0.519,1.65-0.767,2.478c-0.071,0.246-0.217,0.374-0.45,0.461
	c-0.476,0.178-0.947,0.37-1.411,0.582c-0.23,0.106-0.422,0.104-0.644-0.015C9.479,5.15,8.722,4.77,7.979,4.368
	C7.799,4.269,7.688,4.266,7.537,4.425c-0.439,0.461-0.894,0.91-1.352,1.353C6.053,5.904,6.004,6.006,6.12,6.169
	c0.059,0.086,0.13,0.215,0.106,0.298C6.183,6.61,6.095,6.791,5.977,6.842c-0.115,0.049-0.36,0.006-0.429-0.085
	c-0.18-0.235-0.32-0.51-0.424-0.788c-0.04-0.104,0.03-0.3,0.118-0.389c0.69-0.713,1.398-1.412,2.101-2.113
	c0.188-0.188,0.39-0.153,0.6-0.042c0.774,0.408,1.552,0.807,2.32,1.222c0.202,0.11,0.362,0.132,0.577,0.019
	c0.287-0.154,0.598-0.27,0.907-0.374c0.169-0.057,0.246-0.149,0.296-0.312c0.255-0.844,0.512-1.689,0.791-2.526
	C12.887,1.287,13.036,1.15,13.141,1C14.235,1,15.329,1,16.423,1z"/>
<path fill-rule="evenodd" clip-rule="evenodd" d="M14.784,9.512c1.941,0.001,3.507,1.571,3.5,3.513
	c-0.006,1.919-1.583,3.493-3.504,3.493c-1.928,0-3.503-1.587-3.5-3.522C11.286,11.069,12.853,9.511,14.784,9.512z M17.463,13.023
	c0.004-1.482-1.181-2.679-2.665-2.69c-1.476-0.011-2.688,1.179-2.697,2.652c-0.008,1.488,1.195,2.71,2.675,2.713
	C16.247,15.699,17.458,14.492,17.463,13.023z"/>
<path fill-rule="evenodd" clip-rule="evenodd" d="M12.719,22.851c0.23,0.029,0.403,0.115,0.444,0.352
	c0.039,0.225-0.091,0.357-0.256,0.475c-0.165,0.114-0.323,0.234-0.489,0.348c-0.266,0.179-0.459,0.148-0.657-0.111
	c-0.105-0.137-0.201-0.282-0.306-0.421c-0.136-0.177-0.288-0.385-0.124-0.585c0.11-0.137,0.328-0.186,0.52-0.238
	c0.308-0.695,0.766-1.284,1.466-1.648c1.162-0.604,2.301-0.531,3.334,0.271c1.018,0.791,1.403,1.87,1.093,3.132
	c-0.318,1.269-1.164,2.023-2.444,2.286c-0.158,0.033-0.325,0.043-0.487,0.045c-0.26,0.002-0.426-0.158-0.432-0.394
	c-0.007-0.229,0.156-0.376,0.409-0.425c0.353-0.07,0.724-0.118,1.043-0.273c0.853-0.419,1.32-1.393,1.162-2.301
	c-0.179-1.027-0.913-1.738-1.954-1.891c-0.888-0.127-1.84,0.387-2.259,1.223C12.762,22.732,12.749,22.779,12.719,22.851z"/>
</svg>
