<?xml version="1.0" encoding="utf-8"?>
<!-- Generator: Adobe Illustrator 16.0.0, SVG Export Plug-In . SVG Version: 6.00 Build 0)  -->
<!DOCTYPE svg PUBLIC "-//W3C//DTD SVG 1.1//EN" "http://www.w3.org/Graphics/SVG/1.1/DTD/svg11.dtd">
<svg version="1.1" id="Layer_1" xmlns="http://www.w3.org/2000/svg" xmlns:xlink="http://www.w3.org/1999/xlink" x="0px" y="0px"
	 width="30px" height="30px" viewBox="0 0 30 30" enable-background="new 0 0 30 30" xml:space="preserve">
<path fill-rule="evenodd" clip-rule="evenodd" d="M30,14.26c-0.097,0.536-0.168,1.078-0.293,1.607
	c-0.854,3.626-4.029,6.587-7.714,7.18c-0.652,0.104-1.319,0.16-1.979,0.163c-3.466,0.017-6.931,0.008-10.397,0.008
	c-0.116,0-0.231,0-0.394,0c0.126,0.483,0.247,0.932,0.362,1.381c0.213,0.833-0.195,1.679-0.975,1.999
	c-0.589,0.242-1.148,0.166-1.659-0.212c-1.829-1.352-3.654-2.706-5.482-4.059c-0.196-0.145-0.399-0.28-0.598-0.422
	C0.394,21.565,0.15,21.077,0,20.53c0-0.234,0-0.469,0-0.703c0.169-0.738,0.638-1.221,1.245-1.655
	c1.911-1.372,3.788-2.791,5.678-4.191c0.621-0.459,1.382-0.484,1.992-0.066c0.596,0.408,0.852,1.129,0.662,1.858
	c-0.302,1.16-0.602,2.321-0.902,3.482c-0.02,0.075-0.035,0.152-0.061,0.226c-0.088,0.247-0.291,0.363-0.522,0.306
	c-0.247-0.062-0.38-0.27-0.313-0.539c0.203-0.823,0.417-1.645,0.629-2.466c0.102-0.396,0.208-0.791,0.311-1.188
	c0.107-0.417-0.001-0.75-0.308-0.958c-0.314-0.212-0.637-0.188-0.997,0.078c-1.867,1.383-3.733,2.766-5.601,4.146
	c-0.125,0.093-0.258,0.175-0.384,0.268c-0.704,0.519-0.708,1.582-0.013,2.091c1.425,1.044,2.848,2.091,4.27,3.138
	c0.582,0.428,1.161,0.859,1.742,1.289c0.349,0.258,0.656,0.279,0.972,0.072c0.291-0.19,0.421-0.543,0.324-0.932
	c-0.139-0.558-0.291-1.112-0.438-1.668c-0.156-0.591-0.015-0.778,0.591-0.778c3.769,0,7.538,0.007,11.307-0.002
	c3.949-0.008,7.378-2.493,8.533-6.165c1.639-5.211-1.857-10.666-7.294-11.318c-1.061-0.127-2.145-0.071-3.218-0.072
	c-0.442,0-0.733,0.35-0.738,0.82c-0.007,0.673-0.001,1.347-0.003,2.021c-0.001,0.401-0.146,0.548-0.543,0.553
	c-0.303,0.003-0.605,0.006-0.908-0.002c-0.279-0.008-0.462-0.178-0.471-0.419c-0.009-0.248,0.186-0.437,0.473-0.455
	c0.087-0.005,0.175-0.001,0.263-0.001s0.176,0,0.309,0c0-0.319-0.004-0.628,0.001-0.936c0.006-0.37-0.02-0.747,0.039-1.109
	c0.121-0.746,0.709-1.325,1.455-1.34c1.539-0.032,3.082-0.105,4.604,0.265c3.887,0.947,6.903,4.422,7.264,8.395
	c0.008,0.095,0.034,0.188,0.053,0.281C30,13.322,30,13.791,30,14.26z"/>
<path fill-rule="evenodd" clip-rule="evenodd" d="M15.777,18.036c-1.582,0-3.164,0-4.746,0c-0.088,0-0.176,0.003-0.264-0.004
	c-0.29-0.021-0.455-0.176-0.459-0.428c-0.004-0.263,0.168-0.434,0.473-0.444c0.302-0.01,0.605-0.003,0.908-0.003
	c2.822,0,5.644,0.004,8.466-0.002c1.737-0.004,3.146-1.006,3.631-2.562c0.727-2.336-1.129-4.696-3.585-4.644
	c-2.45,0.052-4.901,0.021-7.353,0.009c-0.798-0.004-1.37-0.597-1.357-1.349c0.012-0.754,0.597-1.304,1.397-1.311
	c0.322-0.003,0.645-0.006,0.966,0.001c0.298,0.007,0.489,0.181,0.496,0.431c0.007,0.259-0.192,0.439-0.506,0.445
	c-0.313,0.005-0.625-0.002-0.937,0.002c-0.335,0.005-0.535,0.175-0.536,0.451c-0.001,0.272,0.197,0.453,0.534,0.454
	c1.465,0.004,2.929,0.002,4.394,0.002c1.064,0,2.129-0.028,3.192,0c2.188,0.059,4.065,1.769,4.292,3.877
	c0.249,2.31-1.158,4.383-3.368,4.921c-0.432,0.105-0.888,0.141-1.333,0.146C18.648,18.046,17.212,18.036,15.777,18.036z"/>
<path fill-rule="evenodd" clip-rule="evenodd" d="M12.536,3.999c0.527,0,1.055-0.005,1.582,0.001
	c0.754,0.01,1.319,0.576,1.324,1.315c0.005,0.748-0.57,1.326-1.339,1.33c-1.054,0.006-2.109,0.006-3.163,0
	C10.193,6.641,9.618,6.062,9.614,5.33C9.61,4.595,10.18,4.012,10.925,4.001C11.462,3.993,11.999,4,12.536,3.999z M12.536,4.878
	c-0.517,0-1.034-0.003-1.552,0.001c-0.296,0.003-0.481,0.172-0.49,0.428c-0.009,0.269,0.184,0.458,0.489,0.459
	c1.025,0.004,2.05,0.003,3.074,0c0.317-0.001,0.503-0.172,0.503-0.444c0.001-0.272-0.185-0.441-0.502-0.444
	C13.551,4.875,13.043,4.878,12.536,4.878z"/>
<path fill-rule="evenodd" clip-rule="evenodd" d="M8.782,7.298c1.004,0,1.66,0.8,1.402,1.711c-0.212,0.749-1.05,1.143-1.904,0.896
	C7.588,9.707,7.19,8.976,7.383,8.264C7.548,7.658,8.069,7.298,8.782,7.298z M8.798,8.177C8.423,8.174,8.211,8.338,8.211,8.629
	c0,0.282,0.207,0.451,0.559,0.455C9.14,9.088,9.358,8.919,9.357,8.629C9.357,8.347,9.149,8.179,8.798,8.177z"/>
</svg>
