<?xml version="1.0" encoding="utf-8"?>
<!-- Generator: Adobe Illustrator 16.0.0, SVG Export Plug-In . SVG Version: 6.00 Build 0)  -->
<!DOCTYPE svg PUBLIC "-//W3C//DTD SVG 1.1//EN" "http://www.w3.org/Graphics/SVG/1.1/DTD/svg11.dtd">
<svg version="1.1" id="Layer_1" xmlns="http://www.w3.org/2000/svg" xmlns:xlink="http://www.w3.org/1999/xlink" x="0px" y="0px"
	 width="30px" height="30px" viewBox="0 0 30 30" enable-background="new 0 0 30 30" xml:space="preserve">
<path fill-rule="evenodd" clip-rule="evenodd" d="M10.937,25.392c-0.12,0-0.211,0-0.303,0c-0.457-0.004-0.6-0.148-0.6-0.614
	c0-0.997,0-1.995,0-2.991c0-1.561,0-3.123,0-4.686c0-0.643,0.086-0.73,0.726-0.74c0.046-0.002,0.093-0.005,0.177-0.008
	c0-0.35,0.019-0.695-0.003-1.038c-0.079-1.235,0.588-2.208,1.81-2.536c0-1.33,0.002-2.664-0.002-3.999
	c-0.001-0.234-0.018-0.469-0.049-0.702c-0.264-1.962-2.006-3.459-4.018-3.458C6.677,4.623,4.935,6.116,4.669,8.06
	c-0.033,0.241-0.05,0.487-0.051,0.73c-0.005,1.411-0.002,2.822-0.002,4.233c0,0.484-0.14,0.628-0.614,0.628
	c-0.799,0.001-1.599,0.001-2.398,0c-0.447,0-0.599-0.148-0.6-0.585c-0.001-1.468-0.008-2.935,0.001-4.402
	C1.029,4.825,3.81,1.637,7.611,1.08c4.262-0.625,8.322,2.521,8.681,6.798c0.125,1.496,0.049,3.007,0.063,4.512
	c0.001,0.11,0,0.221,0,0.359c0.137,0,0.247,0,0.357,0c3.283,0,6.565,0,9.849,0c1.495,0,2.438,0.937,2.438,2.424
	c0.001,3.801,0.001,7.6,0,11.4c0,1.486-0.943,2.432-2.432,2.432c-4.393,0-8.786,0-13.178,0c-1.525,0-2.452-0.934-2.453-2.469
	C10.937,26.164,10.937,25.79,10.937,25.392z M11.841,25.392c0,0.474-0.004,0.906,0.001,1.338c0.01,0.787,0.589,1.369,1.382,1.369
	c4.497,0.004,8.993,0.004,13.489,0c0.794,0,1.381-0.58,1.382-1.369c0.005-3.902,0.005-7.807,0-11.71
	c-0.001-0.776-0.585-1.364-1.356-1.365c-4.515-0.004-9.03-0.004-13.545,0c-0.669,0-1.245,0.462-1.321,1.121
	c-0.06,0.516-0.012,1.043-0.012,1.586c0.117,0,0.219,0,0.32,0c1.204,0,2.408-0.002,3.612,0c0.404,0.002,0.562,0.159,0.563,0.566
	c0.001,2.633,0.001,5.268,0,7.901c-0.001,0.403-0.16,0.562-0.565,0.563c-1.176,0.002-2.352,0-3.527,0
	C12.133,25.392,12.003,25.392,11.841,25.392z M15.453,12.735c0-0.454,0.004-0.884-0.001-1.316c-0.013-1.165,0.049-2.338-0.061-3.495
	c-0.357-3.784-3.964-6.535-7.714-5.943C4.333,2.51,1.924,5.31,1.908,8.692c-0.006,1.26-0.001,2.52-0.001,3.781
	c0,0.089,0,0.178,0,0.259c0.625,0,1.205,0,1.807,0c0-0.117,0-0.219,0-0.32c0-1.298-0.016-2.597,0.006-3.895
	C3.762,5.945,5.944,3.772,8.515,3.72c2.86-0.059,5.122,2.144,5.131,5.004c0.005,1.232,0.001,2.464,0.001,3.696
	c0,0.101,0,0.201,0,0.315C14.255,12.735,14.834,12.735,15.453,12.735z M10.95,19.056c1.515,0,2.996,0,4.485,0c0-0.6,0-1.188,0-1.771
	c-1.506,0-2.994,0-4.485,0C10.95,17.882,10.95,18.461,10.95,19.056z M10.95,21.761c1.51,0,2.999,0,4.48,0c0-0.605,0-1.193,0-1.773
	c-1.503,0-2.985,0-4.48,0C10.95,20.582,10.95,21.162,10.95,21.761z M10.961,22.683c0,0.625,0,1.213,0,1.807c0.765,0,1.507,0,2.25,0
	c0.739,0,1.479,0,2.223,0c0-0.618,0-1.203,0-1.807c-1.416,0-2.815,0-4.214,0C11.138,22.683,11.055,22.683,10.961,22.683z"/>
<path fill-rule="evenodd" clip-rule="evenodd" d="M21.324,19.419c0,0.547,0.006,1.093-0.004,1.638
	c-0.004,0.183,0.049,0.306,0.188,0.436c0.707,0.658,0.911,1.657,0.535,2.532c-0.36,0.842-1.22,1.395-2.121,1.365
	c-0.923-0.031-1.731-0.607-2.056-1.466c-0.323-0.856-0.113-1.801,0.563-2.43c0.137-0.128,0.19-0.251,0.189-0.435
	c-0.009-1.08-0.006-2.161-0.004-3.242c0.001-0.842,0.572-1.455,1.352-1.457c0.783,0,1.354,0.609,1.357,1.453
	C21.326,18.35,21.324,18.886,21.324,19.419z M20.42,19.638c0-0.629,0.017-1.259-0.014-1.887c-0.008-0.154-0.144-0.348-0.278-0.432
	c-0.098-0.062-0.333-0.025-0.428,0.059c-0.107,0.096-0.175,0.29-0.176,0.441c-0.014,1.193-0.013,2.387-0.003,3.58
	c0.001,0.281-0.087,0.473-0.331,0.629c-0.447,0.288-0.654,0.722-0.604,1.25c0.061,0.631,0.532,1.125,1.12,1.209
	c0.646,0.093,1.267-0.254,1.506-0.84c0.24-0.597,0.059-1.238-0.487-1.619c-0.226-0.156-0.315-0.343-0.31-0.614
	C20.427,20.824,20.42,20.232,20.42,19.638z"/>
</svg>
