<?xml version="1.0" encoding="utf-8"?>
<!-- Generator: Adobe Illustrator 16.0.0, SVG Export Plug-In . SVG Version: 6.00 Build 0)  -->
<!DOCTYPE svg PUBLIC "-//W3C//DTD SVG 1.1//EN" "http://www.w3.org/Graphics/SVG/1.1/DTD/svg11.dtd">
<svg version="1.1" id="Layer_1" xmlns="http://www.w3.org/2000/svg" xmlns:xlink="http://www.w3.org/1999/xlink" x="0px" y="0px"
	 width="30px" height="30px" viewBox="0 0 30 30" enable-background="new 0 0 30 30" xml:space="preserve">
<path fill-rule="evenodd" clip-rule="evenodd" d="M15.82,1c0.531,0.071,1.064,0.125,1.593,0.216c2.798,0.484,5.216,1.728,7.273,3.68
	c0.233,0.223,0.257,0.458,0.077,0.647c-0.171,0.179-0.421,0.167-0.651-0.052C22.931,4.37,21.61,3.444,20.09,2.859
	c-4.942-1.902-9.522-1.236-13.625,2.133C4.097,6.938,2.667,9.49,2.067,12.503c-1.275,6.399,2.522,12.93,8.709,14.973
	c6.62,2.184,13.624-0.963,16.366-7.373c0.941-2.201,1.217-4.504,0.9-6.876c-0.286-2.135-1.058-4.076-2.301-5.833
	C25.69,7.32,25.637,7.245,25.59,7.168c-0.156-0.25-0.122-0.492,0.084-0.626c0.195-0.13,0.426-0.08,0.59,0.152
	c0.227,0.319,0.452,0.641,0.657,0.973c0.966,1.559,1.591,3.249,1.893,5.055C28.9,13.24,28.938,13.766,29,14.289
	c0,0.511,0,1.021,0,1.531c-0.017,0.096-0.038,0.193-0.05,0.289c-0.067,0.506-0.105,1.016-0.201,1.516
	c-0.529,2.789-1.799,5.197-3.794,7.211c-2.093,2.113-4.606,3.441-7.542,3.949c-0.528,0.092-1.062,0.145-1.593,0.215
	c-0.547,0-1.094,0-1.641,0c-0.369-0.043-0.74-0.082-1.108-0.133c-2.76-0.391-5.201-1.494-7.291-3.338
	c-2.46-2.174-4-4.879-4.566-8.119C1.123,16.882,1.071,16.351,1,15.82c0-0.546,0-1.093,0-1.641c0.017-0.096,0.037-0.192,0.049-0.289
	c0.067-0.505,0.106-1.016,0.201-1.515c0.53-2.789,1.799-5.198,3.794-7.212c2.092-2.112,4.605-3.442,7.542-3.948
	C13.115,1.125,13.648,1.071,14.179,1C14.727,1,15.273,1,15.82,1z"/>
<path fill-rule="evenodd" clip-rule="evenodd" d="M8.28,21.64c0.67,0,1.295,0,1.964,0c0-0.166,0-0.326,0-0.484
	c0-0.465-0.004-0.93,0.002-1.395c0.003-0.299,0.166-0.484,0.406-0.49c0.249-0.008,0.417,0.184,0.418,0.498
	c0.004,0.609,0.001,1.221,0.001,1.857c2.533,0,5.05,0,7.6,0c0.006-0.09,0.018-0.186,0.018-0.281
	c0.003-0.518-0.003-1.037,0.004-1.557c0.004-0.32,0.159-0.51,0.404-0.518c0.258-0.006,0.425,0.191,0.428,0.527
	c0.004,0.51,0,1.02,0,1.531c0,0.096,0,0.193,0,0.307c0.63,0,1.229,0,1.821,0c0.015-0.02,0.036-0.033,0.036-0.047
	c-0.011-0.828,0.038-1.662-0.049-2.482c-0.164-1.561-1.58-2.828-3.148-2.846c-2.188-0.021-4.374-0.012-6.561-0.006
	c-0.692,0-1.327,0.201-1.896,0.604c-0.067,0.045-0.136,0.092-0.206,0.133c-0.213,0.125-0.405,0.094-0.558-0.1
	c-0.145-0.184-0.111-0.412,0.096-0.578c0.536-0.428,1.148-0.7,1.823-0.822c0.197-0.035,0.398-0.061,0.597-0.061
	c2.269-0.002,4.54-0.024,6.808,0.01c1.893,0.028,3.66,1.626,3.861,3.503c0.098,0.91,0.059,1.838,0.061,2.756
	c0.001,0.363-0.263,0.656-0.616,0.742c-0.141,0.033-0.29,0.039-0.433,0.039c-4.21,0.002-8.421,0.002-12.632,0.002
	c-0.781,0-1.076-0.295-1.077-1.07c0-0.574-0.002-1.148,0-1.723c0.004-0.701,0.143-1.371,0.47-1.998
	c0.146-0.283,0.363-0.389,0.589-0.283c0.226,0.107,0.299,0.348,0.156,0.631c-0.303,0.604-0.401,1.24-0.39,1.906
	C8.288,20.501,8.28,21.056,8.28,21.64z"/>
<path fill-rule="evenodd" clip-rule="evenodd" d="M18.554,11.053c-0.008,1.969-1.629,3.576-3.597,3.563
	c-1.957-0.015-3.565-1.637-3.552-3.584c0.013-1.959,1.62-3.563,3.574-3.565C16.942,7.462,18.561,9.086,18.554,11.053z M14.967,8.301
	c-1.507,0.013-2.747,1.273-2.724,2.769c0.022,1.498,1.27,2.729,2.753,2.718c1.494-0.012,2.75-1.287,2.729-2.773
	C17.707,9.524,16.449,8.288,14.967,8.301z"/>
</svg>
