<?xml version="1.0" encoding="utf-8"?>
<!-- Generator: Adobe Illustrator 16.0.0, SVG Export Plug-In . SVG Version: 6.00 Build 0)  -->
<!DOCTYPE svg PUBLIC "-//W3C//DTD SVG 1.1//EN" "http://www.w3.org/Graphics/SVG/1.1/DTD/svg11.dtd">
<svg version="1.1" id="Layer_1" xmlns="http://www.w3.org/2000/svg" xmlns:xlink="http://www.w3.org/1999/xlink" x="0px" y="0px"
	 width="30px" height="30px" viewBox="0 0 30 30" enable-background="new 0 0 30 30" xml:space="preserve">
<path fill-rule="evenodd" clip-rule="evenodd" d="M20.456,1.017c0.243,0.166,0.515,0.302,0.722,0.505
	c0.238,0.231,0.289,0.558,0.273,0.888c-0.003,0.107,0,0.213,0,0.353c0.154,0,0.278,0,0.403,0c0.881,0.003,1.396,0.512,1.398,1.387
	c0.002,1.631,0,3.262,0,4.892c0,1.978,0.001,3.954,0,5.931c0,0.092,0.004,0.184-0.006,0.273c-0.027,0.222-0.167,0.348-0.381,0.361
	c-0.204,0.013-0.353-0.096-0.405-0.296c-0.029-0.111-0.027-0.233-0.027-0.351c0-3.516-0.012-7.033,0.006-10.55
	c0.005-0.791-0.208-0.895-0.972-0.798c0,4.348,0,8.699,0,13.084c0.094,0.002,0.191,0.011,0.286,0.011
	c1.058,0.002,2.114,0,3.171,0.002c1.69,0.001,2.824,1.13,2.831,2.829c0.008,1.839,0.002,3.68,0.001,5.521
	c0,0.455,0.012,0.911-0.013,1.366c-0.07,1.318-0.919,2.283-2.217,2.546c-0.032,0.008-0.062,0.03-0.095,0.047
	c-2.553,0-5.103,0-7.655,0c-0.051-0.02-0.099-0.042-0.152-0.052c-1.125-0.264-1.842-0.953-2.111-2.076
	c-0.078-0.331-0.07-0.683-0.104-1.055c-0.106,0-0.214,0-0.32,0c-2.925,0-5.851,0.001-8.777-0.001
	c-0.889-0.001-1.411-0.522-1.42-1.406c-0.001-0.105,0-0.213,0-0.34c-0.12,0-0.2,0-0.28,0c-1.042-0.007-1.52-0.482-1.52-1.521
	c0-5.432,0.001-10.864-0.003-16.297c0-0.282,0.07-0.498,0.278-0.702c1.528-1.511,3.045-3.032,4.565-4.55c0.11,0,0.219,0,0.328,0
	C8.462,1.164,8.522,1.361,8.52,1.606c-0.007,1.13-0.001,2.26-0.003,3.389C8.515,5.917,7.997,6.429,7.072,6.43
	c-1.038,0.001-2.075,0-3.141,0C3.925,6.542,3.915,6.638,3.915,6.733c-0.001,5.294-0.001,10.588,0,15.88
	c0,0.515,0.138,0.653,0.645,0.653c3.526,0,7.052,0,10.578,0c0.088,0,0.178,0,0.303,0c0-0.133,0-0.238,0-0.344
	c0-1.148-0.006-2.296,0.001-3.444c0.014-1.439,0.932-2.54,2.322-2.738c0.492-0.07,1.002-0.028,1.501-0.032
	c0.444-0.004,0.889-0.001,1.366-0.001c0-0.122,0-0.221,0-0.316c0-4.629,0-9.258,0-13.886c0-0.546-0.123-0.668-0.679-0.668
	c-3.198,0-6.396,0-9.593,0c-0.064,0-0.128-0.002-0.191,0c-0.236,0.015-0.448-0.032-0.53-0.285c-0.081-0.25,0.056-0.416,0.264-0.536
	C13.42,1.017,16.939,1.017,20.456,1.017z M21.615,17.528c-1.129,0-2.259-0.002-3.39,0c-1.149,0.004-1.956,0.782-1.962,1.929
	c-0.009,2.269-0.009,4.537,0,6.806c0.005,1.146,0.813,1.932,1.961,1.933c2.249,0.004,4.5,0.004,6.751,0.001
	c1.151-0.002,1.95-0.776,1.956-1.932c0.013-2.269,0.013-4.537,0-6.806c-0.006-1.158-0.799-1.927-1.954-1.931
	C23.857,17.526,22.736,17.528,21.615,17.528z M15.425,24.108c-3.252,0-6.472,0-9.688,0c-0.091,0.729,0.06,0.906,0.745,0.906
	c2.87,0,5.739,0,8.608,0c0.106,0,0.213,0,0.334,0C15.425,24.693,15.425,24.406,15.425,24.108z M7.693,2.504
	c-1.04,1.044-2.068,2.077-3.089,3.103c0.865,0,1.764,0.008,2.662-0.006c0.263-0.005,0.42-0.193,0.423-0.452
	C7.699,4.269,7.693,3.387,7.693,2.504z"/>
<path fill-rule="evenodd" clip-rule="evenodd" d="M12.94,6.05c-0.62,0-1.24,0.003-1.859,0c-0.785-0.004-1.354-0.555-1.354-1.303
	c-0.001-0.745,0.569-1.306,1.352-1.311c1.249-0.007,2.496-0.007,3.745,0c0.778,0.004,1.36,0.574,1.361,1.308
	c0,0.744-0.59,1.303-1.386,1.306C14.18,6.052,13.56,6.05,12.94,6.05z M12.928,5.23c0.61,0,1.22,0,1.831,0
	c0.376-0.001,0.601-0.183,0.604-0.481c0.003-0.298-0.227-0.493-0.596-0.494c-1.211-0.002-2.423-0.003-3.635,0
	c-0.377,0-0.59,0.188-0.584,0.499c0.004,0.301,0.21,0.474,0.575,0.475C11.726,5.231,12.327,5.23,12.928,5.23z"/>
<path fill-rule="evenodd" clip-rule="evenodd" d="M12.296,11.136c1.821,0,3.642,0,5.463,0c0.082,0,0.166-0.007,0.246,0.005
	c0.226,0.036,0.365,0.174,0.365,0.405c0,0.229-0.137,0.369-0.364,0.404c-0.081,0.013-0.164,0.006-0.245,0.006
	c-3.653,0-7.304,0-10.954,0c-0.018,0-0.037,0-0.054,0c-0.366-0.002-0.563-0.145-0.563-0.409s0.197-0.411,0.562-0.411
	C8.6,11.136,10.448,11.136,12.296,11.136z"/>
<path fill-rule="evenodd" clip-rule="evenodd" d="M12.28,8.71c1.832,0,3.663,0,5.495,0c0.108,0,0.248-0.026,0.318,0.03
	c0.117,0.092,0.267,0.244,0.261,0.364c-0.006,0.135-0.149,0.285-0.268,0.385c-0.07,0.058-0.211,0.04-0.319,0.04
	C14.114,9.53,10.459,9.53,6.806,9.53c-0.046,0-0.092,0-0.137-0.001c-0.295-0.017-0.48-0.178-0.478-0.418
	c0.001-0.24,0.186-0.4,0.484-0.401c1.559-0.001,3.117,0,4.675,0C11.66,8.71,11.97,8.71,12.28,8.71z"/>
<path fill-rule="evenodd" clip-rule="evenodd" d="M10.255,13.571c1.148,0,2.296,0,3.443,0c0.1,0,0.202-0.003,0.299,0.016
	c0.207,0.038,0.32,0.178,0.326,0.381c0.005,0.204-0.103,0.35-0.305,0.398c-0.104,0.024-0.217,0.024-0.325,0.024
	c-2.287,0.001-4.574,0.001-6.859,0.001c-0.438,0-0.645-0.134-0.643-0.416s0.198-0.404,0.648-0.404
	C7.979,13.571,9.117,13.571,10.255,13.571z"/>
<path fill-rule="evenodd" clip-rule="evenodd" d="M9.051,16.821c-0.792,0.001-1.583,0.003-2.375-0.001
	c-0.375-0.003-0.606-0.302-0.43-0.58c0.073-0.116,0.255-0.226,0.389-0.228c1.628-0.017,3.257-0.013,4.886-0.009
	c0.269,0.001,0.451,0.18,0.446,0.414c-0.005,0.231-0.185,0.399-0.459,0.401C10.689,16.824,9.87,16.821,9.051,16.821z"/>
<path fill-rule="evenodd" clip-rule="evenodd" d="M9.076,19.25c-0.784,0-1.568,0.006-2.351-0.005
	c-0.136-0.003-0.3-0.037-0.401-0.119c-0.242-0.199-0.141-0.585,0.164-0.668c0.095-0.026,0.198-0.026,0.298-0.027
	c1.531,0,3.062,0,4.593,0c0.046,0,0.091-0.001,0.137,0.001c0.275,0.019,0.454,0.182,0.452,0.413c-0.002,0.231-0.18,0.4-0.458,0.402
	C10.697,19.254,9.886,19.25,9.076,19.25L9.076,19.25z"/>
<path fill-rule="evenodd" clip-rule="evenodd" d="M16.91,13.572c0.335,0,0.673-0.006,1.011,0.001
	c0.278,0.006,0.452,0.168,0.454,0.402c0.001,0.234-0.173,0.407-0.449,0.411c-0.684,0.008-1.367,0.008-2.05,0
	c-0.272-0.004-0.448-0.189-0.44-0.418c0.005-0.231,0.184-0.389,0.465-0.395C16.235,13.566,16.573,13.572,16.91,13.572z"/>
<path fill-rule="evenodd" clip-rule="evenodd" d="M23.332,24.045c0,0.196,0,0.414,0,0.63c0,0.473,0.006,0.947-0.004,1.422
	c-0.016,0.602-0.383,0.959-0.986,0.967c-0.475,0.007-0.947,0.004-1.422,0c-0.684-0.003-1.048-0.363-1.053-1.043
	c-0.001-0.564,0-1.129,0-1.695c0-0.098,0-0.195,0-0.331c-0.149,0-0.274,0-0.398,0c-0.575,0-0.964-0.297-1.204-0.792
	c-0.243-0.499-0.219-0.988,0.138-1.435c0.671-0.84,1.343-1.681,2.018-2.515c0.651-0.804,1.721-0.795,2.372,0.014
	c0.654,0.808,1.296,1.623,1.953,2.428c0.391,0.476,0.446,0.989,0.182,1.528c-0.258,0.526-0.686,0.813-1.295,0.772
	c-0.073-0.004-0.146,0.002-0.219,0.007C23.396,24.003,23.381,24.019,23.332,24.045z M20.687,24.796c0,0.383,0.015,0.766-0.003,1.146
	C20.671,26.191,20.766,26.26,21,26.25c0.398-0.016,0.802-0.016,1.201,0.001c0.237,0.011,0.317-0.067,0.313-0.309
	c-0.014-0.745-0.008-1.492-0.003-2.239c0.002-0.386,0.142-0.522,0.529-0.527c0.219-0.002,0.438-0.001,0.655-0.001
	c0.234,0.001,0.405-0.106,0.509-0.308c0.102-0.203,0.088-0.413-0.055-0.593c-0.687-0.861-1.372-1.723-2.07-2.574
	c-0.239-0.293-0.678-0.287-0.946-0.019c-0.064,0.064-0.118,0.14-0.175,0.211c-0.614,0.767-1.23,1.532-1.846,2.299
	c-0.163,0.205-0.248,0.432-0.123,0.684c0.113,0.231,0.325,0.301,0.569,0.301c0.219-0.001,0.438-0.006,0.656,0
	c0.321,0.012,0.466,0.155,0.469,0.475C20.691,24.032,20.687,24.415,20.687,24.796z"/>
</svg>
